<svg width="197" height="352" viewBox="0 0 197 352" fill="none" xmlns="http://www.w3.org/2000/svg">
<g clip-path="url(#clip0)">
<path d="M98.5576 3.56412C98.0068 2.24178 96.942 2.20505 95.8772 2.16831C90.3694 2.53563 84.8249 2.90295 79.4272 4.77627C74.9109 6.24553 70.064 5.80475 65.4008 5.80475C62.8672 5.91495 61.5086 7.53114 62.0227 9.88197C64.0422 16.7875 64.7766 23.1789 65.3273 30.1946C65.364 33.7943 65.2172 36.99 65.4375 41.0305C59.3422 26.0807 53.9079 11.4247 43.1861 0.111339C42.5618 -0.145783 42.1212 0.0378752 41.2767 0.441924C38.1556 3.8947 34.0431 5.18031 29.5635 5.6211C29.1596 5.80475 28.0947 5.73129 27.2135 6.13534C24.8635 6.64958 23.9455 8.08212 23.8721 10.2126C24.6065 16.6039 26.4424 23.0687 28.058 29.0927C29.8572 35.5207 31.8767 42.4263 34.1166 48.6707C35.2548 51.2786 35.5486 54.2539 36.0259 57.6699C33.5658 55.6497 31.9869 53.2254 30.5916 51.2786C27.2135 47.0545 23.358 43.0507 20.2002 38.2389C16.969 34.4922 13.9948 30.1211 11.6448 25.9705C9.69875 22.7013 7.055 20.2403 5.29251 17.412C4.33783 15.2448 2.13473 16.1998 0.0417709 16.0896C-0.398849 16.2733 -1.46369 16.2366 -2.12463 17.0447C-6.27382 19.3955 -10.9371 19.3955 -14.8292 21.1219C-15.6371 20.424 -15.6003 19.3955 -15.3433 18.771C-15.8941 16.3835 -16.4816 16.1631 -18.648 17.1181C-20.8144 18.0731 -22.3565 19.2853 -23.7151 20.9015C-26.212 24.6114 -28.9292 27.8805 -30.6182 32.2516C-32.1237 32.3985 -31.9034 32.8393 -35.5752 29.2763C-39.7611 32.6556 -44.7181 34.3453 -49.4548 36.439C-51.0337 37.6511 -53.3837 38.1654 -55.2931 38.496C-56.3579 38.4592 -57.2024 38.8266 -58.1204 40.2958C-59.3321 43.418 -58.8548 46.8341 -57.7532 50.4705C-57.5696 50.9113 -57.2024 51.7929 -56.9821 52.2336C-61.4251 56.2374 -67.1899 57.2292 -72 60.4248C-70.2742 68.9833 -65.3172 75.5583 -61.4251 83.1985C-64.1422 82.8312 -65.3172 84.9249 -66.8594 86.1003C-65.5743 90.2142 -63.8118 93.0426 -61.3883 96.128C-58.047 101.381 -53.3837 106.046 -50.2259 110.857C-47.4353 114.824 -43.9838 117.947 -40.9361 121.253C-37.558 125.477 -33.9596 130.105 -30.1042 134.072C-27.2768 136.974 -24.6331 139.435 -21.3651 142.116C-18.905 144.173 -16.5183 147.259 -14.0582 149.279C-8.8074 154.164 -3.51993 159.086 1.76754 164.008C10.5066 172.052 20.3471 179.105 29.7471 186.341C37.3478 191.777 44.6915 197.838 52.2555 203.311C57.6164 207.168 62.0594 211.392 67.2 214.808C67.8242 215.065 68.632 215.726 68.8523 216.167C71.496 218.628 74.1031 221.089 77.0038 222.926C80.4921 224.983 82.9155 228.068 85.5592 230.529C89.5983 234.974 93.8576 238.794 97.8967 243.202C100.724 246.104 102.89 249.813 105.02 253.523C106.232 255.066 106.562 256.976 107.554 258.078C110.785 261.862 111.85 266.563 113.318 271.081C115.889 279.272 117.431 287.39 120.882 295.214C123.563 301.275 126.427 307.776 131.274 312.882C133.661 315.967 136.268 319.457 140.233 321.33C142.693 322.322 145.447 322.652 147.944 323.644C148.568 323.865 149.449 323.497 150 324.783C148.164 327.648 146.732 331.395 149.743 334.737C150.771 335.839 151.542 337.566 153.635 337.676C154.076 337.492 153.892 337.051 153.892 337.051C152.314 334.664 152.828 332.35 154.003 330.256C155.214 327.134 155.214 327.134 154.81 321.624C156.426 324.012 157.381 326.179 156.83 328.493C156.977 329.999 156.683 331.688 156.83 333.158C156.022 337.161 160.355 343.516 163.549 343.663C164.835 343.075 164.467 342.23 164.063 341.349C161.493 337.823 160.796 334.003 161.64 329.999C162.154 327.685 161.824 325.775 161.934 323.644C166.34 328.934 170.085 335.068 167.001 342.12C165.789 345.242 167.148 348.291 168.91 351.12C169.535 351.377 170.342 352.038 170.783 351.854C172.472 352.148 172.913 351.964 172.766 350.458C172.802 349.393 172.435 348.548 172.252 348.108C170.893 345.059 170.599 342.084 170.342 339.108C170.379 338.043 170.416 336.978 171.517 335.986C174.124 339.476 176.658 344.067 182.496 342.01C183.414 344.177 183.965 346.528 184.92 348.695C186.058 351.303 187.527 352.221 190.501 351.928C190.795 350.238 190.207 348.952 189.216 347.85C184.736 338.925 182.606 330.55 185.581 320.963C186.609 317.4 186.315 314.425 184.369 311.155C185.838 311.009 186.425 312.294 186.829 313.139C187.967 315.747 188.848 318.979 190.023 321.587C190.574 322.873 190.097 324.122 189.62 325.371C188.445 327.464 190.06 329.852 192.594 329.778C193.659 329.815 194.54 329.448 194.393 327.942C193.475 324.709 192.998 321.293 194.026 317.73C194.54 315.416 193.365 313.874 191.97 311.927C191.125 311.229 190.538 311.009 190.391 309.503C191.198 310.164 192.006 310.862 192.41 311.706C193.402 312.845 194.209 313.506 194.613 314.388C195.238 314.608 195.862 314.865 196.266 314.645C197.147 314.278 196.743 313.433 197 312.772C196.413 311.486 196.302 310.017 195.458 309.319C193.659 307.556 191.639 305.315 188.702 304.544C189.216 302.23 189.95 300.356 189.877 297.822C189.252 292.9 188.445 287.574 185.47 283.166C183.084 280.117 181.321 276.187 179.192 272.514C174.235 264.837 169.314 257.197 164.357 249.52C161.824 244.965 158.409 240.741 155.875 236.186C152.387 229.427 149.082 223.146 145.594 216.388C143.868 212.494 141.518 208.343 140.233 204.266C136.818 195.414 134.285 186.157 132.192 176.754C127.749 158.498 125.215 139.912 123.122 121.142C122.057 112.841 122.021 104.576 121.36 96.0546C120.295 86.6513 120.993 76.5133 120.405 66.9263C120.001 61.4166 119.634 55.8701 118.643 50.1032C117.872 43.7119 116.697 37.5042 116.366 30.8925C116.476 28.7988 114.897 26.3745 115.411 24.0604C113.355 22.9217 113.686 20.1669 112.511 18.6241C110.748 19.3955 109.316 18.4772 107.884 17.5589C106.452 16.6406 105.204 16.1631 103.661 17.3752C102.597 12.6369 101.128 8.11885 99.8427 4.04163C99.4388 3.16007 98.9982 3.38046 98.5576 3.56412C98.5209 4.62934 98.4842 5.65783 98.8513 6.53939C100.21 9.58812 101.311 13.2246 101.789 16.6406C101.715 17.7058 102.119 18.5507 100.614 18.6976C99.1818 17.7793 98.8513 15.8692 98.2638 14.5836C97.199 19.1751 97.199 19.1751 96.1342 19.1384C96.2076 18.0731 95.9873 17.6324 96.0607 16.6039C96.685 16.8243 97.5295 16.4569 97.1623 15.5754C96.4279 12.7838 95.9506 9.36773 95.2529 6.57612C94.6287 6.35573 94.6287 6.35573 94.1881 6.53939C94.1147 8.63309 95.4732 10.6166 95.3998 12.747C94.9592 12.9307 94.5553 12.0491 93.7108 12.4532C94.1881 15.8692 95.2897 19.5057 96.1342 23.8033C94.5186 22.4442 93.4537 22.4075 92.3154 23.3992C91.2139 24.4277 89.1209 24.3175 87.8725 23.84C87.0647 23.1789 86.4405 22.9217 85.5592 23.3258C84.678 23.6931 85.5225 24.3543 84.8249 25.1624C82.9522 24.4645 80.7858 25.4195 78.5093 24.8685C77.7749 22.0769 77.7015 19.5424 76.9671 16.7508C76.453 14.4 76.5999 11.2043 75.2046 9.2208C76.4898 17.9997 77.3343 26.9255 79.8679 36.1819C78.6562 34.6391 78.9499 32.9862 76.8937 31.8108C78.0319 34.4188 78.9866 36.5859 79.5374 38.9368C80.4186 42.1691 81.5202 45.8056 81.153 49.6257C83.2092 55.4293 84.3475 62.7022 82.9522 65.3836C82.8421 62.8491 82.5116 60.9023 82.1811 58.9923C81.8874 56.017 81.0061 52.7846 81.153 49.6257C79.9046 44.4465 78.9132 38.6796 75.5351 33.427C80.5655 48.3033 81.7405 63.8409 82.7319 78.9376C83.0991 79.8192 83.7968 79.0111 84.6046 79.6722C84.4577 82.8679 84.935 86.2839 84.9717 89.8836C85.6327 98.4054 85.2288 106.854 87.1749 114.788C87.3952 115.229 87.7623 116.11 87.3217 116.294C85.7795 117.506 86.8077 118.608 86.9178 120.077C87.3584 124.558 87.7991 129.04 88.0194 133.08C86.9178 129.407 85.9998 126.211 85.3389 122.354C84.2741 117.616 84.3108 112.951 84.1272 107.845C83.9069 94.4751 82.8053 81.5088 81.1163 68.2854C80.9694 66.7794 81.0429 64.649 80.0515 63.5837C79.2069 63.9511 79.3905 64.3918 79.5741 64.7959C80.8593 73.5748 81.2632 82.721 81.9241 91.206C82.4014 94.6588 82.6952 97.634 82.5483 100.793C82.5483 105.458 82.5483 110.123 82.9522 114.604C83.2827 121.179 85.0819 127.644 86.7342 133.668C87.0647 135.578 86.9545 137.708 88.1662 139.251C89.1577 140.353 89.5616 141.198 89.2678 142.887C87.5788 142.594 88.0928 140.28 86.6608 139.398C85.8163 139.765 86.6241 140.426 86.1835 140.647C85.5592 140.39 86.0366 139.141 84.9717 139.104C84.3475 138.847 84.7514 139.729 83.6866 139.655C82.4382 139.178 82.4382 139.178 82.1077 137.268C80.8593 127.46 79.6476 117.616 79.2804 107.441C79.5374 105.752 79.2069 103.805 78.2155 102.703C77.8483 101.858 77.4444 100.977 77.5179 99.9114C76.8569 91.4264 76.4163 82.2802 75.7554 73.7584C75.682 71.1872 75.3882 68.2119 74.6906 65.4203C76.0124 90.7285 76.3062 116 81.8874 141.492C80.0147 140.757 78.7663 140.28 78.4358 138.369C77.9952 133.888 77.371 130.031 76.4897 125.771C75.3882 117.432 74.103 108.69 74.0663 100.389C74.4702 91.9406 74.0296 83.8596 73.7726 75.1542C73.2218 64.502 71.6062 53.8131 69.3664 42.9038C67.4937 32.8393 65.9148 22.1504 64.2992 11.4982C63.5648 8.70656 64.9234 7.05363 67.6406 7.38422C68.7054 7.45768 69.7703 7.49441 70.6515 7.1271C74.4335 7.49441 77.8483 7.0169 82.1444 6.17207C82.9155 11.4982 84.1639 16.6773 85.2288 21.379C85.4858 16.0896 84.2374 10.9472 82.9889 5.76802C85.1553 4.813 87.6889 4.73953 90.0756 4.22529C93.0498 3.93144 95.8037 4.26202 98.5576 3.56412ZM54.1649 95.2097C53.6141 93.9241 53.6876 92.8589 53.7243 91.7937C54.275 93.0793 54.2383 94.1445 54.1649 95.2097C54.936 96.9361 54.4586 98.185 54.1649 99.8747C54.018 98.4054 53.9079 96.8994 54.1649 95.2097ZM39.404 85.182C39.2939 87.3124 39.6244 89.2225 38.89 91.0958C38.5595 89.1857 37.7884 87.4594 37.0541 85.6962C38.1189 85.7697 38.7064 85.9901 39.404 85.182C38.3759 84.08 37.2009 82.5373 36.1728 81.4353C36.4298 80.8109 36.6501 80.1865 37.0908 80.0028C39.147 81.1415 39.4775 83.0515 39.404 85.182ZM63.932 167.571C59.5625 165.882 56.2946 163.2 53.0266 160.482C55.5235 161.474 57.1391 162.796 59.4156 164.412C60.407 165.514 62.9773 165.404 63.932 167.571C64.9969 167.645 65.8047 168.306 66.3922 169.591C65.5476 168.93 64.2992 168.453 63.932 167.571ZM49.1345 103.658C45.5728 102.666 42.3048 99.9481 42.6353 97.23C44.0673 98.1483 45.536 99.0298 45.8665 100.977C48.4001 100.866 48.4001 100.866 49.1345 103.658C49.9423 104.356 50.4196 103.107 51.0438 103.327C51.8516 104.025 52.4758 104.246 51.9985 105.495C50.5298 105.642 49.722 104.98 49.1345 103.658ZM109.022 24.8318C109.059 23.7666 108.251 23.1054 108.729 21.8565C109.61 21.4892 110.051 21.2688 111.152 20.277C114.016 26.7786 115.411 33.3903 114.861 40.3693C114.09 38.6429 114.383 36.9532 113.392 35.8513C111.886 35.9982 112.878 37.1002 112.033 37.5042C111.189 33.2066 110.748 28.7253 109.022 24.8318ZM-12.0019 141.088C-12.3691 140.206 -13.2136 139.545 -13.8378 139.288C-16.0777 137.708 -17.473 135.725 -19.2355 132.896C-16.9956 134.513 -15.7839 136.019 -13.948 137.819C-6.60429 143.879 0.739418 149.977 8.08312 156.037C13.5909 160.335 18.8784 165.257 24.3862 169.555C28.4619 172.897 32.3541 175.836 36.2095 179.84C36.8337 180.097 37.6415 180.758 38.2658 181.015C40.1384 181.713 41.7907 183.072 43.5165 182.301C41.24 180.721 38.1189 179.509 35.6955 177.489C27.5072 170.73 19.3557 164.008 10.7636 157.433C-2.2715 146.634 -14.6824 135.027 -27.5339 124.669C-32.4541 120.628 -36.4932 116.184 -41.3767 112.143C-46.4439 107.662 -51.0704 101.932 -55.4767 96.6055C-57.3126 94.8424 -58.9282 93.4833 -60.7641 91.6835C-61.0212 92.3079 -60.8008 92.7487 -60.8008 92.7487C-58.7813 94.9893 -57.2024 97.3769 -54.779 99.3972C-53.7509 100.536 -53.4204 102.446 -51.9884 103.364C-50.3361 104.723 -48.7204 106.046 -47.5455 107.588C-43.8736 111.151 -39.9814 114.09 -37.4479 118.681C-36.2729 121.289 -33.8494 123.309 -32.9315 126.542C-31.9768 128.672 -29.737 130.289 -27.901 132.052C-21.4386 138.516 -14.6824 144.357 -7.96288 150.197C-4.51133 153.319 -0.619171 156.258 2.83237 159.38C5.6597 162.282 8.30344 164.743 11.5714 167.461C10.9472 167.204 10.5065 167.388 10.323 166.947C4.55814 163.31 -0.545731 158.829 -5.6496 154.311C-11.5246 149.169 -16.9956 143.843 -22.4667 138.48C-25.7346 135.798 -29.1862 132.639 -31.6096 129.554C-36.64 124.044 -41.0463 118.718 -46.0767 113.172C-50.4829 107.882 -55.1095 102.152 -59.0751 96.679C-61.0946 94.4384 -62.6735 92.0508 -63.775 88.3776C-57.4962 89.7367 -54.7056 84.3372 -50.1525 82.8679C-48.904 83.3454 -48.3533 84.6677 -47.5455 85.3289C-43.947 89.9571 -40.1283 94.9893 -35.2447 99.0666C-29.9573 103.989 -24.4495 108.249 -19.3456 112.731C-9.61521 121.914 1.25348 130.031 12.3425 137.561C18.6581 142.52 25.8916 147.112 31.5463 152.915C36.6134 157.397 41.2767 162.061 47.0415 165.735C57.3227 172.567 67.8609 178.774 78.1421 185.643C78.7663 185.864 78.9499 186.304 80.235 185.753C63.8219 174.367 45.3524 165.441 31.2158 150.968C36.1728 153.98 41.0931 156.956 46.0501 159.968C51.1907 163.384 56.3313 166.8 61.9125 170.032C68.1179 173.522 73.8827 177.158 79.8679 180.207C86.0366 183.696 91.8381 187.333 97.8232 190.382C104.249 193.247 109.536 198.169 115.118 201.401C124.811 206.948 134.101 212.678 142.179 220.465C145.851 224.028 149.303 227.187 151.212 231.521C156.867 241.953 163.439 250.952 169.351 260.796C172.692 266.049 176.511 271.081 179.852 276.334C181.615 279.199 182.974 282.211 184.736 285.076C187.857 290.953 189.656 297.381 186.572 304.434C185.323 303.956 184.516 303.295 183.231 303.883C182.349 304.25 181.872 305.499 181.835 306.564C180.587 306.086 179.338 305.609 178.641 306.417C177.539 307.409 178.127 308.731 178.494 309.576C179.081 310.898 179.889 311.56 179.412 312.808C178.788 312.551 177.906 312.955 177.906 312.955C176.915 311.853 177.576 311.009 177.392 310.604C177.87 309.319 177.062 308.658 176.254 307.997C174.969 307.519 174.565 307.703 173.904 308.511C172.582 309.098 172.986 309.943 173.353 310.825C173.72 311.67 173.941 312.11 173.243 312.955C171.995 312.441 170.783 310.898 168.874 311.266C167.515 312.882 167.662 314.388 168.874 315.931C167.919 318.428 168.69 320.155 169.645 322.322C171.37 326.215 171.591 330.256 169.902 334.627C168.47 333.709 169.571 332.717 169.792 332.093C167.662 328.383 167.809 325.187 167.148 321.33C167.001 319.861 167.515 317.547 164.578 316.775C164.137 316.959 163.77 316.114 163.843 315.049C165.936 315.159 166.083 316.628 167.515 317.547C167.809 315.857 167.258 314.572 164.908 314.021C164.1 313.359 163.072 313.323 162.374 314.131C161.713 314.939 162.081 315.82 162.485 316.665C165.092 319.126 166.707 321.551 166.12 324.893C163.88 323.314 162.521 320.302 160.061 318.245C161.126 318.318 161.934 318.979 162.631 318.171C163.035 317.988 162.668 317.106 162.485 316.665C162.485 316.665 162.044 316.849 161.86 316.445C157.858 315.6 157.417 315.784 158.519 319.457C154.847 316.959 154.406 317.143 152.791 319.383C150.918 318.685 150.918 318.685 149.156 320.485C148.495 321.33 145.484 321.587 145.117 320.742C144.529 319.42 143.721 318.759 143.097 318.502C137.957 315.086 134.358 310.458 131.421 305.021C132.449 306.123 132.816 307.005 133.624 307.666C135.68 309.907 137.259 312.294 139.278 314.498C140.27 315.637 141.445 317.179 144.052 316.041C140.931 314.792 138.911 312.588 137.369 310.2C130.907 302.67 126.904 293.561 122.865 284.488C122.094 282.725 121.323 280.999 120.993 279.089C120.919 276.517 119.965 274.387 119.414 271.999C117.688 268.106 115.962 264.212 113.833 260.502C111.666 256.793 109.94 252.899 107.333 249.373C107.15 248.932 106.783 248.087 106.085 248.895C105.644 249.079 105.865 249.52 106.048 249.96C109.61 255.654 112.694 261.531 115.815 267.371C116.843 268.51 118.018 270.053 118.165 271.522C118.386 275.562 119.524 279.236 121.029 282.688C123.526 288.308 126.023 293.965 128.777 298.961C128.52 299.585 128.116 298.74 127.896 299.328C127.822 300.393 128.043 300.834 128.41 301.715C126.354 300.54 125.399 298.373 124.444 296.206C122.278 292.496 120.111 288.786 118.826 284.709C116.036 276.077 113.943 266.673 109.683 258.188C106.379 251.87 102.45 245.332 97.4193 239.786C94.592 236.884 91.5076 234.643 89.1209 231.558C83.503 224.726 76.3062 220.134 69.5867 214.294C64.6664 210.253 59.3422 206.397 53.8344 202.099C48.2899 197.801 42.3415 193.724 36.8337 189.427C28.0213 182.448 18.5846 176.277 10.2128 169.077C9.58858 168.857 8.96437 168.6 8.8175 167.094C10.2495 168.012 11.094 168.673 12.5261 169.628C14.9495 171.648 17.4096 173.669 19.8698 175.689C22.7338 177.525 26.369 177.452 27.8744 180.942C28.0947 181.382 28.7189 181.603 29.1596 181.419C28.1314 180.317 27.9846 178.811 26.369 177.452C19.7596 173.118 13.8847 167.975 7.34875 162.576C-4.03399 152.07 -15.8206 141.749 -26.726 129.995C-30.5815 125.991 -34.1799 121.399 -38.4025 116.514C-37.1541 116.992 -36.5299 117.249 -35.7221 117.91C-30.8752 123.016 -26.0284 128.121 -21.5855 133.411C-18.9784 135.872 -16.555 138.957 -13.0668 141.051C-13.0668 141.051 -12.4425 141.271 -12.0019 141.088ZM117.872 57.7067C116.66 56.1639 116.77 54.0335 116.88 51.9398C117.835 54.107 117.1 55.9803 117.872 57.7067C117.725 60.8656 118.863 63.4735 118.532 66.2284C118.643 72.3626 119.23 78.3499 118.716 84.2637C118.606 91.0591 119.818 97.23 120.148 103.842C120.552 112.988 121.397 121.914 122.682 130.693C124.334 144.981 126.427 159.086 129.585 173.228C130.576 178.995 132.045 184.578 133.44 190.161C134.946 194.679 136.635 199.638 138.728 204.413C140.013 208.49 141.739 212.384 143.905 216.094C144.676 217.82 145.41 219.583 145.557 221.053C142.73 218.188 141.225 214.698 139.682 211.245C138.14 207.792 136.598 204.303 135.496 200.666C134.395 196.993 132.889 193.541 131.788 189.867C131.347 190.051 131.347 190.051 130.907 190.235C132.375 194.789 133.697 198.867 134.725 203.568C134.725 203.568 134.725 203.568 134.321 203.789C131.641 197.691 130.429 191.484 129.218 185.313C129.658 185.092 129.621 186.157 130.686 186.194C131.164 184.945 130.356 184.284 130.393 183.219C129.805 181.933 129.475 179.987 128.704 178.26C126.904 171.832 126.133 165.404 125.399 159.013C124.15 153.87 122.461 148.911 122.094 143.365C121.911 138.296 121.286 133.374 120.258 128.672C119.671 127.35 118.606 127.313 118.459 125.807C118.055 121.363 117.357 117.506 116.513 113.208C115.485 103.842 114.42 94.4384 113.208 84.631C112.768 80.1497 111.703 75.4481 111.115 70.526C111.115 65.8611 111.115 61.1962 110.932 56.0905C110.601 49.5155 109.426 43.3078 108.251 37.1002C107.627 32.1781 106.122 27.6601 105.718 23.1789C106.158 22.9952 106.562 22.8115 107.003 22.6279C111.225 36.8063 112.254 50.8746 113.465 65.3469L113.906 65.1632C113.612 57.523 113.355 49.8461 112.658 42.3895C113.061 42.2059 113.061 42.2059 113.722 42.463C115.411 51.0215 116.072 59.5065 115.852 68.4323C116.77 66.9998 116.88 64.8693 116.99 62.7389C116.843 61.2696 116.513 59.3229 117.872 57.7067ZM-25.3307 100.389C-25.1471 100.793 -24.9636 101.234 -24.78 101.675C-34.4369 95.0628 -40.3119 85.2554 -47.9861 77.2479C-47.215 78.9743 -46.04 80.5171 -44.6447 82.5006C-45.6361 81.3986 -46.9947 83.0148 -47.5822 81.6925C-48.133 80.4069 -49.3814 79.9293 -50.8868 80.0763C-51.4743 78.7907 -52.0251 77.4683 -53.0532 76.3664C-54.3751 78.0193 -52.3556 79.158 -52.6126 80.8476C-53.8243 79.3049 -54.3384 76.9541 -56.1743 75.1542C-56.7618 78.5335 -53.6407 79.7457 -54.1548 82.0598C-55.2563 83.0515 -56.1743 84.4841 -58.5243 84.9983C-62.4165 77.3949 -67.7774 69.9383 -69.5031 61.3798C-62.5266 57.2659 -55.2196 55.062 -49.2345 49.8093C-48.2064 49.8828 -47.9861 50.3236 -47.1783 50.9848C-44.9384 52.5642 -43.3595 54.9885 -41.5236 56.7516C-38.6963 59.6534 -35.4283 62.3349 -32.8213 65.8611C-29.2596 70.4893 -24.9636 74.3094 -20.7042 78.0928C-15.2331 83.4556 -9.06443 87.9736 -3.37305 92.712C-1.0965 94.3282 0.923012 96.5321 3.16284 98.1115C9.51514 103.07 16.0878 107.405 22.4401 112.4C29.9674 118.865 37.5681 124.338 45.8298 128.966C52.586 133.741 59.7828 138.333 67.0531 141.859C71.6062 143.989 75.4984 146.928 79.6108 149.242C83.1358 151.299 85.9998 153.136 88.4233 156.221C89.2311 156.882 90.2959 156.956 91.1037 157.617C91.2873 162.723 91.9115 167.608 91.9115 172.273L91.4709 172.493C90.6998 170.767 90.5529 169.261 90.4061 167.755C90.4795 166.726 90.0756 165.845 89.2678 165.184C87.3952 164.449 87.2483 162.943 88.1662 161.51C88.7905 161.768 89.5983 162.429 90.4795 162.025C89.2678 160.482 87.8358 159.6 86.4038 158.682C82.071 155.927 77.9218 153.613 74.0296 150.675C64.4094 144.063 55.3766 137.672 45.2423 132.345C43.1493 131.17 40.8728 130.656 38.7798 129.48C38.7798 129.48 38.7798 129.48 38.5595 130.105C39.6244 130.178 40.4322 130.839 41.24 131.501C45.1688 133.374 48.6938 135.468 52.8063 137.782C63.5281 144.43 73.7726 152.364 84.4577 159.013C86.3303 159.711 86.9178 161.033 86.1835 162.906C84.4944 162.612 84.6413 159.417 82.4382 161.437C82.4014 162.502 83.6499 162.98 83.1725 164.229C80.6757 163.274 78.6561 161.07 75.4616 160.923C76.4898 162.025 77.9585 161.878 78.1054 163.384C76.8202 163.935 75.6085 162.392 74.5437 162.355C75.1312 163.641 76.3796 164.155 77.0038 164.376C78.2523 164.853 79.0601 165.514 78.7663 167.204C75.278 165.147 71.9734 163.494 68.4117 162.465C71.7164 164.118 74.5804 165.955 77.6647 168.232C79.5374 168.967 80.3085 170.693 80.4186 173.228C73.8093 168.894 67.4203 165 60.6273 161.253C60.3703 161.915 60.3703 161.915 60.3703 161.915C63.8953 163.971 67.3836 166.028 70.9085 168.122C70.4679 168.306 70.0273 168.489 70.0273 168.489C69.5867 168.71 70.6515 168.747 69.9906 169.555C57.8367 161.988 46.0868 154.238 33.7127 147.295C32.8314 147.663 32.8314 147.663 31.6197 147.185C24.4596 141.528 16.3815 137.341 10.7636 130.509C8.92766 128.709 7.31204 127.35 5.2558 126.211C-2.34493 120.738 -9.87224 114.273 -17.1792 107.111C-19.6394 105.091 -22.0261 102.005 -25.3307 100.389ZM104.029 184.541C106.305 186.121 106.158 189.28 106.672 191.667C105.167 191.814 104.359 191.116 104.212 189.647C104.065 188.141 103.735 186.231 104.029 184.541C103.037 183.403 102.89 181.933 102.927 180.868C103.074 177.709 102.376 174.918 101.642 172.126C100.944 178.664 102.119 184.872 102.89 191.263C101.018 190.529 101.018 190.529 100.871 189.059C99.1818 179.436 99.2185 170.106 98.7779 160.959C98.6677 159.453 98.7045 158.388 97.6763 157.286C97.199 167.865 98.1904 178.334 99.3654 189.206C96.6482 188.839 97.1623 186.525 96.1342 185.423C94.5553 183.035 94.2982 180.023 94.1881 177.489C93.9678 168.783 93.3068 160.262 93.2701 151.997C92.9029 141.786 92.7561 132.015 91.067 122.391C90.2592 117.065 90.2959 111.335 89.5248 106.009C88.6803 100.646 87.9092 95.3199 87.5053 89.7734C86.7709 83.3821 86.4405 76.8072 86.11 70.1954C85.4491 66.3754 85.192 62.2981 85.5959 58.5148C84.8249 56.7884 84.935 54.6579 84.7881 53.1887C84.6046 48.083 83.7968 42.7569 82.5483 37.5777C82.071 34.1616 80.9327 31.5904 80.4554 28.1744C82.1811 27.403 83.6866 27.2561 85.1553 27.1091C88.1295 26.8153 91.3241 26.9622 94.5553 26.0807C97.3459 25.346 100.063 25.6766 102.303 23.6564C103.698 25.6399 104.873 27.1826 105.204 29.1294C108.068 40.2591 109.904 51.3888 110.381 63.0695C110.381 67.7344 110.381 72.3993 111.005 77.3214C112.804 88.4511 113.979 99.3237 115.375 110.6C116.182 115.963 116.99 121.289 118.239 126.432C118.569 128.378 119.744 129.921 120.111 131.831C120.552 139.912 121.47 147.81 123.232 155.303C124.04 160.666 124.848 165.992 126.096 171.134C126.684 176.056 128.373 181.015 128.557 186.121C128.704 187.59 129.071 188.472 129.034 189.537C127.529 189.684 127.529 189.684 128.704 192.255C126.574 192.181 128.41 193.945 127.529 194.349C124.848 192.953 124.114 190.161 123.416 187.37C122.057 188.986 123.269 190.529 123.416 192.035C123.747 193.945 125.179 194.863 125.95 196.589C123.269 195.193 120.993 193.614 118.753 191.998C118.129 191.777 117.945 191.337 117.982 190.271C116.44 182.154 115.999 174.073 114.897 165.735C115.008 163.604 114.897 161.07 113.943 158.903L113.502 159.086C114.493 169.518 115.485 179.987 116.476 190.418C115.228 189.941 114.42 189.243 113.172 188.765C112.511 180.244 111.85 171.759 111.189 163.237C109.904 154.458 110.932 146.267 110.087 137.304C108.839 154.421 110.418 170.84 111.923 188.288C109.647 186.708 110.638 184.211 108.986 182.852C108.325 183.66 109.536 185.202 108.398 186.231C108.398 186.231 107.554 186.598 107.37 186.194C106.415 183.99 106.746 181.272 105.351 179.289C105.497 180.795 105.828 182.705 105.093 184.578C104.653 184.762 104.029 184.541 104.029 184.541ZM50.2727 110.931L50.7133 110.747C46.6376 107.368 42.4884 105.054 38.4126 101.675C34.9611 98.5523 30.6283 95.7974 26.5893 91.3529C28.058 92.2712 60.4438 115.229 60.8477 116.11C58.975 115.375 57.1391 113.612 54.3852 113.245C55.2297 113.943 55.2297 113.943 55.4133 114.347C58.2774 116.184 61.8024 118.277 64.6664 120.114C65.5109 120.775 66.0984 121.032 65.1805 122.465C61.6922 120.371 58.3875 118.755 54.4586 116.845C54.6422 117.285 54.6422 117.285 54.2016 117.469C56.625 119.526 60.2234 120.518 62.4266 123.163C59.232 123.016 57.0289 120.371 53.6508 119.783C55.6703 122.024 58.4242 122.354 60.0031 124.742C56.0742 122.869 52.5493 120.812 49.061 118.718C48.4368 118.498 46.7477 118.204 46.3806 117.322C46.0134 115.412 44.9853 115.339 44.1407 114.678C40.8361 113.025 37.7517 110.784 35.3283 108.727C27.7275 103.291 21.0448 96.4219 13.9214 90.7652C11.9019 88.5613 9.62531 86.9451 7.20188 84.9249C6.94485 85.5493 7.56907 85.8064 7.56907 85.8064C11.8284 89.6265 15.6839 93.6303 19.7596 96.9729C28.058 105.237 37.0908 111.592 46.3071 118.387C51.4477 121.803 56.8453 124.632 62.3898 127.864C63.2344 128.525 63.8586 128.783 62.757 129.774C54.275 124.705 45.8298 119.636 37.3845 114.567L36.9439 114.751C38.1556 116.33 40.4689 116.845 41.6439 118.387C36.0627 115.155 30.5182 111.923 24.9736 107.625C26.6627 107.919 27.8744 109.462 29.9674 109.572C17.6299 101.564 5.73314 93.3364 -4.58477 82.9046C-3.4465 85.4758 -1.16994 87.092 0.188637 89.0755C-0.655884 89.4429 -1.2801 89.2225 -1.90431 88.9653C-3.96056 87.7899 -5.13555 85.2187 -6.93476 83.4189C-15.0496 75.6317 -23.1643 67.8079 -31.0588 59.3963C-33.6659 56.9353 -36.3096 54.4743 -38.2924 51.2051C-40.0182 47.3116 -43.6533 43.7119 -46.2603 40.2224L-46.6642 40.406C-46.3705 42.3161 -44.7181 43.6751 -43.5064 45.2179C-42.3314 46.7606 -41.1197 48.3033 -40.3486 50.0297C-45.8197 49.3318 -47.0314 43.1242 -50.9236 40.1856C-51.4009 41.4712 -50.7767 41.6916 -50.5931 42.1324C-49.1978 44.1159 -47.9861 45.6219 -46.8111 47.1647C-45.9666 47.8626 -45.783 48.3033 -45.8197 49.3318C-47.5087 49.038 -48.0962 47.7524 -49.3447 47.2749C-51.5111 48.2299 -52.7228 51.3521 -55.697 51.6459C-56.211 49.2951 -56.9821 47.532 -56.872 45.4383C-55.4032 45.2913 -55.0728 47.2014 -53.3837 47.4952C-54.3384 45.3281 -55.5501 43.7853 -56.7251 42.2426C-56.6884 41.2141 -56.0274 40.3693 -54.522 40.2591C-50.2259 39.3775 -46.5541 37.2104 -42.4049 34.8595C-40.2385 33.9045 -37.6315 32.7658 -35.6487 31.37C-32.344 33.0229 -30.9854 36.035 -28.562 38.0552C-27.0932 39.0102 -26.1018 40.1122 -25.1104 41.2141C-21.6956 45.4015 -18.2808 49.589 -14.6456 53.1519C-11.4144 56.9353 -7.77928 60.4615 -4.32774 63.6205C-0.47229 67.5875 3.34643 71.5912 7.42219 74.9706C8.26672 75.6685 9.07452 76.3296 9.0378 77.3949C8.96437 78.4601 9.58858 78.6805 9.77218 79.1213C15.5003 83.8596 21.2284 88.5613 26.9197 93.2997C32.0236 97.781 37.5314 102.079 42.6353 106.56C44.8751 108.139 47.7759 109.976 50.2727 110.931ZM64.7766 64.098C64.3726 63.2532 64.4461 62.1879 63.8586 60.8656C61.582 55.6864 59.9297 49.6624 58.9383 43.8955C57.9469 38.1287 56.6985 32.9495 53.5407 28.1744C53.1368 27.2928 52.7696 26.448 51.7047 26.3745C52.0352 28.3213 53.4305 30.2681 53.5774 31.7741C52.2922 32.325 52.1821 29.7906 50.8235 31.4068C50.8235 31.4068 51.2274 32.2883 51.411 32.7291C54.6055 41.1407 57.5797 50.2134 59.0484 59.3963C59.1586 61.9308 59.6727 64.2816 60.407 67.0732C61.8758 71.5912 63.1242 76.7704 62.6836 81.619C62.6102 82.6842 63.0141 83.5291 62.757 84.1535C62.7203 85.2187 63.5281 85.9166 62.6102 87.3492C61.7289 79.4518 59.9297 71.9218 57.7633 64.6122C60.2969 78.5335 63.0508 91.8304 63.4547 105.605C61.9492 105.752 62.0227 104.723 61.6187 103.842C61.8023 96.0178 60.2602 87.8634 58.9383 80.1497C58.6445 77.1745 57.9102 74.3829 56.9922 71.1505L56.5883 71.3709C57.8367 76.5133 58.2039 82.0231 59.0117 87.3859C59.8195 92.712 60.6273 98.0748 60.15 103.989C58.9016 103.511 59.1219 102.887 59.1586 101.821C59.3789 92.9324 57.6532 84.3372 55.7805 75.3379C55.3766 74.4931 55.6703 72.8034 54.2383 71.8851C54.4219 72.3259 53.9813 72.5095 53.9813 72.5095C54.3852 73.3544 54.3118 74.4196 54.7157 75.3012C56.0375 82.9781 57.9836 90.9489 57.8367 98.7727C57.8 99.8379 57.9469 101.344 56.4047 102.519C55.6703 95.0628 54.7157 88.2307 52.7329 81.3619C52.8797 82.8312 52.8063 83.8964 52.9532 85.4024C52.329 85.182 52.6227 83.4923 51.3008 84.0433C51.9251 88.9653 53.1735 94.1078 52.5126 99.5808C51.2641 99.1033 50.8235 99.287 50.0157 98.6258C50.1258 95.4301 50.0524 92.8956 49.7587 89.9204C49.6485 88.4144 49.6485 88.4144 48.1431 88.5613C48.804 92.4181 48.8407 96.0178 48.2532 99.3972C44.8017 96.2382 47.5556 91.9406 46.8946 88.0838C46.454 88.2674 46.4173 89.3327 45.5728 88.6715C45.5728 75.7052 42.5618 63.0695 39.1103 50.5807C39.1103 50.5807 39.1103 50.5807 38.7064 50.8011C38.89 51.2419 39.2572 52.0867 39.0001 52.7111C37.8619 50.1032 36.4666 48.1197 34.8877 45.7321C32.6111 40.5162 31.1424 34.933 29.5267 28.9457C27.4705 23.1054 26.4791 17.3385 25.9283 11.3512C25.3776 9.00041 26.0752 8.19231 28.4252 7.67807C29.3064 7.27402 30.7752 7.16383 31.84 7.20056C35.4752 6.09861 39.147 4.99666 42.672 2.3887C45.7563 4.66607 47.5188 7.49441 49.2813 10.3595C50.3094 11.4614 51.7415 12.3797 51.2641 13.6286C50.7501 14.8775 50.9704 15.3183 51.154 15.7223C52.1087 17.8895 53.504 19.873 54.018 22.2606C52.9532 22.1871 53.5039 19.873 51.9618 21.0851C54.5688 28.2111 57.6531 35.1534 60.2969 42.2793C62.9039 49.4053 63.1976 57.0455 64.7766 64.098ZM7.09173 60.0942C12.93 71.0035 21.0081 79.8559 28.2049 89.1123C26.9197 88.6348 25.8916 88.5613 25.3041 87.2757C23.5783 83.3821 20.1268 80.2599 17.2995 77.3581C11.094 69.2037 5.54955 61.3064 1.10661 52.4173C-0.876198 49.1482 -3.51993 46.6871 -5.28242 43.8221C-5.28242 43.8221 -5.90663 43.6017 -6.12695 43.1609C-2.6754 50.948 0.849571 57.7067 5.40267 64.502C9.33156 71.0403 14.1417 77.2112 20.0166 82.3536C17.7034 81.8394 16.5284 80.2967 14.8761 78.9376C11.2409 75.3746 8.89093 71.2239 5.69642 67.4773C-3.48322 54.9518 -9.61521 41.0672 -13.5808 26.2643C-13.9113 24.3543 -13.8746 23.289 -11.2675 22.1504C-7.08163 32.7291 -2.30822 43.5649 4.00737 53.1887C-1.20666 42.5365 -5.79649 32.1414 -9.9824 21.5627C-8.66053 20.975 -7.37538 20.3872 -5.68633 20.7178C-3.96056 24.6114 -2.23478 28.505 -0.10511 32.2149C2.06129 35.9248 4.6683 39.4143 6.83469 43.1242C9.2214 46.2096 11.3878 49.9195 13.9581 53.4458C16.3815 56.5312 18.9518 60.0575 21.5588 63.547C21.5588 63.547 21.9995 63.3633 21.7791 62.9226C12.0487 49.1114 2.06129 35.9248 -5.02539 19.873C-3.29962 19.1016 -2.16135 18.1099 -0.50901 18.4037C1.91441 21.4892 3.23628 24.5012 5.21909 27.807C7.60579 30.8558 9.36827 33.7209 11.7917 36.8063C13.5542 39.6347 15.7573 42.2793 17.5565 45.1444C17.9604 44.924 17.9604 44.924 17.9604 44.924C12.4526 35.9982 6.28392 27.8438 1.43707 18.0731C3.34644 17.7426 3.53003 18.1466 4.55815 19.2853C9.77218 25.2358 13.2972 31.9945 18.0706 38.1654C23.6885 44.9975 28.8658 52.0132 34.4837 58.8453C35.6955 60.3881 37.7517 61.5635 37.4212 64.3184C34.0064 60.0942 30.7752 56.3476 27.5807 52.601C27.2869 54.2906 29.1596 54.9885 29.1228 56.0537C28.6822 56.2374 28.0947 54.9518 27.4338 55.7599C27.5807 57.2659 29.233 57.5597 29.3799 59.029C28.3518 58.9923 28.2049 57.523 26.883 58.074C30.8853 63.5837 35.7322 68.6894 39.4775 74.7869C37.972 74.9338 37.6048 74.089 37.3845 73.6482C37.0173 72.7667 36.4298 71.4811 35.4384 70.3424C32.6111 67.4773 29.3432 64.7592 27.1768 61.0493C26.8096 60.2044 26.1486 59.9473 24.6799 60.0942C27.6908 63.4368 30.2978 66.9263 33.3088 70.2689C33.7127 71.1137 34.5205 71.8116 34.0431 73.0605C29.9674 69.6812 28.0213 65.3469 23.7252 62.592C26.2955 66.1182 29.5267 69.8649 32.097 73.3911C33.1252 74.493 33.4924 75.3746 31.7666 76.146C30.1877 73.7217 27.7275 71.7014 25.708 69.4975C25.8182 72.032 27.6908 72.7667 28.4619 74.4931C27.3604 75.4848 26.7729 74.1992 26.3322 74.3829C25.6713 75.191 26.9197 75.7052 26.6627 76.2929C25.1205 77.5051 25.0471 74.9706 23.3213 75.7419C24.3127 76.8439 26.0018 77.1377 25.2674 79.0111C27.3971 79.1213 28.2049 79.7824 28.4986 82.7577C23.9088 80.6273 22.4401 76.1093 18.2909 73.7952C18.2909 73.7952 18.5112 74.2359 18.2542 74.8604C14.4722 69.7914 10.8737 65.1632 7.09173 60.0942ZM67.4203 39.6347C71.2757 51.903 74.6171 93.4099 72.7445 102.042C69.2562 81.2884 67.2734 60.3881 67.4203 39.6347ZM-23.3112 25.3828C-19.8597 37.8348 -12.773 49.2216 -3.92384 59.8004C-5.61288 59.5065 -6.42069 58.8453 -6.8246 57.9638C-8.4035 55.5762 -10.8269 53.556 -12.8464 51.3153C-17.2527 46.026 -22.3565 41.5447 -26.5792 36.6961C-28.7823 34.0514 -28.9659 33.6107 -27.3503 30.2681C-24.3761 34.6391 -22.8706 39.1939 -19.2355 42.7569C-21.769 38.1654 -24.0823 32.9862 -26.3589 27.7703C-25.5143 27.403 -25.4042 25.2726 -23.3112 25.3828ZM66.9429 94.769C67.2 93.0793 66.025 91.5366 65.4375 90.2142C64.6664 88.4878 63.932 86.7614 64.2258 85.0718C65.0703 80.0395 63.6015 75.5215 62.5367 70.7832C61.8758 66.9263 59.7094 63.2532 59.9297 58.9923C59.4524 55.5762 58.975 52.1602 58.0571 48.9645C56.5883 44.4098 55.0829 39.8918 54.0547 35.1901C53.6508 34.3086 53.4672 33.8678 54.3485 33.5005C55.3032 35.6676 56.2578 37.8348 56.7719 40.1856C58.6813 49.1849 61.4719 57.8169 64.0055 67.0365C64.1156 68.5425 65.107 70.7097 64.8133 72.3626C64.0789 74.2359 64.6664 75.5583 64.9969 77.4683C66.8695 82.8679 66.3554 88.7817 66.9429 94.769ZM41.0197 64.2816C44.3243 75.2277 44.2142 86.688 45.3892 97.5606C44.1407 97.0831 42.8923 96.6055 41.6439 96.0913C41.0931 93.7405 41.6439 91.4264 41.754 89.3327C42.3782 89.5531 41.9009 90.8019 42.5251 91.0591C43.1861 90.251 42.8189 89.3694 43.0392 88.745C42.8189 84.7045 42.3415 81.2884 41.24 77.652C40.3587 73.3544 41.4603 68.7262 41.0197 64.2816ZM-10.166 48.0462C-9.68864 46.7973 -10.9371 46.3198 -10.2394 45.5117C-8.66053 47.8993 -7.96288 50.7276 -6.60429 53.7396C-7.4121 53.0785 -7.41209 53.0785 -7.63241 52.6377C-11.2308 48.0095 -15.4535 43.1609 -17.473 37.3206C-18.9784 32.8026 -20.8878 28.4682 -22.2097 24.3543C-22.3198 22.885 -22.2831 21.8198 -20.9612 21.2321C-18.0238 30.3048 -14.6089 39.1571 -10.166 48.0462ZM188.848 350.569C187.196 350.311 186.609 348.989 186.205 348.144C184.883 345.096 183.745 342.488 182.827 339.255C181.909 336.06 181.872 332.423 182.276 328.64C182.239 325.04 183.414 321.918 183.377 318.318C183.488 316.188 183.157 314.241 181.321 312.478C180.146 310.935 179.999 309.429 179.669 307.519C181.101 308.437 181.101 308.437 181.284 308.878C181.064 309.503 181.248 309.907 181.615 310.788C184.883 313.47 185.544 317.326 184.295 321.514C181.578 329.448 183.341 336.941 186.168 344.508C186.939 346.271 187.894 348.401 188.848 350.569ZM180.44 331.505C180.33 333.635 181.284 335.802 181.138 338.961C176.07 334.48 171.334 330.88 171.701 323.461C176.07 325.187 175.813 330.476 180.44 331.505ZM186.499 306.564C188.518 304.103 189.436 307.335 191.529 307.446C189.363 308.401 187.673 308.107 186.205 308.254C187.013 308.915 187.38 309.796 188.224 310.458C191.272 312.735 193.255 316.004 192.006 320.191C191.933 321.257 192.52 322.542 192.447 323.608C192.594 325.113 192.741 326.583 193.071 328.493C190.795 327.979 189.987 327.317 190.684 325.444C191.419 323.571 191.713 321.881 190.758 319.714C190.17 318.392 189.583 317.106 189.436 315.6C188.665 313.874 187.931 312.147 186.719 310.604C185.507 309.062 184.736 307.335 183.561 305.793C185.287 305.021 185.434 306.527 186.499 306.564ZM159.253 322.248C160.428 323.791 160.796 325.701 160.502 327.391C159.657 331.395 159.694 334.994 161.016 339.072C161.199 339.512 161.824 339.769 161.126 340.578C158.886 338.998 157.307 336.574 157.454 333.415C158.042 330.036 158.409 326.252 159.253 322.248ZM125.876 301.789C129.107 304.507 131.531 307.592 134.138 311.082C136.268 314.792 139.535 317.51 142.803 320.191C134.725 316.004 130.172 309.209 125.876 301.789ZM180.22 313.47C182.423 316.114 182.423 320.779 180.33 324.305C177.282 322.028 177.135 320.559 178.641 315.747C179.485 315.343 179.632 316.849 180.513 316.482C180.55 315.416 179.742 314.718 180.22 313.47ZM180.293 330.036C179.045 329.558 178.641 328.676 177.833 328.015C174.234 323.387 175.116 318.318 175.813 312.845C176.805 313.947 177.392 315.269 176.658 317.143C175.446 320.265 176.805 323.277 179.228 325.297C180.881 326.656 181.027 328.162 180.293 330.036ZM152.093 321.257C155.912 325.26 152.534 329.374 151.102 333.121C148.054 330.844 149.413 328.162 152.791 324.085C152.864 323.02 152.277 321.697 152.093 321.257ZM181.284 340.467C179.742 341.68 178.677 341.606 177.245 340.688C175.409 338.925 173.61 337.125 172.619 334.958C172.252 334.113 171.444 333.415 172.362 331.982C174.712 336.133 178.457 337.566 181.284 340.467ZM-13.5074 38.1287C-15.7472 31.8843 -18.2441 26.2643 -18.7581 19.2486C-18.7581 19.2486 -18.3175 19.0282 -17.9136 18.8445C-17.9136 18.8445 -17.6933 19.2853 -17.2894 19.1016C-17.3628 25.8603 -14.2785 31.7373 -13.5074 38.1287ZM75.2413 125.256C75.7554 127.644 76.0858 129.554 76.6366 131.905C76.7101 134.476 77.0405 136.386 77.5913 138.737C76.3429 138.259 76.5632 137.635 76.3796 137.194C75.6819 134.402 75.7554 132.272 74.1765 129.884C73.1851 128.783 73.6991 126.468 73.5523 124.962C74.1765 125.22 74.6171 125.036 75.2413 125.256ZM171.26 350.605C168.947 350.054 168.617 348.144 168.066 346.859C166.891 344.251 167.368 343.002 169.167 341.165C169.461 344.141 170.783 347.189 171.26 350.605ZM69.2929 125.844C69.3296 124.779 68.7054 124.522 68.0812 124.301C67.2734 123.603 67.0898 123.199 67.3101 122.575C68.375 122.612 69.4398 122.648 70.2476 123.346C70.5781 125.256 70.2476 128.011 69.9171 130.729C68.889 129.627 67.6039 130.215 67.2734 128.268C67.4937 127.644 68.3015 128.342 68.9992 127.534C69.0359 126.468 67.5304 126.615 67.7875 125.954C68.2281 125.771 69.0359 126.468 69.2929 125.844ZM173.867 322.506C172.839 321.404 171.407 320.485 171.885 319.236C172.619 317.363 171.003 316.004 170.416 314.718C170.232 314.278 169.388 313.616 169.645 312.992C171.15 312.845 171.701 314.131 172.509 314.829C174.528 317.033 173.133 319.714 173.867 322.506ZM67.2367 115.339C67.0898 113.869 67.3468 113.208 67.6406 111.555C68.9992 113.502 68.3015 115.375 68.8523 116.698C69.4765 116.918 69.55 115.89 70.3578 116.551C70.321 117.616 70.8718 118.902 70.3945 120.151C68.7054 119.857 70.7249 117.432 68.632 117.322C67.3836 116.845 66.1351 116.367 65.107 115.229C65.8047 114.42 66.1718 115.302 67.2367 115.339ZM81.7405 171.612C84.2374 172.567 84.8616 172.824 84.7147 175.983C82.2178 175.028 81.0428 173.485 81.7405 171.612ZM-0.619164 61.4533C1.40035 63.6572 2.75894 66.7059 4.33784 69.0935C1.43707 67.2569 0.298798 64.649 -0.619164 61.4533ZM107.958 20.0934C106.672 20.6811 106.011 21.5259 104.322 21.2321C103.919 20.3505 103.551 19.469 104.212 18.6609C105.534 18.0731 106.783 18.5874 107.958 20.0934ZM74.3234 140.72C75.6819 142.704 77.8116 142.777 78.3257 145.128C74.764 144.136 73.9562 143.438 74.3234 140.72ZM89.1577 145.018C90.3326 146.561 91.1772 151.887 90.6264 154.201C89.7451 150.968 89.4147 147.993 89.1577 145.018ZM74.6538 137.965C75.4249 139.692 78.3991 139.398 77.4444 141.932C76.8569 140.61 73.6257 141.528 74.6538 137.965ZM80.7124 166.91C81.7038 168.012 84.2741 167.902 84.1272 171.097C82.4749 169.738 80.6022 169.004 80.7124 166.91ZM-16.555 112.033C-18.2073 110.674 -20.7042 109.719 -21.6222 106.486C-19.6026 108.69 -17.9503 110.049 -16.555 112.033ZM126.023 199.16C123.6 197.14 120.479 195.928 118.9 193.504C121.139 195.083 124.04 196.92 126.023 199.16ZM123.453 200.299C121.984 199.381 120.111 198.646 119.597 196.295C121.213 197.654 122.902 197.948 123.453 200.299ZM59.9297 32.0679C58.3141 29.6436 56.9922 26.6316 56.0742 23.3992C58.2774 26.0439 58.7547 29.46 59.9297 32.0679ZM117.468 196.185C116.036 195.267 114.347 194.973 114.273 192.439C115.705 193.357 117.578 194.091 117.468 196.185ZM35.0345 74.1625C37.0908 75.3379 38.89 78.1662 38.8165 79.1947C37.6415 77.6887 35.9892 76.3296 35.0345 74.1625ZM-27.9745 102.593C-29.6268 101.234 -31.4995 100.499 -31.8299 98.5891C-29.9573 99.287 -28.9292 100.426 -27.9745 102.593ZM88.9373 126.983C89.6717 129.774 90.1858 132.125 89.8553 134.88C89.3045 132.492 89.0475 129.517 88.9373 126.983ZM38.9634 94.6955C37.4947 93.7772 36.5033 92.6752 35.2916 91.1325C38.0454 91.4631 38.3759 93.4099 38.9634 94.6955ZM32.9049 88.0471C31.6564 87.5695 30.6283 86.4676 30.4814 84.9616C30.4814 84.9616 30.4814 84.9616 30.9221 84.7779C31.583 85.0351 30.8853 85.8432 31.5096 86.1003C31.6931 86.5043 32.7947 85.5126 33.1986 86.3941C33.5658 87.239 33.7861 87.6797 32.9049 88.0471ZM124.15 203.091C122.718 202.172 120.589 202.062 120.515 199.528C121.947 200.446 123.379 201.364 124.15 203.091ZM66.9062 131.023C68.7789 131.758 69.8437 131.795 69.7335 133.925C67.457 133.374 67.457 133.374 66.9062 131.023ZM93.1967 185.717C91.728 184.798 91.6545 182.264 92.3522 180.354C92.2787 182.484 93.2701 183.586 93.1967 185.717ZM67.5304 108.984C67.5304 108.984 67.3468 108.58 66.9062 108.764C67.0164 106.633 66.6859 104.723 66.7594 102.593L67.2 102.409C67.0898 104.54 68.0445 106.707 67.5304 108.984ZM87.7991 178.26C86.11 177.966 85.9631 176.46 86.8811 175.028C88.1295 175.505 88.2764 177.011 87.7991 178.26ZM-60.6907 85.9901C-62.0126 86.5411 -62.0126 86.5411 -63.7016 86.2472C-63.4079 84.5943 -61.7188 84.8514 -61.4618 84.2637C-60.654 84.9249 -60.654 84.9249 -60.6907 85.9901ZM58.8281 104.54C60.8844 105.715 60.407 106.964 59.9297 108.213C58.0571 107.478 58.975 106.046 58.8281 104.54ZM62.0961 107.258C63.5281 108.176 63.4914 109.241 63.0141 110.49C61.1414 109.755 62.0594 108.323 62.0961 107.258ZM50.5665 99.9114C53.0633 100.866 53.0633 100.866 51.7047 102.519C50.8969 101.858 50.0891 101.16 50.5665 99.9114ZM89.0842 173.007C90.3694 173.485 90.2959 174.55 90.4428 176.056C89.0108 175.138 88.203 174.44 89.0842 173.007ZM115.742 196.957C116.99 197.434 118.055 197.508 118.202 198.977C117.578 198.72 116.329 198.242 115.742 196.957ZM7.60579 130.325C5.95345 129.003 4.52143 128.085 3.30972 126.542C4.74174 127.46 6.39407 128.819 7.60579 130.325ZM109.463 190.933C108.031 190.014 108.031 190.014 108.141 187.921C109.573 188.802 109.573 188.802 109.463 190.933ZM65.5109 133.705C64.2625 133.227 62.8305 132.309 61.8023 131.207C63.4914 131.501 64.5195 132.603 65.5109 133.705ZM90.8834 180.538C89.0108 179.803 89.4881 178.554 89.5248 177.489C90.9569 178.407 90.7366 179.031 90.8834 180.538ZM56.5883 102.96C58.0203 103.878 57.543 105.127 57.0289 106.376C56.0375 105.274 56.111 104.209 56.5883 102.96ZM31.6564 78.2397C29.3799 77.7254 29.1596 77.2847 29.4533 75.595C30.2611 76.2929 30.665 77.1377 31.6564 78.2397ZM30.3346 88.1572C28.9025 87.239 27.7275 85.6962 26.5158 84.1535C28.1314 85.5126 29.1596 86.6145 30.3346 88.1572ZM83.1725 140.904C84.6413 141.859 84.6413 141.859 84.9717 143.769C83.7233 143.255 82.9155 142.594 83.1725 140.904ZM47.4087 122.061C46.1602 121.583 44.9118 121.106 43.9204 119.967C45.1688 120.444 46.4173 120.922 47.4087 122.061ZM29.8939 80.0763C28.6455 79.5988 27.8377 78.9009 27.4705 76.9908C28.4986 78.0928 29.3064 78.7539 29.8939 80.0763ZM86.0366 170.73C87.285 171.244 87.028 171.832 86.9913 172.897C85.9264 172.861 85.9999 171.795 86.0366 170.73ZM34.3002 76.0358C35.0713 77.7622 35.0713 77.7622 33.7861 78.3499C32.9783 77.6887 33.6392 76.8439 34.3002 76.0358ZM85.4491 147.185C84.2007 146.671 84.0171 146.267 84.0538 145.202C85.1186 145.238 85.4858 146.12 85.4491 147.185ZM125.325 201.034C126.574 201.511 127.822 201.989 127.345 203.238C126.941 202.356 125.436 202.503 125.325 201.034ZM33.272 88.9286C34.5939 88.3409 35.2181 88.598 35.8056 89.8836C34.9244 90.2877 33.8595 90.2142 33.272 88.9286ZM60.0399 110.747C58.975 110.711 58.3508 110.453 58.2039 108.984C59.4523 109.462 60.0766 109.719 60.0399 110.747ZM113.869 196.222C112.621 195.744 111.997 195.524 111.85 194.018C113.098 194.496 113.722 194.753 113.869 196.222ZM52.8797 105.127C53.9446 105.164 54.7524 105.862 54.6789 106.89C53.6508 106.854 53.0266 106.633 52.8797 105.127ZM111.189 190.161C112.621 191.079 112.841 191.52 112.768 192.585C111.115 192.292 111.336 191.667 111.189 190.161ZM108.986 192.181C110.051 192.218 110.234 192.659 109.757 193.908C109.133 193.687 108.288 192.99 108.986 192.181ZM64.1156 95.4669C64.0789 96.5321 64.9234 97.1933 64.4094 98.4421C64.0422 97.5973 64.0789 96.5321 64.1156 95.4669ZM84.5311 148.618C85.3389 149.279 85.9631 149.536 85.9264 150.601C85.3022 150.344 84.678 150.087 84.5311 148.618ZM70.064 140.5C69.2562 139.839 68.8156 140.022 68.4484 139.141C69.7336 138.59 70.3578 138.847 70.064 140.5ZM86.2202 166.506C85.4124 165.845 85.0452 164.963 85.2655 164.339C86.5139 164.816 86.7342 165.257 86.2202 166.506ZM30.151 83.0515C29.233 84.4841 29.233 84.4841 28.2416 83.3821C28.6822 83.1985 29.1228 83.0148 30.151 83.0515ZM83.0624 166.359C81.1897 165.624 81.1897 165.624 80.1983 164.522C81.41 165 82.0343 165.257 83.0624 166.359ZM88.1662 166.175C89.1577 167.277 89.1576 167.277 88.6803 168.526C87.8725 167.865 88.0928 167.241 88.1662 166.175ZM83.6866 71.7749C84.0905 72.6565 84.4577 73.538 83.7968 74.3461C83.3928 73.4646 83.4663 72.3994 83.6866 71.7749ZM107.003 193.577C105.938 193.541 105.314 193.283 105.167 191.814C105.791 192.035 106.636 192.732 107.003 193.577ZM65.364 109.939C65.7312 110.821 65.9515 111.261 65.4742 112.51C64.8867 111.188 64.7031 110.784 65.364 109.939Z" fill="#D9B696"/>
<path d="M97.7497 227.699C97.3458 227.919 97.0888 228.544 96.4279 229.352C92.3888 224.944 88.1295 221.124 84.274 217.12C77.9585 211.096 71.2757 205.256 64.2992 200.04C55.8906 193.942 48.1063 188.029 39.918 182.335C39.2938 182.115 39.0735 181.674 38.2657 181.013C37.6415 180.756 36.8337 180.095 36.2095 179.837C35.5853 179.617 34.9978 178.295 33.7126 178.882C35.1079 180.866 36.5399 181.784 38.4126 182.482C40.4321 184.723 43.5532 185.935 45.793 187.514C51.1539 191.371 56.2211 195.852 61.582 199.709C66.9062 203.566 72.414 207.864 77.7014 212.786C81.153 215.908 85.2287 219.287 88.6435 223.475C86.1834 221.418 83.7233 219.434 81.0795 216.973C75.021 211.353 68.228 206.578 61.9125 201.619C54.5687 195.559 46.968 190.122 39.8079 184.466C39.0001 183.804 38.3759 183.547 38.4126 182.482C37.1274 183.07 36.7235 182.188 35.9157 181.527C32.8314 179.25 29.6001 176.568 26.5158 174.291C15.4635 165.732 5.51279 156.109 -4.65825 147.183C-7.11839 145.126 -8.69729 142.738 -12.002 141.085C-11.598 141.967 -11.4145 142.371 -10.6067 143.069C-9.17463 143.987 -7.5223 145.346 -6.3473 146.852C-1.42702 150.93 3.01592 155.154 7.49559 159.415C14.3987 165.659 21.7424 171.72 29.0861 177.817C36.8337 184.759 45.4625 190.269 53.8711 196.367C60.8476 201.583 67.5671 207.423 74.103 212.822C74.7272 213.043 75.535 213.741 75.278 214.365C73.4054 213.631 72.1936 212.088 70.578 210.729C60.5539 203.272 50.0891 195.963 39.5876 188.726C37.3478 187.11 35.3282 184.906 32.8314 183.951C35.0345 186.559 37.4946 188.616 40.1751 190.012C44.5079 192.73 48.143 196.33 52.4758 199.048C56.9922 202.244 61.325 204.999 65.4007 208.378C70.1007 211.978 75.2413 215.394 79.9045 220.095C82.1076 222.74 85.8529 224.173 88.2396 227.258C89.0474 227.956 89.4514 228.801 88.974 230.05C90.0388 230.123 90.8834 229.719 91.6912 230.417C95.9138 235.266 101.458 239.563 105.424 245.036C110.565 253.154 116.55 260.831 119.964 269.683C120.148 270.124 120.332 270.565 120.772 270.381C120.882 268.251 119.671 266.708 118.9 264.982C117.578 261.933 115.999 259.545 114.2 256.717C113.025 255.174 112.657 253.227 112.584 250.693C116.77 256.607 120.075 262.925 124.224 268.838C123.967 265.863 122.131 264.063 120.993 261.492C118.018 257.084 115.485 252.529 112.29 247.718C111.299 246.579 112.437 244.522 112.951 243.273C114.714 236.772 116.329 229.866 116.88 222.887C117.1 222.263 117.174 221.197 116.586 219.912C115.044 221.124 115.558 223.475 115.705 224.944C114.787 231.078 112.804 237.102 111.446 243.42C110.895 245.734 110.822 247.865 110.895 250.399C108.508 247.314 106.966 243.861 104.322 241.4C105.24 239.93 104.873 239.086 103.845 237.984C103.478 237.102 101.605 236.368 102.927 234.751C104.616 235.045 104.322 236.735 106.011 237.029C106.379 234.274 102.193 233.025 104.653 230.38C106.268 231.703 106.783 234.09 108.435 235.412C109.279 235.045 109.096 234.604 108.912 234.2C108.508 233.319 108.141 232.437 107.333 231.776C105.497 229.976 103.661 228.213 104.653 225.715C104.873 225.091 104.469 225.275 104.249 224.834C103.404 225.238 103.772 226.083 102.927 226.487C102.083 225.789 101.018 225.752 101.752 223.879C102.009 223.254 101.201 222.556 101.018 222.152C96.5747 216.826 91.067 212.565 85.9631 208.047C82.5116 204.925 79.06 201.803 74.9475 199.489C83.2826 206.652 91.4342 213.41 98.7044 221.601C97.6029 222.63 97.199 221.748 96.5747 221.528C93.3802 217.745 89.4513 214.806 85.9998 211.684C78.6561 205.586 71.3124 199.526 63.7484 194.089C61.4718 192.51 59.232 190.894 56.5515 189.498C70.6515 200.334 84.7514 211.206 96.6849 224.062C82.3279 209.186 65.0703 197.101 47.4086 185.274C50.0524 187.698 52.9164 189.535 55.5602 191.996C63.1609 197.432 70.9452 203.346 78.6928 209.223C85.4123 215.063 91.7279 221.05 97.7497 227.699C98.1536 228.58 100.026 229.315 100.173 230.821C99.7325 231.005 100.1 231.85 99.0716 231.813C98.4474 231.556 97.6029 230.894 97.6763 229.829C97.8966 229.205 98.1536 228.58 97.7497 227.699ZM101.715 234.274C100.687 233.172 100.687 233.172 100.981 231.482C102.413 232.4 101.752 233.209 101.715 234.274Z" fill="#D9B696"/>
<path d="M123.123 242.907C124.886 245.736 126.244 248.784 128.007 251.613C127.53 252.862 127.089 253.082 126.244 253.449C124.445 250.621 122.866 248.197 121.545 245.185C121.581 248.784 124.445 250.621 124.959 254.037C121.875 251.76 121.214 247.903 118.57 245.442C120.627 251.282 123.344 256.278 127.309 261.787C127.236 259.216 124.959 257.637 125.327 254.882C127.199 255.616 126.905 257.306 128.337 258.224C127.75 256.902 127.383 256.057 127.419 254.992C127.677 254.368 127.897 253.743 128.962 253.78C129.99 254.882 130.541 256.204 131.569 257.306C131.862 255.616 128.558 254 130.761 251.98C132.56 253.743 133.294 256.535 135.13 258.335C135.02 255.8 133.001 253.559 132.744 250.584C134.947 253.229 136.452 256.682 137.591 260.355C138.325 257.416 132.927 246.36 130.687 244.744C130.394 246.434 131.826 247.352 131.532 249.041C130.284 248.564 129.733 246.213 127.897 245.479C127.787 247.572 130.908 248.784 129.512 251.466C127.86 250.143 127.53 248.233 126.538 247.095C125.767 245.368 124.996 243.642 123.564 242.724L123.123 242.907Z" fill="#D9B696"/>
<path d="M47.5547 177.414C71.385 189.131 92.0943 204.338 110.527 222.594C108.728 215.1 60.1491 180.132 47.5547 177.414Z" fill="#D9B696"/>
<path d="M66.6123 191.262C68.8521 193.907 71.9365 195.119 75.0209 197.36C84.6411 205.037 94.8856 211.869 103.845 220.354C104.836 221.492 105.424 222.778 106.856 223.696C107.296 223.513 107.48 223.917 107.921 223.733C107.59 221.823 105.938 220.464 104.506 219.546C98.0434 213.081 90.6262 208.085 83.4661 202.429C78.9497 199.27 74.4701 196.074 70.5779 193.136C69.1092 192.217 68.1178 191.115 66.6123 191.262Z" fill="#D9B696"/>
<path d="M25.5234 154.53C37.8241 163.566 49.8678 173.3 63.5271 180.72C57.6154 175.541 50.7858 171.831 44.6538 167.313C38.4851 162.758 31.9125 158.424 25.7805 153.906C25.9641 154.347 25.5234 154.53 25.5234 154.53Z" fill="#D9B696"/>
<path d="M128.482 264.357C128.004 265.643 128.812 266.304 129.179 267.186C131.493 272.365 133.365 277.764 135.238 283.127C137.918 289.225 140.819 294.661 144.638 299.693C145.446 300.391 145.629 300.832 146.07 300.612C146.914 300.244 146.29 300.024 146.107 299.546C142.325 294.514 138.763 288.821 136.707 283.017C135.054 278.058 133.108 273.724 131.64 269.206C130.868 267.443 130.097 265.716 128.482 264.357Z" fill="#D9B696"/>
<path d="M-25.1475 118.422C-13.3608 129.772 -0.949949 140.351 12.3789 150.526C-0.0687046 139.947 -12.2593 128.781 -25.1475 118.422Z" fill="#D9B696"/>
<path d="M76.0498 189.168C80.1623 191.482 84.9357 194.017 88.6443 196.551C93.9685 200.408 99.2927 204.265 104.213 208.306C106.012 210.069 108.289 211.685 110.308 213.889C110.492 214.33 110.675 214.734 111.74 214.807C111.777 213.742 110.969 213.081 110.786 212.64C105.314 207.277 99.3294 203.2 93.1974 198.645C88.681 195.449 84.3482 192.731 79.6115 190.16C78.8037 189.499 77.5553 189.021 76.0498 189.168Z" fill="#D9B696"/>
<path d="M126.243 212.529C130.209 214.402 133 217.267 135.864 220.169C137.479 221.528 138.507 222.63 139.499 223.732C139.976 222.483 139.168 221.822 138.801 220.94C132.926 214.733 125.986 209.517 118.532 205.586C117.725 204.888 116.696 203.786 114.787 204.117C117.835 206.394 120.736 208.231 122.975 209.81C124.444 210.729 125.693 211.206 126.243 212.529Z" fill="#D9B696"/>
<path d="M109.72 207.901C107.774 204.632 88.6801 190.82 84.6777 189.976C93.3433 195.485 101.311 201.803 109.72 207.901Z" fill="#D9B696"/>
<path d="M122.976 209.812C122.352 209.591 121.728 209.334 119.818 209.665C126.171 214.624 131.678 218.921 137.186 223.219C136.672 220.868 134.8 220.133 133.184 218.774C130.944 216.13 128.264 214.734 126.244 212.53C124.996 212.016 124.004 210.914 122.976 209.812Z" fill="#D9B696"/>
<path d="M136.671 225.533C131.824 220.427 126.536 215.505 120.331 212.052C125.619 216.938 131.126 221.235 136.01 226.341C136.414 226.157 136.23 225.716 136.671 225.533Z" fill="#D9B696"/>
<path d="M85.4131 188.103C94.3357 192.988 102.083 198.865 110.125 204.118C108.95 201.51 90.4802 188.985 85.4131 188.103Z" fill="#D9B696"/>
<path d="M-7.70605 126.246C-0.362349 132.307 7.42198 138.184 15.0227 143.62C15.4633 143.436 15.4633 143.436 15.8672 143.253C8.08291 137.376 0.335301 131.499 -7.44903 125.622L-7.70605 126.246Z" fill="#D9B696"/>
<path d="M125.251 265.276C124.626 260.39 116.585 246.836 113.647 246.065C118.201 252.86 121.946 258.995 125.251 265.276Z" fill="#D9B696"/>
<path d="M149.157 235.009C144.163 233.099 128.374 239.564 126.832 245.441C133.037 239.564 140.198 235.89 149.157 235.009Z" fill="#D9B696"/>
<path d="M186.791 300.208C187.782 296.645 183.486 284.597 179.594 281.622C182.715 287.499 185.395 293.56 186.791 300.208Z" fill="#D9B696"/>
<path d="M120.331 216.68C124.627 220.5 128.703 223.88 132.962 227.7C133.403 227.479 133.219 227.075 133.623 226.855C129.804 222.851 125.949 218.847 120.588 216.056C120.772 216.496 120.331 216.68 120.331 216.68Z" fill="#D9B696"/>
<path d="M177.099 285.332C174.86 279.087 170.857 273.578 167.075 268.545C170.417 273.761 173.097 279.822 177.099 285.332Z" fill="#D9B696"/>
<path d="M145.667 277.471C145.079 271.52 141.297 266.451 137.956 261.199C140.453 266.855 143.354 272.292 145.667 277.471Z" fill="#D9B696"/>
<path d="M163.403 256.681C159.988 252.494 158.336 247.535 156.023 242.356C155.619 241.475 155.068 240.189 154.04 239.05C153.195 239.454 153.562 240.299 153.746 240.74C156.059 245.956 158.593 250.511 161.751 255.322C162.155 256.204 162.338 256.645 163.403 256.681Z" fill="#D9B696"/>
<path d="M173.281 294.257C171.482 287.829 168.103 282.576 163.697 277.287C167.259 282.944 169.719 288.6 173.281 294.257Z" fill="#D9B696"/>
<path d="M175.338 290.767C174.163 284.56 170.821 279.307 166.599 274.458C169.94 279.711 172.437 285.331 175.338 290.767Z" fill="#D9B696"/>
<path d="M168.653 266.268C171.628 270.639 174.381 275.671 176.915 280.226C177.245 277.507 172.362 268.765 168.653 266.268Z" fill="#D9B696"/>
<path d="M146.403 239.343C147.652 244.485 151.067 248.673 154.041 253.08C152.352 248.122 148.937 243.934 146.403 239.343Z" fill="#D9B696"/>
<path d="M137.92 306.819C140.27 310.97 143.061 314.9 147.173 317.214C144.823 313.064 141.151 310.566 137.92 306.819Z" fill="#D9B696"/>
<path d="M170.196 296.682C168.323 291.282 165.79 286.691 162.191 282.099C162.926 284.891 168.948 296.204 170.196 296.682Z" fill="#D9B696"/>
<path d="M152.496 294.148C155.066 298.703 157.123 304.543 161.823 308.143C158.665 303.331 155.911 298.335 152.496 294.148Z" fill="#D9B696"/>
<path d="M150.33 241.217C152.643 246.433 154.957 251.649 158.959 256.057C156.242 251.061 153.928 245.845 150.33 241.217Z" fill="#D9B696"/>
<path d="M124.811 274.79C125.325 281.843 128.629 288.124 132.375 294.258C129.914 287.573 125.765 281.659 124.811 274.79Z" fill="#D9B696"/>
<path d="M184.222 300.318C185.25 296.755 183.378 291.355 179.963 287.168C181.909 291.502 183.818 295.837 184.222 300.318Z" fill="#D9B696"/>
<path d="M149.928 268.362C152.461 272.917 155.179 277.949 157.051 283.349C158.006 280.814 153.379 271.484 149.928 268.362Z" fill="#D9B696"/>
<path d="M144.969 256.021C143.133 250.621 140.122 246.25 137.185 241.879C139.02 247.278 142.435 251.466 144.969 256.021Z" fill="#D9B696"/>
<path d="M142.584 257.636C140.051 253.045 138.105 248.71 135.131 244.339C135.057 246.433 140.528 256.461 142.584 257.636Z" fill="#D9B696"/>
<path d="M144.382 241.804C146.328 245.074 147.466 248.71 150.257 251.612L150.697 251.428C149.192 247.939 147.209 244.669 145.887 241.657C145.483 240.776 145.263 241.4 144.382 241.804Z" fill="#D9B696"/>
<path d="M129.401 226.67C127.418 223.401 124.994 221.381 121.249 219.912C123.893 222.373 126.096 225.017 128.96 226.854L129.401 226.67Z" fill="#D9B696"/>
<path d="M147.724 251.722C146.806 248.49 144.86 245.221 142.474 242.135C142.547 244.67 145.485 250.106 147.724 251.722Z" fill="#D9B696"/>
<path d="M128.667 228.545C126.427 226.929 124.444 223.659 121.103 223.072C123.526 225.092 125.325 227.957 128.446 229.169C128.446 229.169 128.887 228.986 128.667 228.545Z" fill="#D9B696"/>
<path d="M142.51 308.95C144.272 311.779 146.035 314.607 149.156 315.819C147.834 312.807 144.933 310.97 142.51 308.95Z" fill="#D9B696"/>
<path d="M154.848 258.408C156.83 260.612 158.63 263.477 160.649 265.681C160.539 263.109 157.345 259.363 154.848 258.408Z" fill="#D9B696"/>
<path d="M147.76 259.986C149.596 261.749 150.807 263.292 153.047 264.908C152.717 262.998 149.889 260.097 147.76 259.986Z" fill="#D9B696"/>
<path d="M150.405 257.782C151.801 259.729 152.755 261.896 155.436 263.329C154.114 260.28 152.902 258.737 150.405 257.782Z" fill="#D9B696"/>
<path d="M164.211 293.633C164.284 296.205 166.12 297.968 167.259 300.576C167.773 298.262 165.827 294.992 164.211 293.633Z" fill="#D9B696"/>
<path d="M158.812 313.1C157.233 310.713 154.92 310.162 152.496 308.142C153.451 310.309 155.874 312.329 158.812 313.1Z" fill="#D9B696"/>
<path d="M126.279 230.124C124.627 228.765 123.232 226.782 120.955 226.268C122.571 227.627 123.709 230.198 126.279 230.124Z" fill="#D9B696"/>
<path d="M162.743 265.791C162.449 262.816 160.65 261.016 159.255 259.032C159.549 262.007 161.385 263.807 162.743 265.791Z" fill="#D9B696"/>
<path d="M24.716 153.869C22.5129 151.187 19.8324 149.792 16.9316 147.955C19.1348 150.636 21.8519 151.996 24.716 153.869Z" fill="#D9B696"/>
<path d="M151.947 315.121C150.992 312.954 149.12 312.219 147.504 310.86C147.834 312.807 149.854 315.011 151.947 315.121Z" fill="#D9B696"/>
<path d="M175.703 305.645C177.061 303.992 175.666 302.008 174.895 300.282C173.757 302.375 175.556 304.139 175.703 305.645Z" fill="#D9B696"/>
<path d="M163.402 256.681C163.365 257.746 164.173 258.408 164.356 258.848C166.192 260.648 167.991 262.411 169.387 264.395C169.644 263.77 169.644 263.77 169.644 263.77C167.624 261.566 165.605 259.363 163.402 256.681Z" fill="#D9B696"/>
<path d="M159.107 266.892C159.621 269.242 160.833 270.785 162.008 272.328C162.118 270.197 160.503 268.838 159.107 266.892Z" fill="#D9B696"/>
<path d="M178.861 302.155C179.779 300.722 179.008 298.996 178.421 297.71C177.503 299.143 178.714 300.685 178.861 302.155Z" fill="#D9B696"/>
<path d="M119.965 228.766C121.397 229.684 122.388 231.851 124.555 230.896C123.159 228.912 121.911 228.435 119.965 228.766Z" fill="#D9B696"/>
<path d="M154.187 313.101C153.122 313.064 152.535 311.742 151.029 311.889C152.057 312.991 152.608 314.313 154.297 314.607C154.995 313.762 154.775 313.321 154.187 313.101Z" fill="#D9B696"/>
<path d="M180.22 295.874C179.926 297.563 179.816 299.657 181.468 301.016C181.285 299.547 180.991 297.6 180.22 295.874Z" fill="#D9B696"/>
<path d="M34.1172 170.397C35.9164 172.197 38.2297 172.712 40.7265 173.703C38.7437 171.463 36.614 171.389 34.1172 170.397Z" fill="#D9B696"/>
<path d="M148.531 266.378C148.238 263.403 146.622 262.044 145.227 260.06L144.786 260.28C146.181 262.227 147.54 264.211 148.531 266.378Z" fill="#D9B696"/>
<path d="M4.04394 146.927C5.65956 148.286 7.31189 149.645 8.96423 151.004C7.56892 149.02 5.91659 147.661 3.86035 146.486C4.04394 146.927 4.04394 146.927 4.04394 146.927Z" fill="#D9B696"/>
<path d="M172.398 303.991C171.921 305.24 172.325 306.122 173.132 306.783C174.234 305.791 173.206 304.652 172.398 303.991Z" fill="#D9B696"/>
<path d="M122.939 233.136C121.948 232.034 121.324 231.777 120.259 231.74C120.626 232.622 121.47 233.283 122.939 233.136Z" fill="#D9B696"/>
<path d="M58.4229 185.569C59.8549 186.487 60.4056 187.773 61.9111 187.626C60.883 186.524 59.6713 186.046 58.4229 185.569Z" fill="#D9B696"/>
<path d="M66.6136 191.262C66.0629 189.94 64.8144 189.462 63.3457 188.544C64.3738 189.646 64.9613 190.968 66.6136 191.262Z" fill="#D9B696"/>
<path d="M42.7812 174.843C43.6258 175.541 44.8742 176.019 45.4984 176.239C44.9109 174.953 43.8828 174.917 42.7812 174.843Z" fill="#D9B696"/>
<path d="M32.831 183.951C31.8396 182.813 30.3709 181.895 29.1592 181.417C29.71 182.703 31.142 183.621 32.831 183.951Z" fill="#D9B696"/>
<path d="M154.186 313.101C154.773 313.321 155.618 314.019 156.462 313.652C156.095 312.77 155.471 312.513 154.846 312.293C154.406 312.477 154.186 313.101 154.186 313.101Z" fill="#D9B696"/>
<path d="M163.587 306.342C163.55 307.408 163.734 307.812 165.056 307.261C165.093 306.195 164.652 306.379 163.587 306.342Z" fill="#D9B696"/>
<path d="M120.589 233.686C119.965 233.429 119.782 232.988 118.9 233.392C119.488 234.678 119.488 234.678 120.589 233.686Z" fill="#D9B696"/>
<path d="M76.05 189.168C75.4625 187.846 74.8383 187.626 73.5898 187.111C74.1773 188.434 75.2422 188.47 76.05 189.168Z" fill="#D9B696"/>
<path d="M165.716 301.75C166.157 301.567 165.973 301.126 165.789 300.722C165.569 300.281 164.945 300.024 164.945 300.024C164.027 301.456 165.092 301.53 165.716 301.75Z" fill="#D9B696"/>
<path d="M170.344 307.481C171.005 306.673 170.821 306.269 170.197 306.012C170.197 306.012 170.197 306.012 169.756 306.196C169.315 306.38 169.499 306.82 170.344 307.481Z" fill="#D9B696"/>
<path d="M116.55 153.097C117.982 149.351 112.364 93.2979 110.381 90.0288C112.804 110.709 114.787 131.572 116.55 153.097Z" fill="#D9B696"/>
<path d="M85.5957 58.5131C86.2199 63.4352 87.4684 68.5776 87.652 73.6833C88.9004 82.4255 89.9652 91.8288 91.434 101.012C91.7277 103.987 91.7644 107.587 92.866 111.26C93.3433 105.346 89.1941 72.4712 86.5137 57.0806C85.4488 57.0071 86.0363 58.3295 85.5957 58.5131Z" fill="#D9B696"/>
<path d="M127.087 186.229C123.929 172.087 120.331 158.166 118.679 143.84C119.046 158.717 123.048 172.491 127.087 186.229Z" fill="#D9B696"/>
<path d="M86.2559 40.0737C88.7894 53.995 89.1933 67.8062 90.8457 82.0948C92.7917 77.0993 88.459 42.7551 86.2559 40.0737Z" fill="#D9B696"/>
<path d="M101.9 27.4751C104.14 38.3844 105.719 50.1386 107.702 61.6723C108.95 57.4849 104.361 29.4953 101.9 27.4751Z" fill="#D9B696"/>
<path d="M116.843 160.737C117.908 169.075 120.294 176.826 122.681 184.576C121.616 176.238 119.229 168.488 116.843 160.737Z" fill="#D9B696"/>
<path d="M104.801 83.1597C107.041 94.1057 107.591 104.721 108.326 115.777C108.656 104.795 107.481 93.9221 104.801 83.1597Z" fill="#D9B696"/>
<path d="M98.3359 26.4458C100.943 34.637 102.265 42.3139 102.926 50.8724C104.211 45.6198 101.237 28.2824 98.3359 26.4458Z" fill="#D9B696"/>
<path d="M100.577 51.3875C101.532 44.1881 98.4843 37.2825 97.3461 30.0097C97.75 29.826 97.1258 29.5689 96.2812 29.9729C97.4195 37.2091 100.063 44.335 100.577 51.3875Z" fill="#D9B696"/>
<path d="M102.964 103.656C103.955 101.158 102.964 98.9912 102.89 96.4567C102.376 89.4409 101.054 81.7273 99.4756 74.638C99.5123 73.6095 99.549 72.5443 99.1818 71.6628C99.1818 71.6628 98.7412 71.8464 98.5576 71.4424C100.357 82.5354 101.789 92.7835 102.964 103.656Z" fill="#D9B696"/>
<path d="M93.8576 72.4716C94.7021 67.4394 92.8662 62.0398 93.5271 56.5668C91.5811 53.2609 91.5076 49.6612 89.5615 46.3921C92.3154 55.024 92.9764 63.5091 93.8576 72.4716Z" fill="#D9B696"/>
<path d="M97.3826 46.5757C97.2724 40.4048 96.024 35.2624 94.1514 29.8628C94.5553 35.4093 95.9506 40.9558 97.3826 46.5757Z" fill="#D9B696"/>
<path d="M94.5546 43.6744C94.3711 38.5687 93.7836 33.6467 91.4336 29.5327C92.4617 34.2344 93.5265 38.936 94.5546 43.6744Z" fill="#D9B696"/>
<path d="M86.6963 30.5602C87.8346 33.1681 88.7525 36.4005 89.4869 39.1921C90.1846 37.3188 88.7525 31.7356 87.5775 30.1929C87.1369 30.3765 87.1369 30.3765 86.6963 30.5602Z" fill="#D9B696"/>
<path d="M105.387 75.1526C105.093 72.1773 104.212 68.9449 103.478 66.1533C103.735 69.1286 104.469 71.9202 105.387 75.1526Z" fill="#D9B696"/>
<path d="M102.964 103.656C102.891 105.787 103.221 107.697 103.552 109.644C103.221 107.697 104.36 105.64 102.964 103.656Z" fill="#D9B696"/>
<path d="M104.432 117.541C104.285 116.035 104.175 114.529 104.028 113.06C103.55 114.272 103.881 116.218 104.432 117.541Z" fill="#D9B696"/>
<path d="M93.9311 75.0059C93.8944 76.1078 94.0412 77.5771 94.592 78.8627C94.4451 77.3934 94.9224 76.1445 93.9311 75.0059Z" fill="#D9B696"/>
<path d="M97.4932 66.7041C98.0807 67.9897 98.0439 69.0549 98.5947 70.3773C98.6682 69.3121 98.5213 67.8428 98.1174 66.9612C98.1174 66.9612 98.1174 66.9612 97.4932 66.7041Z" fill="#D9B696"/>
<path d="M91.9121 86.7973C92.3894 85.5484 91.9855 84.7036 91.2145 82.9404C90.9575 84.6301 91.9488 85.7688 91.9121 86.7973Z" fill="#D9B696"/>
<path d="M105.974 80.0386C106.378 80.9201 106.745 81.765 106.708 82.8302C107.369 82.0221 106.561 81.3609 105.974 80.0386Z" fill="#D9B696"/>
<path d="M73.737 157.027C73.8105 155.962 29.8217 126.724 28.7568 126.687C43.2974 137.339 58.2785 147.808 73.737 157.027Z" fill="#D9B696"/>
<path d="M66.9804 156.917C53.1008 150.085 42.3423 139.837 30.0049 131.829C30.5557 133.151 32.0244 134.033 33.0158 135.135C39.772 139.91 46.1243 144.906 52.8805 149.644C56.1852 152.362 59.6735 154.419 63.7859 156.77C64.4101 156.99 65.2547 157.688 66.9804 156.917Z" fill="#D9B696"/>
<path d="M12.3416 128.23C6.83384 123.933 1.50965 120.113 -4.47547 115.999C-9.35904 111.958 -13.7653 106.669 -18.8691 102.151C-17.8777 104.318 -16.7027 105.861 -15.0504 107.22C-9.39576 112.987 -3.70438 117.725 2.90495 122.059C4.96119 123.235 6.7604 124.998 8.41274 126.357C9.84476 127.275 10.4323 128.561 12.3416 128.23Z" fill="#D9B696"/>
<path d="M26.2578 138.663C28.3508 139.801 30.407 140.977 32.0226 142.336C32.4632 142.115 32.4632 142.115 32.4632 142.115C30.407 140.977 28.5711 139.177 26.5148 138.038C26.6984 138.479 26.2578 138.663 26.2578 138.663Z" fill="#D9B696"/>
<path d="M45.6848 149.754C44.6934 148.652 43.1879 148.763 42.1598 147.661L41.7559 147.881C43.1879 148.763 44.4363 149.277 45.4277 150.379C45.8683 150.195 45.6848 149.754 45.6848 149.754Z" fill="#D9B696"/>
<path d="M-1.5752 113.171C-1.3916 113.575 -1.17129 114.016 -1.17129 114.016C-0.179895 115.154 1.25212 116.036 2.09664 116.734C1.50915 115.412 -0.143179 114.089 -1.5752 113.171Z" fill="#D9B696"/>
<path d="M12.3418 128.229C12.9293 129.552 12.9293 129.552 14.8019 130.25C14.4347 129.405 13.1496 128.927 12.3418 128.229Z" fill="#D9B696"/>
<path d="M-42.6611 40.147C-33.4815 52.6725 0.923771 87.2003 13.6651 96.0526C-6.49337 78.5683 -24.7058 59.6882 -42.6611 40.147Z" fill="#D9B696"/>
<path d="M50.9688 113.721C30.8104 100.902 14.4339 83.7848 -3.70508 68.5044C-1.31837 71.5899 1.94958 74.308 4.59331 76.769C12.3409 83.7113 20.4924 90.4332 27.7994 97.5592C34.2619 104.024 41.2384 109.24 48.8759 113.611C49.0595 114.052 49.6837 114.309 50.9688 113.721Z" fill="#D9B696"/>
<path d="M30.9951 11.1665C38.9263 32.5444 47.6653 53.5549 50.8598 75.9612C52.145 75.3735 51.7778 74.5287 51.5942 74.0879C51.0067 68.1374 49.3911 62.1134 47.7388 56.0894C45.3154 49.4042 43.5161 42.9394 41.056 36.2543C40.5419 33.9034 39.4037 31.2955 38.2654 28.7243C36.9435 24.6103 35.4748 20.0923 33.1248 15.9416C32.5373 14.656 31.7662 12.8929 30.9951 11.1665Z" fill="#D9B696"/>
<path d="M36.0615 7.38245C42.6709 20.0182 48.8396 32.8008 52.695 46.1344C49.7208 32.4335 43.1115 19.8345 36.9428 7.01514C36.5021 7.1988 36.5021 7.1988 36.0615 7.38245Z" fill="#D9B696"/>
<path d="M31.9492 22.6631C37.8242 37.1721 43.2953 51.8648 46.3796 67.0717C43.7359 51.6444 38.7054 36.7681 31.9492 22.6631Z" fill="#D9B696"/>
<path d="M35.4736 15.4268C42.4869 28.9073 47.1134 42.9388 51.2993 57.1172C48.3986 42.3511 43.3314 28.54 35.4736 15.4268Z" fill="#D9B696"/>
<path d="M40.543 6.979C42.7828 13.2234 46.7484 18.7332 49.4289 24.7939C47.189 18.5128 44.5086 12.452 40.543 6.979Z" fill="#D9B696"/>
<path d="M48.0313 14.5457C47.3703 10.6888 45.3876 7.41971 43.4415 4.15059C42.3766 4.07713 42.3032 5.14235 42.5235 5.58313C44.7266 8.22781 45.8282 11.8642 48.0313 14.5457Z" fill="#D9B696"/>
<path d="M53.8349 66.3379C53.7615 63.8034 53.0271 61.0118 52.3295 58.2202C51.5951 60.0935 52.6232 61.1955 52.9904 62.077C53.1373 63.583 53.7248 64.8686 53.8349 66.3379Z" fill="#D9B696"/>
<path d="M28.6455 16.382C29.4166 18.1084 30.1877 19.8347 30.9588 21.5611C31.0322 19.4674 30.2978 17.741 29.5267 16.0146C29.0861 16.1983 29.0861 16.1983 28.6455 16.382Z" fill="#D9B696"/>
<path d="M75.3515 55.2811C75.682 39.5966 71.0922 24.5366 68.8523 8.9624C68.4117 9.10933 68.0078 9.32972 68.0078 9.32972C70.0273 24.4632 74.6171 39.5232 75.3515 55.2811Z" fill="#D9B696"/>
<path d="M93.0482 16.8593C92.5709 13.4433 91.9099 9.58643 90.1842 5.69287L89.7803 5.91326C90.4412 9.73336 91.5428 13.4065 92.6443 17.043C92.6443 17.043 92.6443 17.043 93.0482 16.8593Z" fill="#D9B696"/>
<path d="M90.0403 18.2185C89.1223 14.9861 90.334 11.8639 88.1309 9.21924C88.4246 12.1945 88.2777 15.3534 90.0403 18.2185Z" fill="#D9B696"/>
<path d="M11.5708 55.0232C11.2403 53.1132 9.58797 51.7541 9.00048 50.4318C6.09971 44.9955 2.72161 39.7428 -0.179154 34.3065C-0.76665 33.0209 -1.31743 31.7353 -2.34555 30.5966C-4.98928 28.1356 -6.31114 25.1236 -8.29395 21.8545C-7.15567 29.0906 8.41298 58.476 14.2879 64.6837C6.94424 53.958 1.76693 42.2773 -3.59398 30.1191C-0.28931 36.437 3.45599 42.5344 6.76065 48.8523C7.53174 50.5787 8.92705 52.5622 10.102 54.1049C10.3223 54.5457 10.9466 54.7661 11.5708 55.0232Z" fill="#D9B696"/>
<path d="M-2.6746 19.3579C-3.55584 20.7904 -3.18865 21.672 -3.00506 22.0761C0.887109 29.7163 5.88083 36.2912 10.6542 42.4622C15.0972 47.7515 19.944 52.8572 24.1299 57.7426C24.3503 58.1833 24.3503 58.1833 25.4151 58.2201C14.9503 46.2823 4.0449 34.5281 -2.6746 19.3579Z" fill="#D9B696"/>
<path d="M11.5704 55.0239C10.9094 55.832 11.6805 56.4932 12.0844 57.3748C14.2508 61.0847 16.6375 64.1701 19.0242 67.2556C19.8688 67.9167 20.0156 69.4227 21.2641 69.9003C20.493 68.1739 20.0891 67.2923 19.0977 66.1904C16.3071 62.2601 14.1407 58.5502 11.5704 55.0239Z" fill="#D9B696"/>
<path d="M118.129 106.301C117.799 95.0243 116.844 83.5272 115.486 72.2139C113.98 72.3608 114.384 73.2424 114.311 74.3076C115.816 83.4905 116.661 92.4163 117.689 101.82C117.835 103.289 117.542 104.979 118.129 106.301Z" fill="#D9B696"/>
<path d="M109.021 24.8306C110.307 24.2796 110.894 25.5652 110.857 26.6305C111.371 28.9813 112.106 31.7729 112.62 34.1237C113.354 32.2504 112.583 25.8224 111.188 23.8756C110.123 23.8388 109.903 24.4633 109.021 24.8306Z" fill="#D9B696"/>
</g>
<defs>
<clipPath id="clip0">
<rect width="269" height="352" fill="white" transform="translate(-72)"/>
</clipPath>
</defs>
</svg>
