<svg width="32" height="45" viewBox="0 0 32 45" fill="none" xmlns="http://www.w3.org/2000/svg">
<path d="M31.5 16.4068C31.5 18.5519 30.5445 21.3605 29.0508 24.4161C27.5651 27.4553 25.5792 30.6756 23.5858 33.6244C21.5936 36.5714 19.6004 39.2378 18.1048 41.1679C17.3572 42.1327 16.7343 42.913 16.2987 43.4516C16.1863 43.5906 16.0864 43.7135 16 43.8194C15.9136 43.7135 15.8137 43.5906 15.7013 43.4516C15.2657 42.913 14.6428 42.1327 13.8952 41.1679C12.3996 39.2378 10.4064 36.5714 8.41423 33.6244C6.42084 30.6756 4.43492 27.4553 2.9492 24.4161C1.45546 21.3605 0.5 18.5519 0.5 16.4068C0.5 7.60982 7.45135 0.5 16 0.5C24.5487 0.5 31.5 7.60982 31.5 16.4068Z" stroke="#D9B696"/>
<path d="M22.5 15.3816C22.5 19.0817 19.5781 22.0596 16 22.0596C12.4219 22.0596 9.5 19.0817 9.5 15.3816C9.5 11.6815 12.4219 8.70361 16 8.70361C19.5781 8.70361 22.5 11.6815 22.5 15.3816Z" stroke="#D9B696"/>
</svg>
