<svg width="50" height="51" viewBox="0 0 50 51" fill="none" xmlns="http://www.w3.org/2000/svg">
<path d="M38.4417 26.5828L47.1197 32.9467C48.1082 33.6716 48.218 35.107 47.3512 35.9737L42.5338 40.7911C42.3453 40.9797 42.1342 41.1453 41.8953 41.2638C38.1193 43.1357 28.5359 43.8611 17.5 32.8252C6.46405 21.7892 7.18952 12.2059 9.06157 8.42999C9.18001 8.19109 9.34565 7.98004 9.5342 7.79149L14.3516 2.97411C15.2183 2.10736 16.6537 2.21713 17.3786 3.20559L23.7425 11.8837C24.0344 12.2817 23.9922 12.8331 23.6432 13.1821L20.457 16.3683C20.0119 16.8135 19.7962 17.444 19.7767 18.0732C19.7256 19.7263 19.5807 22.0275 23.9393 26.386C28.2978 30.7446 30.599 30.5997 32.252 30.5486C32.8813 30.5291 33.5119 30.3134 33.957 29.8683L37.1432 26.6821C37.4922 26.3331 38.0436 26.2909 38.4417 26.5828Z" stroke="#D9B696"/>
</svg>
