<svg width="291" height="318" viewBox="0 0 291 318" fill="none" xmlns="http://www.w3.org/2000/svg">
<path d="M86.8758 170.382C86.0883 170.303 84.884 170.518 83.7983 169.944C88.319 168.628 92.8398 167.313 96.6102 165.877C100.797 164.147 102.439 160.817 104.536 157.19C101.123 156.298 98.5955 157.517 95.3975 157.829C95.7329 158.283 96.0684 158.736 96.3629 159.153C92.7519 159.837 89.5539 160.148 86.117 161.999C82.6821 163.889 81.3745 167.633 78.3916 169.149C78.1613 165.204 84.4827 159.807 92.2014 158.18C90.8615 156.404 89.8961 155.08 89.0102 152.969C88.3412 152.1 88.4597 151.311 90.1179 150.761C93.1009 149.246 95.9634 148.481 99.3764 149.373C101.704 149.691 104.351 147.722 105.123 145.06C108.885 135.361 107.458 126.11 104.036 116.955C102.185 113.52 99.3071 111.544 97.0018 108.444C92.9437 103.941 87.9757 100.07 83.9157 95.5278C76.3089 88.1419 69.156 80.4207 61.5474 72.9958C54.945 66.932 49.093 60.9885 43.3595 54.256C43.024 53.8023 43.024 53.8023 41.4862 53.6026C42.4668 57.6673 43.0325 62.0654 44.015 66.1691C44.5655 67.8265 45.1141 69.4447 45.6255 71.104C46.0966 73.5485 47.3955 75.2871 49.5248 77.1813C50.6106 77.7553 51.2796 78.6236 51.9095 79.4939C54.2538 82.5917 56.8775 83.3654 60.1939 82.2648C60.1939 82.2648 60.6479 81.9295 60.9833 82.3832C64.9297 82.1528 66.3882 83.1396 65.3769 87.3399C66.0478 88.2473 66.5018 87.912 67.2502 87.9933C69.9942 88.017 72.203 89.1241 72.6349 91.5704C73.304 92.4388 72.7687 93.5221 69.6673 95.8264C76.39 101.14 80.5838 107.634 80.0992 116.234C73.1718 118.019 67.8836 116.434 64.4401 110.061C63.036 111.813 64.0014 113.137 63.0121 114.556C63.0121 114.556 63.0121 114.556 62.5991 114.928C60.055 113.367 57.9647 111.471 56.4098 108.492C55.1903 105.966 53.9708 103.44 53.6592 100.244C52.5582 96.9294 51.4572 93.6146 50.3562 90.2999C49.8057 88.6425 47.9325 87.9892 47.8359 85.9965C46.9671 86.6652 46.8467 87.4152 46.8467 87.4152C46.0676 95.5989 47.3598 102.86 51.5555 109.393C55.6307 116.676 59.8245 123.169 63.8607 130.454C65.0802 132.98 65.5122 135.426 65.0734 138.502C64.3011 141.163 63.8862 141.497 61.2217 140.686C61.3182 142.679 61.8687 144.336 62.0837 145.54C62.8512 148.44 62.5309 150.727 62.5071 153.469C62.5242 156.249 60.0765 156.681 59.4227 158.553C56.3452 158.115 56.33 155.374 53.7858 153.814C52.9322 157.223 52.4562 160.34 51.6007 163.71C50.7893 166.374 50.017 169.035 49.2428 171.657C49.043 173.194 48.0557 174.652 46.062 174.749C45.2726 174.63 45.1541 175.419 45.1541 175.419C40.2252 171.546 34.3493 168.345 34.141 161.619C30.3925 160.273 30.3925 160.273 27.4421 153.562C23.7902 154.209 23.0399 154.089 21.0548 148.702C18.0634 141.954 21.8493 129.513 27.2628 124.786C32.5558 120.809 36.096 115.429 37.761 109.356C37.8814 108.606 37.8814 108.606 37.546 108.152C30.3777 111.437 26.4074 114.41 28.8312 116.721C27.2695 119.264 24.7424 120.483 23.1807 123.026C24.3831 122.771 25.2929 122.14 26.0433 122.26C26.7123 123.129 26.5919 123.879 26.1379 124.214C23.7312 124.683 21.9526 125.983 19.6644 125.663C17.3353 125.306 16.3308 123.984 17.4386 121.776C19.3205 116.946 22.6609 113.103 27.715 110.665C32.3543 108.561 36.2061 106.377 39.5464 102.533C41.977 99.3218 42.8697 95.9105 42.973 92.3808C43.4117 89.3048 43.515 85.775 42.5344 81.7104C40.1172 87.6237 40.3255 94.3497 33.2385 96.8862C32.4882 96.7659 32.1547 96.3512 31.8192 95.8975C31.4838 95.4438 31.4838 95.4438 30.8148 94.5755C23.7602 102.632 16.1532 108.993 4.55226 107.323C6.10551 96.5166 5.5721 97.639 12.8656 88.0431C10.2029 87.2713 10.1064 85.2787 11.2142 83.071C11.1195 81.1174 13.6466 79.8984 14.3004 78.0261C11.8766 75.7154 12.449 74.5911 15.432 73.0758C18.8279 71.1881 21.9445 71.6246 25.3576 72.5167C31.3942 74.1824 36.8467 69.4536 37.2684 63.5978C37.8495 56.9902 37.5227 51.0532 33.544 45.763C31.3572 41.8743 28.7184 38.3599 25.9591 35.5955C25.2883 34.6881 24.2043 34.1532 23.5353 33.2848C26.198 34.0566 31.2607 39.8817 35.0818 45.9627C38.2711 51.1344 38.5998 57.1105 41.4947 61.8657C41.7978 56.7989 39.7314 52.1603 37.2905 47.0698C40.1683 49.0452 42.5921 51.3559 44.2283 53.5873C46.9062 57.0997 49.6264 59.8661 52.8396 62.2952C54.9298 64.1913 56.8996 66.8373 59.3234 69.148C64.8419 74.6769 70.0249 79.752 75.5433 85.2809C79.9369 90.2376 84.4509 94.4444 89.2985 99.0658C93.0622 103.152 97.5762 107.359 101.18 112.197C101.323 108.666 98.7805 107.144 97.4406 105.368C89.3224 96.3232 81.0447 88.03 72.767 79.7367C72.098 78.8683 71.4681 77.9981 71.253 76.7944C71.3715 76.0054 71.0361 75.5517 69.9131 75.0187C65.3991 70.8119 61.2206 67.0588 56.7065 62.852C53.6138 59.6729 50.6395 55.7048 47.1299 52.8201C38.2798 45.6511 31.364 36.3519 23.9961 27.4271C20.5678 23.7943 17.2581 19.3726 13.5335 15.2842C12.8645 14.4158 12.5291 13.9621 12.314 12.7585C14.1873 13.4118 15.1917 14.7339 16.1571 16.0578C20.4713 21.8017 24.8649 26.7584 29.2585 31.7152C34.2436 38.3664 39.3062 44.1915 45.2395 49.387C50.8765 54.1268 55.1516 59.8726 60.3346 64.9477C64.8486 69.1545 70.5669 73.1463 76.5222 75.5601C80.2707 76.9059 84.3527 78.6663 89.0885 78.5543C91.0822 78.4578 93.8482 75.6998 93.7517 73.7072C93.1065 70.0962 91.5516 67.1168 89.1259 64.767C86.0331 61.5879 85.6977 61.1342 87.4983 57.0523C88.3671 56.3836 89.7883 57.4113 91.0317 57.1944C90.1305 52.3427 86.5245 47.4653 90.0646 42.085C92.2343 43.194 94.897 43.9657 97.1057 45.0728C96.8009 36.3541 102.294 30.8401 107.707 26.1132C110.019 23.6906 113.79 22.2547 116.652 21.4894C121.398 29.6796 120.282 37.3706 115.97 45.4122C118.378 44.9822 119.701 43.9782 121.813 43.0926C124.23 50.9257 121.361 57.2134 115.829 62.7293C118.492 63.501 120.685 61.8674 122.677 61.7317C124.096 62.7204 123.109 64.1781 122.655 64.5134C119.569 69.5584 115.263 72.0776 109.619 72.8601C105.552 73.8404 101.367 75.6097 98.1472 78.703C97.7304 78.9973 96.8225 79.6679 96.704 80.4569C100.689 80.2247 103.903 82.6538 107.515 82.0088C110.713 81.6972 114.579 82.2149 117.658 82.6924C122.729 83.0341 127.584 82.1332 132.44 81.2713C134.433 81.1747 135.423 79.7561 136.903 77.9612C138.189 76.9981 138.882 75.1239 140.619 73.7865C141.527 73.1159 141.312 71.9122 141.097 70.7086C140.65 65.5215 137.676 61.5534 133.712 59.004C131.622 57.1079 129.534 55.2509 129.102 52.8045C127.547 49.8251 128.417 49.1955 131.398 47.6412C129.549 44.2452 128.448 40.9305 128.216 36.9471C128.573 34.6191 127.769 31.76 128.915 29.5504C130.44 27.0485 132.456 24.1702 135.733 23.0715C140.03 26.0356 144.663 29.4534 145.86 34.7607C147.854 34.6642 148.426 33.5399 150.501 32.6952C154.241 39.5243 158.316 46.8071 154.219 56.0524C157.439 52.9591 159.082 49.6681 158.889 45.6828C159.231 40.6141 158.665 36.2161 156.145 31.9127C154.926 29.387 154.494 26.9406 154.814 24.6536C155.371 20.7886 157.029 20.2383 160.027 21.4638C160.776 21.545 161.111 21.9987 161.901 22.1171C162.004 18.5874 163.686 15.2945 165.663 12.4182C168.429 9.66021 169.968 9.89893 172.272 12.9596C173.158 15.0707 174.792 17.263 173.269 19.804C172.815 20.1393 173.485 21.0077 173.82 21.4614C175.336 24.4427 175.233 27.9724 175.544 31.1687C180.639 28.7679 182.877 21.5709 180.221 15.2768C179.098 14.7437 178.564 15.8661 178.109 16.1624C177.24 16.8311 176.667 17.9554 175.463 18.1704C175.248 16.9667 176.156 16.2961 176.571 15.9627C181.53 11.5711 187.413 9.24966 194.022 9.79108C194.772 9.91138 195.226 9.57608 196.431 9.36109C194.572 11.4484 195.123 13.1058 195.22 15.0985C195.413 19.0838 194.439 23.2431 190.55 25.468C190.135 25.8014 189.56 26.8867 189.481 27.6738C192.438 28.8621 194.967 27.6822 197.63 28.4539C197.821 32.4002 191.971 40.2422 185.138 43.9804C184.899 45.5193 186.893 45.4228 187.108 46.6264C186.118 48.0451 184.46 48.5953 182.802 49.1456C177.492 50.3428 172.341 50.7882 166.912 52.7743C163.181 54.2083 160.415 56.9663 157.193 60.0205C163.254 58.9436 167.581 53.6427 173.633 58.0491C173.65 60.8289 171.203 61.2608 170.213 62.6794C169.13 62.1445 170.452 61.1405 169.329 60.6074C166.346 62.1227 164.155 63.7954 162.139 66.6736C167.879 67.8838 172.854 66.2329 177.614 63.3783C175.739 62.6859 174.416 63.6899 172.422 63.7865C173.076 61.9141 174.734 61.3638 176.274 61.6026C181.01 61.4906 184.677 63.5845 188.186 66.4692C191.735 69.352 191.615 70.102 187.309 72.6212C184.328 74.1755 181.465 74.9408 178.149 76.0414C176.906 76.2583 175.701 76.4733 175.501 78.0103C173.964 77.8107 173.708 76.5698 173.078 75.6996C178.052 74.0487 183.539 74.0571 188.083 69.9989C181.233 70.9574 175.159 69.3326 168.548 68.7521C170.183 70.9444 172.512 71.3015 174.267 72.7439C171.404 73.5092 169.888 70.5279 167.105 70.506C166.69 70.8395 168.23 71.0782 167.322 71.7488C165.032 71.3897 163.477 68.4103 160.615 69.1756C164.914 72.1788 169.211 75.1428 173.843 78.5606C170.408 80.4502 167.664 80.4265 165.122 78.9048C161.373 77.559 157.291 75.7986 153.543 74.4528C150.25 72.8108 147.467 72.789 145.037 76.0006C143.179 78.088 140.946 79.7235 139.088 81.8109C140.963 82.5033 143.251 82.8232 145.245 82.7266C158.584 83.0596 171.748 82.226 185.287 81.0218C187.732 80.5509 190.261 79.371 193.042 79.3537C194.997 79.259 196.87 79.9124 198.984 79.0659C199.733 79.1471 200.643 78.5156 201.097 78.1803C203.527 74.9686 204.501 70.8093 204.308 66.8239C203.876 64.3776 204.196 62.0906 203.31 59.9795C203.214 57.9868 204.203 56.5682 205.526 55.5642C207.184 55.0139 207.974 55.1323 209.274 56.91C209.378 53.3802 209.856 50.3023 211.043 47.3076C212.032 45.8889 213.179 43.6794 214.798 43.131C216.91 42.2454 217.66 42.3657 218.546 44.4768C219.215 45.3451 219.095 46.095 219.646 47.7524C221.663 44.9132 223.401 43.5758 225.633 41.9403C226.167 40.8179 227.077 40.1863 227.491 39.8529C230.926 37.9633 232.346 38.952 232.696 42.1464C232.793 44.1391 233.679 46.2501 233.775 48.2428C233.872 50.2355 233.218 52.1078 233.648 54.5151C235.425 53.1758 237.204 51.8756 238.941 50.5382C239.395 50.2029 240.305 49.5713 241.174 48.9026C244.157 47.3874 246.03 48.0408 247.583 50.9811C247.88 51.4367 248.215 51.8904 248.136 52.6775C255.302 49.3539 261.124 49.816 267.511 54.6762C268.18 55.5445 268.851 56.452 268.612 57.9909C267.741 58.6205 266.203 58.4209 265.214 59.8395C269.713 61.3056 275.357 60.5231 278.785 64.1559C277.797 65.6136 277.127 64.7062 277.127 64.7062C273.349 71.6644 267.839 74.3987 260.991 75.3962C262.411 76.3848 263.95 76.6236 265.527 76.8213C268.822 78.5024 268.916 80.456 266.94 83.3323C262.827 89.8369 253.332 92.8034 246.172 90.6046C242.424 89.2588 239.465 88.0314 236.251 85.6023C235.168 85.0674 233.292 84.3749 232.088 84.5899C232.088 84.5899 231.634 84.9252 232.384 85.0455C235.718 86.7247 237.688 89.3707 239.576 92.7648C241.546 95.4108 240.974 96.5351 237.696 97.6338C237.361 97.1801 236.907 97.5154 236.453 97.8507C237.793 99.6265 240.456 100.398 241.636 102.926C239.324 105.349 234.468 106.21 231.055 105.318C224.979 103.654 220.802 99.9405 216.822 94.6112C213.632 89.4395 208.664 85.568 202.413 82.6986C200.873 82.4599 199.63 82.6768 198.425 82.8918C192.782 83.6743 187.631 84.1197 182.321 85.3168C181.531 85.1984 181.116 85.5318 179.873 85.7487C184.291 87.9629 188.612 88.1843 192.893 88.4077C199.089 89.3216 204.83 90.5317 209.677 95.1532C209.892 96.3568 208.234 96.9071 207.662 98.0314C209.75 99.8884 212.748 101.114 214.384 103.345C217.142 106.071 216.823 108.397 214.393 111.608C215.692 113.347 217.567 114.039 219.359 115.441C221.746 117.792 221.664 118.541 218.683 120.095C215.128 122.734 211.142 122.967 206.643 121.501C203.981 120.729 201.357 119.955 198.813 118.394C196.725 116.537 194.18 114.977 192.092 113.12C190.767 114.084 190.114 115.957 188.24 115.303C185.578 114.532 183.033 112.971 181.399 110.779C178.664 105.272 176.341 99.3921 176.469 93.1197C176.907 90.0437 174.484 87.733 171.86 86.9594C167.322 85.4952 162.922 86.0608 159.27 86.7077C154.414 87.5696 149.759 86.9334 144.688 86.5917C137.623 86.3465 130.263 85.6847 123.198 85.4396C114.892 85.4503 106.741 84.6311 98.5925 83.851C94.2715 83.6295 89.6561 82.9915 85.4537 81.981C82.4946 80.7536 78.9631 80.6506 76.0835 78.6361C74.9996 78.1011 74.6641 77.6474 73.4599 77.8624C78.5244 83.7266 82.918 88.6833 88.1029 93.7975C93.6194 99.2873 99.5528 104.483 104.497 111.097C108.142 115.972 113.11 119.844 117.622 124.012C120.796 126.443 123.22 128.753 126.554 130.432C128.762 131.54 130.636 132.193 132.926 132.552C136.911 132.32 139.105 130.686 140.116 126.486C141.127 122.285 142.101 118.126 145.44 114.244C147.418 111.407 150.614 111.056 153.597 109.541C154.817 112.066 156.117 113.844 155.679 116.92C158.899 113.827 161.761 113.061 165.078 111.961C168.394 110.86 170.684 111.219 173.441 113.945C174.446 115.267 174.996 116.924 173.22 118.263C172.351 118.932 171.776 120.017 170.787 121.436C178.642 121.8 186.216 123.665 192.524 129.312C191.728 134.716 184.321 139.54 175.518 140.632C176.284 143.493 180.032 144.839 181.133 148.153C172.745 148.912 164.772 149.338 158.624 142.939C159.39 145.8 162.052 146.571 162.938 148.682C157.174 150.215 152.757 148.001 148.913 144.701C147.492 143.674 146.154 141.937 144.399 140.495C141.52 138.48 138.978 136.958 135.485 136.853C133.906 136.617 132.367 136.378 130.947 135.389C130.708 136.928 131.498 137.047 131.833 137.5C137.096 141.788 142.399 146.114 148.036 150.853C148.371 151.307 149.122 151.427 149.455 151.842C156.082 155.163 161.8 159.155 167.97 162.772C171.934 165.322 176.016 167.082 180.672 167.758C182.173 167.998 183.535 166.992 184.405 166.363C188.255 164.14 191.475 161.046 192.153 156.431C192.807 154.559 193.675 153.89 195 152.925C196.777 151.586 198.317 151.825 199.536 154.351C199.87 154.765 199.751 155.554 200.541 155.673C202.399 153.585 202.837 150.509 203.61 147.848C205.171 145.305 206.042 144.675 209.038 145.862C214.452 141.135 218.637 139.365 222.147 142.25C222.282 144.241 219.755 145.46 220.6 147.534C222.179 147.771 223.798 147.222 225.16 146.216C226.485 145.251 227.687 144.997 229.227 145.236C233.509 145.459 236.961 146.35 240.589 148.445C243.133 150.006 243.013 150.756 241.571 152.549C240.008 155.053 238.485 157.594 236.923 160.137C235.934 161.556 234.611 162.56 232.833 163.86C235.497 164.671 237.665 165.741 239.005 167.516C234.916 171.278 229.645 172.474 224.789 173.336C224.55 174.874 226.09 175.113 226.305 176.317C225.317 177.775 223.993 178.739 221.999 178.836C217.932 179.816 213.947 180.049 210.2 178.742C208.325 178.049 205.998 177.731 203.71 177.411C202.92 177.293 202.92 177.293 202.385 178.376C204.14 179.819 206.348 180.926 208.103 182.368C209.108 183.69 210.645 183.89 212.067 184.918C213.821 186.36 216.603 186.343 218.357 187.785C219.777 188.774 221.65 189.427 223.308 188.877C226.842 189.019 229.704 188.254 233.236 188.357C238.761 188.363 243.951 187.916 248.495 183.858C247.156 182.082 245.618 181.882 244.157 180.857C239.66 179.43 236.559 181.734 233.243 182.834C231.169 183.718 228.937 185.354 227.064 184.7C225.19 184.047 223.532 184.597 221.992 184.358C219.25 184.374 216.052 184.685 213.843 183.578C211.97 182.925 209.976 183.022 208.103 182.368C207.768 181.914 207.434 181.5 208.303 180.831C210.751 180.399 212.504 181.803 214.833 182.16C219.784 183.251 224.225 182.723 228.746 181.407C232.023 180.309 235.004 178.754 238.241 178.441C242.642 177.875 246.805 178.888 250.233 182.52C251.238 183.842 252.203 185.166 249.342 185.971C252.42 186.409 255.99 186.51 258.95 187.738C260.033 188.273 261.907 188.926 263.367 189.952C266.995 192.048 266.556 195.124 262.251 197.643C264.005 199.085 266.214 200.192 267.633 201.181C268.758 201.753 269.842 202.288 270.511 203.156C272.147 205.388 271.829 207.714 269.932 209.803C269.061 210.433 267.859 210.687 267.62 212.226C269.708 214.083 272.132 216.393 273.687 219.373C273.687 219.373 274.022 219.826 274.358 220.28C276.973 226.537 276.558 226.871 270.46 227.988C268.467 228.085 266.514 228.219 264.4 229.065C261.991 229.495 259.449 227.974 257.24 226.866C256.569 225.959 255.485 225.424 254.362 224.891C253.924 227.967 256.012 229.824 257.233 232.389C253.797 234.239 250.719 233.801 247.641 233.363C242.985 232.687 238.903 230.927 235.847 227.707C232.97 225.732 229.756 223.302 227.787 220.656C226.916 221.286 226.008 221.957 225.889 222.746C223.935 222.84 223.051 220.768 221.965 220.194C222.834 219.526 223.92 220.1 225.124 219.885C225.696 218.76 226.232 217.677 225.6 216.768C224.931 215.899 223.847 215.364 224.047 213.827C224.955 213.157 225.37 212.823 226.574 212.608C227.675 215.923 228.774 219.199 231.2 221.549C233.542 224.607 236.383 226.624 239.26 228.599C237.929 221.34 234.977 214.59 233.231 207.665C233.231 207.665 232.895 207.211 232.56 206.757C232.871 209.953 233.637 212.814 232.746 216.265C232.003 210.622 231.22 204.981 228.366 200.263C228.717 203.458 229.028 206.654 228.59 209.73C228.375 208.526 227.824 206.869 227.609 205.665C227.041 201.228 226.061 197.164 224.209 193.729C223.205 192.407 222.082 191.873 220.996 191.299C221.882 193.411 222.433 195.068 223.319 197.179C220.854 194.831 220.127 191.968 217.25 189.993C218.766 192.974 220.774 195.618 221.994 198.144C223.056 201.461 224.611 204.44 224.922 207.636C223.742 205.109 222.187 202.129 221.086 198.814C220.766 201.102 221.731 202.425 221.077 204.298C219.858 201.772 219.428 199.365 218.247 196.837C217.434 199.461 219.643 200.568 218.871 203.23C218.105 200.369 216.469 198.137 213.925 196.577C214.236 199.773 217.449 202.202 217.761 205.398C216.677 204.863 216.877 203.326 215.673 203.541C215.219 203.877 215.219 203.877 215.593 204.329C216.653 207.606 217.636 211.71 219.524 215.104C220.529 216.426 221.829 218.204 221.965 220.194C218.752 217.765 216.528 213.917 215.131 210.147C213.599 204.425 213.271 198.449 210.95 192.609C209.062 189.215 207.09 186.529 203.462 184.434C201.255 183.366 199.045 182.22 197.171 181.566C194.963 180.459 193.425 180.259 190.562 181.025C191.663 184.34 193.633 186.986 196.057 189.296C201.694 194.036 206.423 199.447 208.504 206.826C209.39 208.937 210.571 211.465 209.838 214.124C209.599 215.663 209.478 216.413 207.605 215.76C209.925 221.6 211.123 226.907 207.129 232.623C204.075 229.442 201.195 227.428 200.63 223.029C200.75 222.28 200.415 221.826 199.783 220.916C196.572 218.526 193.931 214.973 191.746 211.123C190.836 211.755 191.172 212.209 191.053 212.998C192.051 219.842 193.797 226.768 195.999 233.397C196.549 235.054 197.218 235.923 196.19 237.343C193.887 234.283 193.694 230.297 191.803 226.864C191.149 228.737 190.911 230.276 190.713 231.852C189.827 229.741 189.811 227 190.919 224.792C191.492 223.668 191.612 222.918 191.397 221.714C190.63 218.814 189.943 215.166 189.634 212.009C186.651 213.524 184.124 214.743 181.461 213.971C180.369 218.92 180.562 222.905 182.786 226.753C183.654 226.084 183.439 224.88 184.762 223.876C186.949 227.765 188.719 231.948 191.814 235.166C193.113 236.905 194.452 238.681 196.78 238.999C198.655 239.691 199.939 238.689 200.631 236.815C201.07 233.739 200.423 230.089 199.658 227.228C199.322 226.774 198.987 226.32 199.107 225.571C200.191 226.105 200.862 227.013 201.077 228.217C202.632 231.196 202.825 235.181 202.386 238.257C202.066 240.544 199.954 241.43 197.962 241.566C194.095 241.009 192.125 238.363 190.155 235.717C188.48 233.487 186.846 231.295 185.624 228.73C184.422 228.984 184.637 230.188 183.847 230.069C182.643 230.284 182.013 229.414 181.342 228.507C179.572 224.324 178.136 220.555 178.814 215.94C179.388 214.855 179.467 214.068 178.048 213.079C174.755 211.437 174.405 208.243 174.547 204.711C175.081 203.589 175.319 202.05 175.104 200.846C174.418 197.198 176.769 194.774 177.957 191.779C180.389 188.606 181.617 185.649 182.174 181.784C182.196 179.002 180.977 176.476 178.889 174.619C174.671 170.868 169.839 168.987 165.54 165.984C159.821 161.992 153.985 158.79 148.229 154.839C146.354 154.146 144.601 152.743 142.726 152.051C136.889 148.848 132.91 143.558 127.527 140.02C125.654 139.366 124.314 137.59 122.559 136.148C121.906 138.02 122.121 139.224 122.671 140.881C124.873 147.511 125.417 154.691 126.376 161.537C127.588 169.585 128.012 177.515 129.224 185.563C129.887 191.954 133.491 196.792 138.794 201.117C141.003 202.224 142.087 202.759 144.655 201.577C146.728 200.694 149.176 200.262 151.918 200.246C154.78 199.481 157.324 201.042 159.413 202.899C160.538 203.471 161.503 204.795 162.707 204.58C162.387 206.867 160.275 207.752 158.417 209.84C164.357 209.513 168.774 211.727 171.966 216.938C169.892 217.822 168.234 218.372 166.695 218.133C166.479 216.929 167.348 216.261 168.217 215.592C166.583 213.4 164.039 211.839 160.507 211.736C158.513 211.832 155.89 211.059 154.016 210.405C150.564 209.515 147.072 209.41 143.499 209.27C144.089 210.926 145.175 211.5 146.594 212.488C148.722 214.343 150.812 216.239 153.65 218.217C155.07 219.205 156.945 219.898 158.939 219.801C161.599 220.534 164.343 220.558 167.342 221.783C164.025 222.884 161.481 221.323 158.283 221.635C163.922 226.413 170.627 228.948 176.718 233.352C176.034 229.743 173.944 227.847 172.643 226.069C170.97 223.879 168.879 221.983 166.791 220.126C169.533 220.11 171.288 221.553 172.628 223.329C176.017 226.963 179.03 230.929 180.682 235.902C181.312 236.772 181.983 237.679 182.198 238.883C179.432 241.641 169.824 239.874 162.233 235.229C161.698 236.312 162.663 237.636 162.13 238.758C157.942 240.489 153.525 238.275 148.245 231.207C145.679 232.428 144.38 230.689 143.04 228.913C139.97 222.953 137.649 217.112 135.032 210.816C135.151 210.027 134.936 208.823 133.813 208.29C132.153 208.802 132.823 209.709 132.703 210.459C133.15 215.646 135.217 220.285 136.533 224.803C138.281 231.768 141.924 236.604 146.773 241.265C147.442 242.133 147.778 242.587 148.528 242.707C155.393 244.489 161.684 247.357 167.854 250.974C172.568 253.644 176.747 257.397 179.642 262.152C180.192 263.81 180.743 265.467 181.291 267.085C181.923 267.995 181.054 268.663 179.85 268.878C177.738 269.764 175.529 268.657 173.121 269.087C174.316 274.355 174.316 274.355 167.038 272.945C168.352 277.425 172.533 281.217 170.651 286.047C168.874 287.386 167.573 285.608 165.579 285.705C166.895 290.223 169.082 294.112 168.859 298.392C168.97 303.125 167.959 307.325 164.324 310.752C162.569 309.31 159.907 308.538 158.27 306.307C157.817 306.642 157.402 306.975 157.737 307.429C157.617 308.179 158.582 309.503 157.259 310.507C156.055 310.722 154.851 310.937 153.392 309.95C149.014 307.734 144.717 304.77 141.861 300.013C140.091 295.83 137.571 291.526 137.124 286.339C135.799 287.304 134.691 289.512 132.699 289.648C129.955 289.624 131.183 286.666 129.39 285.226C126.424 289.521 123.083 293.364 118.778 295.883C114.935 292.584 115.038 289.054 115.301 284.773C115.522 280.454 115.746 276.174 118.592 272.629C116.303 272.309 114.742 274.852 112.533 273.745C112.198 273.291 111.568 272.421 111.647 271.634C112.755 269.426 112.325 267.019 112.228 265.026C113.104 258.835 117.313 254.323 121.068 250.147C122.845 248.808 124.17 247.843 125.492 246.839C129.917 243.53 132.764 240.024 134.229 235.489C135.122 232.077 133.902 229.552 132.683 227.026C130.601 219.647 128.518 212.228 129.18 204.873C129.084 202.88 128.948 200.889 128.437 199.23C127.208 202.187 126.436 204.849 126.412 207.591C125.855 211.456 126.541 215.105 127.188 218.755C129.485 227.338 126.831 234.829 123.053 241.787C122.518 242.871 122.064 243.206 121.946 243.995C119.952 244.091 119.952 244.091 117.862 242.195C116.315 247.479 114.315 253.098 109.93 256.404C109.022 257.075 107.363 257.625 105.944 256.637C105.609 256.183 105.848 254.644 104.723 254.072C102.077 256.08 99.4297 258.049 97.1177 260.471C94.3517 263.229 93.2678 262.694 91.3774 259.261C88.3066 253.301 88.4338 247.028 92.0534 240.861C92.6259 239.737 93.1611 238.653 93.854 236.779C90.9524 237.546 88.7827 236.437 85.9996 236.415C85.6796 224.956 93.5407 219.797 101.361 214.601C98.5222 212.624 99.0575 211.541 101.705 209.572C104.017 207.149 107.667 206.463 110.984 205.362C114.3 204.262 117.952 203.615 120.679 200.859C123.03 198.434 124.554 195.932 124.697 192.401C124.71 181.356 122.732 170.447 121.543 159.656C121.215 153.68 119.802 147.169 118.686 141.114C118.039 137.464 117.058 133.399 115.168 129.966C114.402 127.105 112.312 125.209 110.342 122.563C110.009 122.148 109.338 121.241 108.669 120.372C108.35 122.698 109.355 124.02 109.905 125.678C111.651 132.603 111.406 139.665 111.614 146.391C111.846 150.374 112.037 154.321 113.474 158.089C115.125 163.061 116.775 167.994 116.768 173.516C116.45 175.842 116.092 178.17 115.772 180.457C115.989 181.7 115.533 181.996 113.206 181.678C111.221 190.038 109.237 198.437 100.492 201.524C98.617 200.831 99.3099 198.957 98.3055 197.635C98.0818 201.914 96.5201 204.457 93.7932 207.213C94.0895 207.669 93.6747 208.002 93.2207 208.338C89.1148 209.32 86.8028 211.743 84.2518 215.704C81.613 212.19 81.4199 208.205 80.7729 204.554C80.0887 200.945 82.1838 197.28 83.0765 193.869C81.2032 193.215 79.9989 193.43 78.6761 194.434C77.4718 194.649 75.9321 194.411 74.8091 193.878C73.7234 193.304 73.3879 192.85 73.5083 192.1C73.6116 188.57 74.8379 185.574 76.066 182.616C77.709 179.325 79.3502 175.995 82.4516 173.691C81.1508 171.913 78.705 172.384 77.8191 170.273C79.0625 170.056 80.1463 170.591 81.2321 171.165C83.1445 171.816 85.3141 172.925 87.3317 170.086C88.2952 171.371 88.6306 171.825 87.3078 172.829C85.8646 174.583 83.91 174.677 83.2171 176.552C86.0968 178.566 89.6283 178.669 93.1598 178.772C96.5576 176.924 96.8185 172.603 98.797 169.766C99.3695 168.641 100.359 167.223 99.7691 165.567C95.9174 167.751 91.3966 169.067 86.8758 170.382ZM154.305 156.503C155.309 157.825 156.393 158.36 157.518 158.932C156.847 158.024 155.843 156.702 154.305 156.503C153.3 155.18 151.879 154.153 149.887 154.288C150.892 155.61 152.765 156.264 154.305 156.503ZM56.3741 136.065C55.6018 138.726 56.9007 140.465 58.9115 143.148C58.559 139.914 57.714 137.84 56.0387 135.611C55.6086 133.204 55.6086 133.204 54.8192 133.085C55.0342 134.289 54.9548 135.076 56.3741 136.065ZM183.843 82.7758C182.306 82.5761 181.435 83.2058 180.231 83.4208C181.316 83.9948 182.56 83.7779 183.843 82.7758C186.96 83.2123 189.704 83.236 191.935 81.5614C189.154 81.5786 186.745 82.0086 183.843 82.7758ZM152.443 131.019C151.574 131.688 150.704 132.317 150.921 133.56C155.656 133.448 160.081 130.14 159.315 127.279C157.538 128.618 155.76 129.918 154.437 130.922C153.448 132.341 152.818 131.471 152.443 131.019C155.13 129.048 157.321 127.375 159.969 125.406C159.634 124.953 159.634 124.953 159.3 124.538C156.986 126.922 154.794 128.594 152.443 131.019ZM148.123 84.7021C150.746 85.4757 153.865 85.9513 157.181 84.8507C156.057 84.2786 155.642 84.612 154.852 84.4935C153.648 84.7085 152.525 84.1755 151.775 84.0552C150.531 84.2721 148.993 84.0724 147.669 85.0374C145.914 83.595 143.466 84.0269 141.178 83.7069C139.185 83.8035 136.857 83.4855 135.556 81.7078C133.78 83.0471 131.452 82.729 128.923 83.909C135.534 84.4895 141.729 85.3643 148.123 84.7021ZM24.5931 143.283C24.5931 143.283 24.5931 143.283 24.2596 142.868L23.9241 142.415C26.0211 138.788 26.9138 135.377 29.3443 132.165C30.3336 130.747 31.6564 129.743 31.5598 127.75C30.022 127.55 29.4476 128.636 28.2434 128.851C32.5491 126.331 35.4355 122.823 36.1925 117.421C30.7943 124.889 23.3077 130.5 21.8339 140.519C24.0274 138.885 24.1698 135.353 26.8172 133.384C25.4706 137.131 23.948 139.672 23.0553 143.083C21.6121 144.837 21.8271 146.041 22.3776 147.698C23.3669 146.28 23.2703 144.287 24.5931 143.283C25.1436 144.94 24.1544 146.359 23.9173 147.937C23.3821 149.02 22.8096 150.145 24.5644 151.587C25.1369 150.463 24.4678 149.594 24.5864 148.805C25.2402 146.933 25.4791 145.394 26.3479 144.725C28.9954 142.756 29.4341 139.68 30.8754 137.887C28.3483 139.106 28.3483 139.106 27.6555 140.981C26.9051 140.86 27.4404 139.777 26.6901 139.657C26.4512 141.196 25.4638 142.653 24.5931 143.283ZM38.8314 120.936C36.6379 122.569 36.3195 124.895 34.7578 127.438C33.7686 128.857 33.3298 131.933 31.7529 131.735C28.8904 132.501 28.9056 135.241 27.4643 137.034C29.3376 137.688 30.6604 136.684 31.5292 136.015C35.3235 131.837 37.6203 126.673 38.7519 121.723C39.1668 121.389 38.8314 120.936 38.8314 120.936C40.1933 119.93 39.9391 118.728 39.4277 117.069C38.8552 118.193 39.4057 119.851 38.8314 120.936ZM138.412 146.307C139.177 149.168 142.711 149.31 144.838 151.165C143.165 148.975 141.074 147.078 138.412 146.307C136.108 143.246 132.48 141.15 129.721 138.386C127.966 136.944 125.876 135.047 126.65 132.425C122.033 131.748 120.342 126.778 115.51 124.897C116.729 127.423 117.497 130.323 118.381 132.395C119.467 132.969 119.25 131.726 120.789 131.965C125.343 136.17 130.486 141.247 135.908 144.783C136.992 145.318 137.663 146.225 138.412 146.307ZM38.4841 145.312C34.92 153.435 33.7261 161.952 38.1197 166.909C39.0124 163.498 40.6536 160.168 40.342 156.971C40.1117 153.027 39.4647 149.377 38.4841 145.312C39.8069 144.308 38.723 143.773 38.5061 142.531C37.5982 143.201 37.0648 144.324 37.2798 145.527C37.6947 145.194 38.4841 145.312 38.4841 145.312ZM169.874 141.414C169.657 140.172 171.533 140.864 171.771 139.325C168.558 136.896 164.93 134.8 160.609 134.579C162.833 138.427 166.246 139.319 169.874 141.414C170.21 141.868 170.879 142.737 171.963 143.271C170.425 143.072 169.969 143.368 169.556 143.741C168.431 143.168 167.347 142.633 166.222 142.061C165.353 142.73 166.437 143.265 164.779 143.815C164.134 140.204 161.51 139.431 158.097 138.539C159.061 139.823 157.188 139.17 157.069 139.959C163.377 145.606 170.083 148.14 178.589 146.593C176.284 143.493 172.952 141.853 169.874 141.414ZM192.12 31.1882C192.535 30.8548 193.324 30.9732 193.857 29.8508C192.32 29.6511 190.782 29.4515 189.576 29.6274C188.038 29.4277 186.713 30.3927 185.472 30.6486C185.175 30.193 185.255 29.4059 184.921 28.9913C181.308 29.6363 178.742 30.8572 177.968 33.4794C178.303 33.9332 179.626 32.9292 179.508 33.7182C178.222 34.6812 175.895 34.3631 175.873 37.1448C178.4 35.9258 180.512 35.0402 183.175 35.812C182.721 36.1473 182.267 36.4826 181.517 36.3623C179.069 36.7942 176.542 38.0132 174.015 39.2322C173.559 39.5284 172.81 39.4472 172.986 40.6527C177.746 37.7982 183.822 39.462 188.365 35.3648C186.037 35.0467 184.715 36.0507 183.175 35.812C185.248 34.9283 186.906 34.378 189.689 34.3998C191.563 35.0532 193.539 32.1768 195.651 31.2912C194.113 31.0916 193.085 32.5121 192.12 31.1882ZM182.256 194.782C181.72 195.865 180.182 195.666 179.393 195.547C177.735 196.098 177.201 197.22 176.961 198.72C176.763 200.296 176.188 201.381 177.193 202.703C178.279 203.277 179.266 201.82 180.726 202.845C175.967 205.7 175.967 205.7 177.482 208.681C180.27 203.142 186.57 200.526 187.112 193.92C185.118 194.017 184.129 195.435 182.256 194.782C184.032 193.443 186.026 193.346 187.469 191.592C186.783 187.944 185.899 185.872 183.394 184.309C183.155 185.848 182.047 188.056 181.393 189.928C180.74 191.801 178.963 193.14 178.309 195.012C179.847 195.212 181.051 194.997 182.256 194.782ZM34.1545 150.574C33.9395 149.37 34.5138 148.285 35.0472 147.163C36.155 144.955 38.1334 142.118 38.4909 139.79C39.3836 136.379 38.4011 132.275 38.5044 128.745C36.9427 131.288 35.42 133.829 33.8583 136.372C33.3231 137.455 33.2046 138.244 33.0841 138.994C33.0622 141.776 33.5314 144.181 33.5094 146.963C32.9741 148.047 33.1891 149.25 34.1545 150.574C34.3696 151.778 34.2901 152.565 33.7177 153.689C31.6513 149.051 32.6234 144.852 31.3074 140.334C29.2104 143.96 26.4444 146.718 25.8059 151.331C27.3456 151.57 27.9994 149.697 30.2081 150.804C29.9692 152.343 30.0657 154.336 30.3199 155.538C30.4164 157.53 30.9669 159.188 33.709 159.173C32.6099 155.897 35.8299 152.804 35.5183 149.607C34.7289 149.489 34.2749 149.824 34.1545 150.574ZM61.8013 106.547C61.3845 106.841 60.9305 107.176 60.0617 107.845C60.165 104.315 58.6101 101.336 57.4297 98.8082C56.6641 95.9472 54.1199 94.3864 53.8083 91.1901C53.2426 86.792 50.1479 83.5739 47.5091 80.0595C47.7242 81.2632 47.6447 82.0503 48.2747 82.9205C51.1695 87.6757 53.1155 93.0643 54.313 98.3717C55.414 101.686 55.7647 104.881 57.2805 107.862C58.6185 109.599 59.5045 111.71 62.1281 112.484C62.8209 110.609 61.481 108.834 61.8013 106.547C62.7092 105.876 63.1632 105.541 64.1285 106.865C64.7975 107.733 65.348 109.39 66.7673 110.379C67.7718 111.701 68.6577 113.812 71.2813 114.586C67.66 106.968 62.5974 101.143 57.5329 95.2785C58.9675 99.0078 59.6145 102.658 60.7155 105.973C61.051 106.426 61.3845 106.841 61.8013 106.547ZM209.582 153.041C210.883 154.819 209.775 157.027 211.863 158.884C215.322 154.252 217.619 149.088 219.62 143.469C216.542 143.031 214.428 143.877 212.572 146.004C209.924 147.973 209.9 150.715 209.582 153.041C209.446 151.051 207.373 151.934 206.704 151.066C206.033 150.159 207.062 148.738 206.393 147.87C205.068 148.835 204.829 150.374 204.175 152.246C201.96 156.661 203.611 161.633 202.183 166.128C202.934 166.248 203.388 165.913 203.844 165.617C206.371 164.398 208.229 162.31 210.126 160.221C211.113 158.763 209.775 157.027 209.679 155.034C209.343 154.58 209.464 153.83 209.582 153.041ZM109.608 231.159C110.612 232.482 110.375 234.06 110.59 235.263C111.141 236.921 111.691 238.578 113.483 239.979C113.589 236.489 114.025 233.374 116.004 230.536C116.552 232.155 115.899 234.027 116.905 235.388C117.359 235.053 118.228 234.384 118.682 234.049C117.877 231.19 118.235 228.862 117.805 226.454C117.333 224.01 118.147 221.386 116.927 218.86C113.626 222.701 111.825 226.783 109.608 231.159C108.404 231.374 107.87 232.497 108.085 233.701C107.171 239.894 108.405 245.16 109.149 250.803C107.37 252.103 107.37 252.103 107.506 254.094C109.914 253.664 110.783 252.995 110.687 251.002C110.375 247.806 110.36 245.065 110.384 242.323C110.287 240.33 110.487 238.793 109.522 237.469C108.932 235.814 108.5 233.367 109.608 231.159ZM248.052 85.7356C248.506 85.4003 248.171 84.9466 247.837 84.5319C243.444 79.5752 237.247 78.6613 230.757 77.3308C230.972 78.5345 232.097 79.1066 232.845 79.1879C234.935 81.0839 237.48 82.6447 239.449 85.2907C242.759 89.7125 253.235 90.8107 257.659 87.5025C256.24 86.5138 255.251 87.9325 254.009 88.1884C252.709 86.4107 249.846 87.176 248.052 85.7356ZM111.058 164.041C109.05 161.397 109.192 157.866 107.637 154.886C107.988 158.081 108.299 161.277 109.815 164.258C110.151 164.712 110.605 164.377 110.723 163.588C112.478 165.03 109.951 166.249 112.493 167.771C110.501 167.906 110.047 168.242 110.716 169.11C110.931 170.314 111.267 170.767 110.692 171.853C108.843 168.457 109.4 164.592 105.733 162.498C105.86 169.972 107.154 177.272 110.894 184.101C112.576 180.808 111.021 177.829 110.374 174.179C112.918 175.739 112.559 178.028 114.314 179.471C116.114 175.389 115.884 171.444 114.902 167.341C113.371 161.619 110.596 156.114 109.973 149.721L109.637 149.267C108.769 149.936 109.102 150.351 108.984 151.14C109.414 153.547 109.51 155.54 109.942 157.986C110.076 159.938 111.377 161.715 111.058 164.041ZM114.755 263.807C118.749 258.092 123.709 253.7 129.337 250.177C126.036 254.018 121.612 257.327 118.272 261.17C122.281 258.195 125.918 254.807 130.557 252.703C127.455 255.007 125.143 257.43 122.377 260.188C123.246 259.519 124.569 258.515 125.812 258.298C126.229 258.004 126.898 258.872 127.688 258.99C130.669 257.436 132.862 255.803 134.088 252.806C135.731 249.515 135.538 245.53 136.846 241.785C137.085 240.246 136.87 239.042 135.411 238.055C133.194 242.432 130.684 246.43 125.589 248.831C126.593 250.153 126.021 251.278 125.15 251.907C123.373 253.247 121.595 254.547 119.857 255.884C117.21 257.853 115.648 260.396 114.42 263.354C113.432 264.811 114.731 266.55 114.987 267.791C115.306 265.465 117.418 264.579 117.738 262.292C115.863 261.6 115.841 264.381 114.755 263.807ZM250.283 70.3146C250.617 70.7292 249.748 71.3979 249.629 72.1869C259.118 74.7428 269.618 73.0984 273.356 66.1421C272.687 65.2737 271.483 65.4887 270.693 65.3703C264.299 66.0325 258.456 68.3521 252.06 68.9753C251.309 68.855 251.191 69.644 250.283 70.3146C249.612 69.4071 248.743 70.0758 248.328 70.4093C245.012 71.5098 241.36 72.1567 237.71 72.8427C234.846 73.5689 231.983 74.3342 229.122 75.1385C237.822 77.576 246.521 80.0135 255.459 80.9121C255.242 79.6694 254.038 79.8844 254.159 79.1344C255.363 78.9194 256.447 79.4544 257.809 78.4485C259.23 79.4762 260.434 79.2612 262.092 78.7109C260.888 78.9259 259.43 77.9391 257.809 78.4485C256.35 77.4617 254.238 78.3473 252.819 77.3587C254.477 76.8084 256.017 77.0471 257.554 77.2467C257.004 75.5894 258.247 75.3725 258.329 74.6244C254.165 73.6121 250.18 73.8443 246.096 72.0448C247.969 72.6982 248.958 71.2795 250.283 70.3146ZM20.896 89.6123C24.1311 89.2597 26.6601 88.0798 28.6367 85.2034C25.4387 85.515 23.4469 85.6507 20.9198 86.8697C21.4532 85.7473 21.1568 85.2916 21.2381 84.5436C24.5546 83.443 28.8756 83.6645 32.0564 80.5731C27.0004 82.9721 21.0451 80.5583 15.8314 83.7481C16.4058 82.6629 16.8598 82.3276 17.6101 82.4479C19.8017 80.7752 22.5848 80.797 25.7809 80.4463C27.3206 80.6851 28.9789 80.1348 29.0974 79.3458C28.9636 77.3941 30.422 78.3808 31.2909 77.7121C35.8116 76.3965 38.5776 73.6386 40.7931 69.2233C41.3675 68.138 41.032 67.6843 40.363 66.816C38.5844 68.1162 37.5971 69.5739 36.1539 71.3279C34.7107 73.0818 32.1836 74.3008 29.775 74.7308C26.9919 74.709 23.9144 74.2706 21.2517 73.4988C18.1741 73.0605 16.0619 73.9461 14.2038 76.0334C15.5437 77.8092 17.6169 76.9255 18.9568 78.7013C18.8364 79.4512 18.047 79.3328 17.6321 79.6662C14.8509 79.6834 12.6573 81.3171 12.2999 83.645C11.6461 85.5174 12.6506 86.8395 14.9778 87.1575C15.7281 87.2778 16.1821 86.9425 16.5175 87.3962C17.6014 87.9312 16.3971 88.1462 16.7326 88.5999C18.1519 89.5885 19.9306 88.2883 20.896 89.6123C20.4811 89.9457 19.6917 89.8273 18.9413 89.707C16.4937 90.1388 14.2055 89.8189 12.7623 91.5728C8.67163 95.2957 6.45614 99.711 6.44939 105.233C9.8624 106.125 11.9746 105.24 13.6176 101.949C13.6176 101.949 14.0716 101.614 14.151 100.826C17.7064 98.1869 19.5884 93.357 23.1047 90.7193C22.4338 89.8119 21.6854 89.7307 20.896 89.6123ZM43.1388 132.202C42.8034 131.748 42.5883 130.545 41.5025 129.971C41.7176 131.174 41.9345 132.417 43.1388 132.202C43.6893 133.859 45.4441 135.302 46.3281 137.374C44.4548 136.72 43.9043 135.063 41.9106 135.16C43.5773 142.872 47.3172 149.701 51.0198 156.572C52.1666 154.362 52.031 152.371 51.4805 150.714C51.4078 145.979 49.1839 142.131 47.412 137.909C48.6554 137.692 48.8723 138.935 49.6207 139.016C50.0766 138.72 49.4057 137.812 49.8596 137.477C51.9499 139.373 51.9651 142.114 54.9241 143.341C54.494 140.934 52.7002 139.493 52.2682 137.047C52.9391 137.954 53.4877 139.573 55.0274 139.811C55.0513 137.069 54.1654 134.958 52.531 132.765C48.0964 127.771 45.0256 121.811 43.161 115.674C43.2795 114.885 42.6105 114.017 41.8211 113.898C40.9436 120.05 42.8101 126.226 43.1388 132.202ZM134.06 274.856C134.707 278.506 133.695 282.707 133.057 287.32C135.25 285.686 136.238 284.228 136.477 282.689C136.795 280.363 136.7 278.41 138.477 277.07C138.773 277.526 139.442 278.394 139.778 278.848C140.671 275.437 141.897 272.44 143.204 268.695C143.858 266.823 144.097 265.284 143.547 263.627C143.003 256.447 140.803 249.857 139.509 242.557C139.629 241.807 139.708 241.02 138.625 240.485C138.386 242.024 138.265 242.773 138.065 244.311C135.413 251.841 135.836 259.771 137.464 267.485C137.815 270.68 138.58 273.541 138.477 277.07C136.35 275.215 137.161 272.552 136.692 270.147C135.709 266.043 135.183 261.643 134.615 257.206C129.076 268.244 123.241 278.827 119.455 291.268C118.569 289.157 118.354 287.954 119.344 286.535C119.701 284.207 120.809 281.999 121.917 279.792C123.798 274.962 126.134 269.796 128.765 265.048C130.326 262.505 131.849 259.964 132.327 256.886C128.533 261.064 122.257 260.938 119.173 266.022C121.7 264.803 123.143 263.049 126.006 262.283C123.24 265.041 120.177 267.344 116.957 270.437C119.366 270.007 120.059 268.133 122.467 267.703C121.375 272.651 117.404 275.624 117.142 279.906C116.505 284.558 116.281 288.837 118.802 293.141C122.318 290.503 125.419 288.199 127.181 284.119C128.863 280.826 127.881 276.722 128.438 272.857C130.408 275.503 128.766 278.833 130.282 281.815C131.923 278.484 130.408 275.503 131.971 272.999C131.947 275.742 132.377 278.149 132.395 280.929C133.838 279.175 132.616 276.61 134.06 274.856ZM159.863 281.752C163.474 281.068 165.898 283.379 168.896 284.604C169.453 280.739 167.483 278.093 166.264 275.568C164.294 272.922 161.87 270.611 159.98 267.178C164.516 268.603 167.157 272.156 171.557 271.591C170.337 269.065 168.703 266.873 169.142 263.797C164.722 261.543 160.346 259.367 155.928 257.152C152.3 255.057 149.406 250.301 144.907 248.835C147.429 253.178 151.726 256.142 154.246 260.445C151.072 258.014 148.313 255.25 145.22 252.071C148.41 257.242 153.042 260.66 156.352 265.082L155.898 265.417C152.055 262.118 148.96 258.9 145.865 255.682C145.45 256.015 145.45 256.015 145.45 256.015C150.491 264.622 158.754 270.174 163.833 278.779C158.1 272.047 151.496 265.944 145.308 259.547C148.618 263.969 151.474 268.726 155.237 272.812C151.274 270.263 148.633 266.709 145.54 263.53C146.521 267.595 150.149 269.691 151.585 273.459C149.258 273.141 148.826 270.695 146.617 269.587C147.088 272.032 148.387 273.771 150.142 275.213C152.901 277.977 156.529 280.073 159.863 281.752C159.743 282.502 158.659 281.967 158.323 281.514C155.207 281.077 153.116 279.181 150.278 277.204C150.925 280.854 153.349 283.164 155.318 285.81C152.359 284.583 150.804 281.604 148.835 278.958C148.492 284.026 150.559 288.665 152.783 292.513C154.849 297.151 159.266 299.366 163.23 301.915C162.815 302.248 162.815 302.248 162.361 302.584C159.482 300.569 157.393 298.712 154.555 296.735C153.645 297.366 153.98 297.82 153.98 297.82C155.417 301.589 158.709 303.231 161.054 306.328C161.348 306.745 161.684 307.199 162.473 307.317C163.892 308.306 164.346 307.97 165.335 306.552C167.432 302.925 167.2 298.942 167.007 294.957C165.812 289.688 162.837 285.72 159.863 281.752ZM94.7383 225.105C93.9488 224.986 92.5276 223.958 91.5403 225.416C89.2283 227.839 88.0001 230.796 87.8968 234.326C90.4019 235.889 92.8496 235.457 94.4113 232.914C93.7423 232.046 92.538 232.261 91.2946 232.477C93.0714 231.138 95.0651 231.042 96.4844 232.03C98.2783 233.471 96.4996 234.771 96.2626 236.349C94.8194 238.103 93.7116 240.311 93.0579 242.183C90.3865 246.894 90.4983 251.628 92.1497 256.6C92.3667 257.843 92.5817 259.046 94.455 259.7C97.221 256.942 99.8685 254.973 102.634 252.215C101.75 250.143 101.318 247.696 100.432 245.585C97.6665 248.343 97.8987 252.327 95.1327 255.085C96.3589 252.088 96.3437 249.347 97.116 246.686C100.36 240.85 103.446 235.805 106.984 230.386C110.286 226.545 112.168 221.715 115.921 217.499C116.375 217.164 117.364 215.745 117.149 214.541C116.36 214.423 115.945 214.756 115.491 215.092C113.633 217.179 110.652 218.733 108.204 219.165C105.795 219.595 103.683 220.481 102.359 221.446C100.246 222.331 98.4696 223.671 96.1796 223.312C94.9772 223.566 94.5213 223.862 94.7383 225.105ZM240.685 150.438C235.829 151.3 207 165.268 205.596 167.02C206.682 167.594 207.472 167.712 208.34 167.044C213.1 164.189 218.29 163.742 223.361 164.084C227.228 164.641 230.187 165.868 231.525 167.605C220.578 164.062 213.849 164.27 209.424 167.579C211.218 169.019 213.627 168.589 215.421 170.03C210.764 169.354 205.239 169.348 200.383 170.21C200.718 170.664 201.508 170.782 201.508 170.782C205.789 171.005 210.11 171.227 213.859 172.573C215.397 172.772 215.397 172.772 215.158 174.311C213.285 173.658 211.411 173.005 209.003 173.434C210.876 174.088 212.416 174.327 214.17 175.769C210.757 174.877 208.013 174.853 205.351 174.081C202.273 173.643 199.49 173.621 196.294 173.972C196.963 174.84 198.167 174.625 198.503 175.079C198.836 175.494 197.632 175.709 198.718 176.283C200.376 175.732 202.488 174.847 205.112 175.62C208.564 176.511 212.312 177.856 216.259 177.626C219.336 178.064 221.45 177.218 223.227 175.878C222.341 173.767 219.264 173.329 218.498 170.468C224.655 171.384 230.634 171.055 235.473 167.413C232.596 165.438 229.852 165.414 227.347 163.852C228.847 164.092 230.209 163.086 230.409 161.549C233.607 161.238 234.061 160.902 233.51 159.245C235.838 159.563 239.793 153.849 240.685 150.438ZM207.467 80.2606C207.684 81.5034 208.017 81.918 208.353 82.3717C215.863 87.7649 223.99 91.3267 232.928 92.2253C234.505 92.423 236.045 92.6617 237.8 94.1041C228.622 94.7445 221.366 90.5531 213.417 88.2359C215.506 90.0929 217.635 91.9871 218.48 94.0609C221.669 99.2327 225.968 102.236 231.59 104.235C234.253 105.007 236.326 104.123 238.892 102.902C237.339 99.9618 233.47 99.3659 232.489 95.3013C234.819 95.6584 237.146 95.9765 238.804 95.4262C239.004 93.8891 239.004 93.8891 238.668 93.4354C235.574 90.2173 232.855 87.49 228.773 85.7296C227.649 85.1575 226.109 84.9187 225.44 84.0504C223.352 82.1934 221.061 81.8344 218.734 81.5163C214.867 80.9595 211.454 80.0675 207.467 80.2606ZM146.748 50.6573C147.974 47.6606 149.497 45.1196 151.809 42.6969C152.718 42.0654 153.252 40.943 152.622 40.0727C151.617 38.7507 150.732 36.6396 149.312 35.6509C145.757 38.2905 143.653 47.4391 144.969 51.9575C145.305 52.4112 145.838 51.2888 146.509 52.1962C145.184 53.1612 145.401 54.4039 145.201 55.9409C145.298 57.9336 146.182 60.0056 145.489 61.8799C145.052 64.9949 145.067 67.7356 144.925 71.2673C149.149 69.4961 153.001 67.3121 157.322 67.5336C158.191 66.8649 157.107 66.33 157.976 65.6612C159.18 65.4463 159.849 66.3146 160.599 66.4349C164.155 63.7954 165.916 59.7154 170.773 58.8535C169.351 57.8258 168.897 58.1611 167.693 58.376C163.587 59.3582 160.191 61.2459 157.09 63.5502C156.221 64.2189 154.978 64.4358 153.892 63.8618C153.677 62.6581 154.881 62.4431 154.666 61.2395C153.223 62.9934 152.236 64.4511 150.911 65.4161C149.922 66.8347 148.934 68.2924 146.822 69.178C147.14 66.8519 148.917 65.5126 150.242 64.5477C149.691 62.8903 148.702 64.309 148.369 63.8943C147.698 62.9869 148.941 62.77 148.687 61.5683C147.937 61.448 147.698 62.9869 147.068 62.1167C148.709 58.7866 152.361 58.1397 153.333 53.9413C153.477 50.4488 155.118 47.1187 152.48 43.6043C150.168 46.027 148.939 48.9846 146.748 50.6573ZM57.2214 92.0822C60.946 96.1705 63.0514 100.807 66.7741 104.857C68.8643 106.753 70.5378 108.943 71.6388 112.258C71.9351 112.713 71.8557 113.501 72.9396 114.036C73.944 115.358 75.6023 114.807 76.8066 114.592C78.8003 114.496 78.2498 112.838 78.3683 112.049C77.6027 109.188 77.1727 106.781 75.9513 104.216C73.3124 100.702 69.8842 97.0691 65.9207 94.5197C65.5852 94.0659 64.8349 93.9456 65.0347 92.4086C66.908 93.0619 68.7832 93.7544 70.56 92.4151C68.79 88.232 63.7358 90.67 61.312 88.3593C61.51 86.7831 63.5037 86.6866 63.4071 84.6939C61.5338 84.0405 59.6606 83.3872 58.6322 84.8077C56.8927 86.1061 55.7697 85.573 54.6858 85.0381C53.8964 84.9197 53.561 84.4659 52.4771 83.931C55.8814 90.3064 61.8387 92.7592 66.4712 96.177C66.3508 96.927 65.6023 96.8457 66.2323 97.716C67.6907 98.7027 69.4455 100.145 71.2002 101.587C70.7463 101.923 69.996 101.802 69.996 101.802C67.1163 99.788 63.4882 97.6922 61.5184 95.0462C60.1804 93.3095 59.0947 92.7355 57.2214 92.0822ZM179.454 238.859C179.32 236.907 178.57 236.787 177.899 235.88C175.81 234.023 173.266 232.462 171.057 231.355C166.425 227.937 160.724 226.725 156.96 222.639C155.956 221.316 154.536 220.328 152.207 219.971C153.429 222.535 154.768 224.311 155.534 227.172C153.444 225.276 153.093 222.082 150.884 220.975C150.981 222.967 152.775 224.408 152.417 226.736C150.112 223.636 149.465 219.986 147.16 216.886C147.471 220.083 148.239 222.983 148.669 225.39C149.02 228.584 149.785 231.445 151.755 234.091C154.179 236.402 156.723 237.963 160.79 236.983C158.605 233.133 157.287 228.576 156.76 224.176C159.695 228.146 161.467 232.368 165.764 235.332C170.182 237.546 174.799 238.223 179.454 238.859ZM84.0587 211.719C84.9295 211.089 85.717 211.169 85.1665 209.511C84.4975 208.643 84.7364 207.104 84.8549 206.315C86.3862 198.291 88.2901 190.679 92.4841 183.426C93.3529 182.758 93.4714 181.969 93.2564 180.765C87.6279 184.288 80.8984 184.497 76.5707 189.798C79.3586 184.258 85.7546 183.635 90.9291 180.447C87.1012 179.888 84.557 178.327 81.5589 177.102C78.1391 181.732 75.5088 186.481 75.7965 192.42C78.9131 192.856 82.2296 191.756 85.0921 190.99C84.7347 193.318 84.0809 195.191 83.4271 197.063C81.5471 201.932 82.4092 206.786 84.0587 211.719ZM239.765 189.685C234.24 189.679 229.05 190.126 224.313 190.199C224.194 190.988 224.53 191.442 225.317 191.521C229.577 194.526 233.995 196.74 238.746 199.369C242.04 201.05 244.903 200.285 248.004 197.98C243.802 196.97 239.184 196.293 235.556 194.197C249.662 197.43 249.662 197.43 251.854 195.757C249.901 195.891 248.026 195.199 245.699 194.881C249.349 194.195 253.216 194.752 256.829 194.107C253.872 192.918 250.338 192.776 246.925 191.884C249.788 191.119 251.996 192.226 254.859 191.461C253.854 190.138 252.117 191.476 251.112 190.154C253.104 190.018 255.394 190.377 257.388 190.281C249.676 186.385 242.725 190.913 235.421 192.206C236.784 191.24 237.987 190.985 239.765 189.685ZM98.8605 46.5152C98.8757 49.2559 98.8757 49.2559 97.2175 49.8062C96.4519 46.9452 94.7766 44.7157 91.245 44.6126C88.9092 49.7779 91.6616 58.0647 96.6516 59.1545C96.5331 59.9435 96.4126 60.6935 96.2941 61.4825C95.0899 61.6975 94.3004 61.579 94.7563 61.2828C93.4555 59.5052 91.8767 59.2683 90.7928 58.7334C89.707 58.1594 88.9176 58.041 88.3451 59.1653C87.4763 59.834 87.2374 61.3729 88.6958 62.3597C90.4506 63.8021 92.085 65.9944 93.4249 67.7701C94.6291 67.5551 93.6638 66.2312 94.5326 65.5625C94.8442 68.7588 95.1948 71.9532 95.8419 75.6032C96.8292 74.1455 97.4036 73.0603 98.2724 72.3916C98.7264 72.0563 98.8077 71.3082 98.5113 70.8526C97.5069 69.5306 98.0422 68.4472 98.1607 67.6582C98.7179 63.7932 98.0709 60.1432 97.4258 56.5322C96.9938 54.0858 96.4433 52.4285 96.3095 50.4768C99.1634 55.1948 99.9461 60.8356 99.9374 66.3189C101.365 61.8242 101.293 57.089 99.5227 52.9059C101.835 50.4833 99.4091 48.1335 98.8605 46.5152ZM190.42 198.303C190.101 200.629 190.987 202.74 190.748 204.279C190.509 205.818 191.178 206.686 191.849 207.594C193.819 210.24 196.361 211.761 198.452 213.657C200.206 215.1 202.295 216.957 203.181 219.068C200.342 217.091 198.333 214.446 195.039 212.765C197.144 217.402 200.987 220.701 203.961 224.67C203.843 225.459 203.174 224.59 203.054 225.34C204.058 226.662 205.398 228.438 206.363 229.762C207.271 229.091 208.142 228.462 208.26 227.673C208.364 224.143 208.467 220.613 206.164 217.553C205.828 217.099 205.947 216.31 205.611 215.856C205.635 213.114 203.665 210.468 201.871 209.027C198.482 205.392 194.6 202.095 190.42 198.303ZM86.3708 209.296C93.6575 205.223 95.8901 203.587 96.5287 198.974C96.8861 196.646 97.2045 194.32 100.187 192.805C97.6671 188.501 97.5553 183.768 96.5729 179.664C93.5832 186.702 88.0512 192.218 90.3497 200.84C89.5994 200.72 89.7992 199.183 88.5949 199.398C87.3668 202.355 86.4741 205.767 86.3708 209.296ZM190.033 102.958C190.129 104.951 190.105 107.694 191.445 109.469C196.389 116.084 202.561 119.74 210.295 120.854C213.373 121.292 216.571 120.98 219.001 117.769C214.154 113.147 208.651 110.359 202.695 107.945C206.754 112.448 211.96 114.781 216.674 117.451C214.266 117.881 212.511 116.438 210.517 116.535C209.53 117.993 211.818 118.313 211.164 120.185C208.74 117.874 208.332 112.685 204.011 112.464C203.893 113.253 204.895 114.536 204.658 116.114C202.018 112.56 201.037 108.496 197.409 106.4C198.71 108.178 198.39 110.465 198.032 112.793C196.181 109.358 193.996 105.508 191.237 102.743C191.787 104.401 192.673 106.512 193.518 108.586C191.884 106.393 190.998 104.282 190.033 102.958ZM242.924 203.122C253.395 209.782 261.553 218.825 273.801 224.145C272.364 220.377 271.263 217.062 268.385 215.087C265.545 213.07 262.667 211.095 259.59 210.656C261.998 210.226 264.446 209.795 266.519 208.911C259.142 205.469 250.421 205.814 242.924 203.122ZM227.053 42.9289C224.622 46.1406 220.435 47.8708 219.009 52.4045C218.243 49.5435 218.68 46.4285 216.927 45.0252C214.598 44.668 214.359 46.207 213.49 46.8757C210.485 51.1726 211.051 55.5707 212.034 59.6744C212.599 64.0725 212.003 67.9394 212.115 72.6727C213.104 71.2541 214.427 70.2501 215.001 69.1648C216.427 64.6311 218.524 61.0048 219.535 56.8045C219.974 53.7285 221.951 50.8521 223.968 48.013C224.956 46.5552 226.734 45.255 227.053 42.9289ZM229.713 196.517L229.257 196.813C231.562 199.913 233.117 202.892 235.087 205.538C238.612 211.164 241.349 216.71 245.782 221.665C247.416 223.857 249.506 225.753 252.049 227.275C252.152 223.745 246.131 211.073 243.156 207.105C239.511 202.23 234.345 199.935 229.713 196.517ZM165.367 131.685C165.702 132.139 165.702 132.139 166.038 132.593C170.223 130.823 173.858 127.397 178.379 126.081C179.05 126.989 177.725 127.954 178.396 128.861C179.6 128.646 180.054 128.311 181.258 128.096C181.138 128.846 180.39 128.764 180.269 129.514C182.932 130.286 185.913 128.732 188.418 130.294C184.805 130.939 180.82 131.172 177.049 132.608C178.508 133.594 179.927 134.583 181.011 135.118C183.555 136.679 185.213 136.128 187.11 134.039C188.1 132.621 189.087 131.163 190.076 129.744C184.143 124.549 176.863 123.1 169.679 123.644C167.129 127.605 166.141 129.063 164.148 129.16C165.137 127.741 166.914 126.402 167.234 124.115C162.632 126.178 161.166 130.714 156.861 133.233C162.721 133.693 166.141 129.063 170.327 127.294C168.589 128.631 167.146 130.385 165.367 131.685ZM48.5419 119.173C49.9784 122.941 50.6645 126.59 52.9678 129.65C55.2731 132.75 59.5549 132.973 62.8885 134.652C61.5639 135.617 60.2258 133.881 58.9012 134.846C59.7871 136.957 60.7916 138.279 63.0003 139.386C63.6541 137.513 63.893 135.975 63.7574 133.984C62.0094 127.019 57.6158 122.062 54.4264 116.891C52.8715 113.911 49.9124 112.684 48.3575 109.704C47.4715 107.593 46.5875 105.521 44.8327 104.079C45.9337 107.394 47.1532 109.919 48.2542 113.234C49.4346 115.762 49.6668 119.745 53.8673 120.716C50.8863 122.271 50.5356 119.076 48.5419 119.173ZM245.78 207.879C247.885 212.516 249.201 217.034 251.722 221.338C252.057 221.791 252.391 222.206 252.391 222.206C254.838 221.774 256.475 224.005 258.228 225.409C262.645 227.623 266.712 226.643 271.233 225.327C267.269 222.778 263.641 220.682 260.133 217.836L259.679 218.171C260.684 219.494 261.193 221.114 261.864 222.021C259.026 220.044 258.004 215.942 255.165 213.965C252.288 211.989 249.112 209.519 245.78 207.879ZM246.989 68.6335C248.982 68.5369 250.937 68.4422 252.417 66.6473C253.406 65.2287 255.146 63.9303 256.469 62.9263C259.57 60.6221 263.341 59.1862 266.403 56.8838C264.552 53.4488 260.47 51.6884 257.943 52.9074C255.414 54.0873 252.848 55.3082 250.989 57.3956L250.535 57.7309C250.871 58.1846 251.621 58.3049 251.206 58.6383C248.774 61.8109 247.092 65.1038 243.576 67.7414C243.36 66.5378 244.9 66.7765 244.35 65.1191C242.038 67.5418 239.136 68.309 237.158 71.1462C244.343 70.6415 247.881 65.2222 254.06 63.3563C251.828 64.9918 249.518 67.4536 246.989 68.6335ZM152.737 251.942C154.373 254.173 156.128 255.615 158.671 257.137C163.838 259.471 169.379 262.219 173.974 265.677C175.766 267.079 177.306 267.318 179.3 267.221C178.534 264.36 176.014 260.057 173.254 257.292C171.461 255.852 170.495 254.528 167.832 253.756C162.88 252.625 157.69 253.072 152.737 251.942ZM123.223 202.42C118.264 206.811 111.869 207.474 105.69 209.339C104.032 209.89 102.709 210.894 102.135 211.979C103.021 214.09 105.667 212.082 106.888 214.647C105.684 214.862 105.899 216.065 105.445 216.401C101.496 216.592 98.3969 218.935 95.1751 221.989C99.0421 222.546 112.962 216.272 115.394 213.099C112.732 212.327 109.988 212.303 107.564 209.993C111.431 210.55 114.151 213.316 118.042 211.13C121.477 209.24 122.33 205.831 123.223 202.42ZM143.199 47.7744C143.535 48.2282 143.535 48.2282 143.989 47.8929C143.638 44.6984 143.326 41.5021 143.763 38.387C144.559 32.9831 140.701 26.943 135.079 24.9439C130.655 28.2521 130.001 30.1245 132.855 34.8425C133.406 36.4998 134.292 38.6109 135.592 40.3886C136.715 40.9216 136.93 42.1253 138.806 42.8177C138.612 38.8324 137.926 35.1843 136.41 32.2029C135.862 30.5847 135.311 28.9273 137.503 27.2546C137.4 30.7843 138.795 34.5156 139.481 38.1637C139.793 41.36 142.098 44.4597 143.199 47.7744ZM113.291 55.6461C115.309 52.8069 118.586 51.7082 120.819 50.0727C121.056 48.4947 121.71 46.6223 120.705 45.3003C117.724 46.8546 114.526 47.1661 112.214 49.5888C109.784 52.8005 107.351 55.973 104.921 59.1847C103.359 61.7277 102.585 64.35 102.146 67.426C103.925 66.1257 104.914 64.7071 106.572 64.1568C106.237 63.7031 105.783 64.0384 105.568 62.8347C108.884 61.7341 111.865 60.1798 114.967 57.8756C114.631 57.4219 113.723 58.0925 113.427 57.6369C115.621 56.0032 118.268 54.0343 120.46 52.3616C117.718 52.3769 115.82 54.4662 113.291 55.6461ZM169.194 12.5212C164.888 15.0405 163.423 19.5761 164.524 22.8908C167.378 27.6088 170.808 31.2807 173.447 34.795C174.794 31.0484 174.897 27.5187 173.127 23.3356C172.065 20.019 173.158 15.0707 169.194 12.5212ZM105.36 56.1087C106.882 53.5676 107.694 50.9044 108.803 48.7358C109.887 49.2707 108.564 50.2747 109.648 50.8097C111.33 47.5168 114.765 45.6272 115.739 41.4678C113.092 43.4368 110.898 45.0704 109.122 46.4097C110.348 43.4131 113.664 42.3125 115.522 40.2251C117.301 38.9249 117.873 37.8006 118.073 36.2635C118.058 33.5228 118.869 30.8595 118.065 28.0004C117.77 27.5839 117.85 26.7968 116.764 26.2228C110.339 35.15 108.036 45.8357 105.36 56.1087ZM234.769 207.864C235.201 210.311 234.88 212.598 236.181 214.375C236.517 214.829 236.302 213.625 237.385 214.16C237.304 214.908 237.521 216.151 237.401 216.901C238.383 221.005 238.613 224.949 240.8 228.838C241.469 229.706 242.138 230.574 243.224 231.149C247.091 231.705 250.502 232.558 254.235 231.163C246.093 224.861 239.691 217.26 234.769 207.864ZM153.158 112.617C151.954 112.832 151.5 113.167 150.711 113.049C147.433 114.147 145.872 116.69 147.427 119.67C147.938 121.329 148.072 123.281 148.168 125.273C146.534 123.081 146.517 120.301 145.218 118.563C144.189 119.983 143.99 121.52 143.417 122.644C142.443 126.804 141.886 130.669 138.33 133.308L138.666 133.762C142.533 134.319 144.176 131.028 146.071 128.9C147.85 127.599 148.958 125.392 150.695 124.054C153.678 122.539 154.674 115.598 153.158 112.617ZM179.013 94.6805C178.105 95.3511 178.32 96.5548 178.535 97.7584C179.221 101.407 181.07 104.803 182.507 108.571C183.393 110.682 184.692 112.421 186.9 113.528C187.69 113.646 188.361 114.554 189.23 113.885C190.098 113.216 190.217 112.427 190.002 111.223C189.69 108.027 189.458 104.044 187.903 101.064C186.269 98.872 185.503 96.011 182.626 94.0355C183.942 98.5539 186.58 102.068 186.813 106.052C184.826 100.626 181.972 95.9079 179.116 91.1508L178.662 91.4861C180.217 94.4655 181.733 97.4468 183.288 100.426C181.987 98.6486 179.858 96.7544 179.013 94.6805ZM100.335 169.965C97.5841 175.464 97.5841 175.464 99.6504 180.103C101.756 184.74 105.719 187.289 108.694 191.257C110.137 189.503 110.001 187.512 110.576 186.427C108.685 182.994 108.828 179.462 106.068 176.698C105.496 177.822 106.954 178.809 105.926 180.23C104.314 175.256 103.412 170.404 102.55 165.55C100.67 170.419 103.526 175.176 102.098 179.671C100.997 176.356 101.89 172.945 100.335 169.965ZM141.98 285.478C142.098 284.689 142.217 283.9 142.298 283.151C142.728 285.559 142.745 288.339 142.307 291.415C141.875 288.968 140.537 287.231 139.236 285.454C138.343 288.865 139.859 291.846 141.078 294.372C142.283 294.157 141.317 292.833 142.188 292.204C143.822 294.396 141.846 297.272 143.934 299.129C145.066 294.179 144.165 289.327 145.63 284.792C145.845 285.995 145.726 286.784 146.395 287.653C148.159 283.612 146.179 272.663 144.409 268.48C142.447 274.097 139.657 279.598 141.98 285.478ZM199.601 104.727C199.482 105.516 200.272 105.635 200.605 106.049C204.018 106.941 206.777 109.706 211.18 109.179C211.967 109.259 213.507 109.497 214.042 108.414C214.615 107.29 214.4 106.086 213.731 105.218C211.64 103.322 210.182 102.335 208.427 100.892C203.713 98.2227 199.059 97.5866 194.106 96.4558C193.317 96.3374 192.983 95.9227 192.448 97.0061C196.411 99.5555 200.947 100.981 205.246 103.984C202.13 103.547 199.41 100.781 195.087 100.52C198.181 103.739 202.584 103.212 205.343 105.976C202.934 106.406 201.594 104.631 199.601 104.727ZM197.542 154.447C195.549 154.544 194.68 155.212 194.026 157.085C193.669 159.413 192.225 161.167 191.572 163.039C189.595 165.915 186.279 167.016 184.3 169.853C182.308 169.989 180.554 168.547 178.441 169.432C179.446 170.754 181.104 170.204 182.523 171.193C183.824 172.97 185.482 172.42 186.509 170.96C187.834 169.995 188.584 170.116 190.122 170.315C192.115 170.219 193.023 169.548 194.763 168.25C197.529 165.492 199.209 162.16 201.642 158.987C200.398 159.204 199.409 160.623 197.99 159.634C198.189 158.097 198.882 156.223 197.542 154.447ZM230.49 41.0784C225.96 47.8773 220.31 54.1822 219.408 63.0768C219.862 62.7415 219.862 62.7415 220.279 62.4472C223.38 60.143 225.811 56.9313 229.581 55.4954C230.786 55.2804 230.904 54.4914 231.44 53.408C232.451 49.2077 231.016 45.4784 231.573 41.6134C231.573 41.6134 231.238 41.1596 230.49 41.0784ZM105.241 70.6441L104.905 70.1904C106.645 68.8921 109.093 68.4602 110.08 67.0024C111.069 65.5838 113.971 64.8166 113.956 62.0759C101.023 66.8929 101.038 69.6336 98.9194 76.0416C103.225 73.5224 107.331 72.5402 111.852 71.2246C115.917 70.2052 119.018 67.901 121.234 63.4857C118.038 63.8363 115.511 65.0553 112.863 67.0243C110.297 68.2452 107.768 69.4251 105.241 70.6441ZM181.428 88.7281C184.641 91.1573 186.611 93.8033 190.478 94.3601C195.095 95.0372 199.177 96.7976 203.58 96.271C205.117 96.4706 206.361 96.2538 207.35 94.8351C205.595 93.3927 204.137 92.406 201.928 91.2989C195.556 89.1795 188.254 90.5123 181.428 88.7281ZM40.8113 145.63C39.5764 154.11 44.7595 159.185 49.0345 164.931C51.1315 161.305 51.1554 158.562 49.1465 155.918C46.2907 151.161 44.3429 145.733 42.3578 140.347C41.8074 138.689 41.2569 137.032 40.8268 134.625C40.0526 137.247 40.1491 139.24 41.0332 141.312C42.4696 145.08 43.5706 148.395 44.0972 152.795C42.4237 150.604 42.4457 147.823 40.8113 145.63ZM241.806 63.5583C241.152 65.4307 238.704 65.8626 237.596 68.0702C240.283 66.0994 243.481 65.7878 244.335 62.3784C245.442 60.1708 246.884 58.3777 248.662 57.0775C250.854 55.4048 252.632 54.1046 254.863 52.43C251.213 53.1159 248.351 53.8812 245.034 54.9818L245.153 54.1928C246.142 52.7741 246.342 51.2371 244.922 50.2484C243.501 49.2207 241.724 50.56 241.15 51.6452C239.627 54.1863 239.189 57.2623 240.29 60.577C238.928 61.5829 238.393 62.6663 239.397 63.9883C240.483 64.5623 241.016 63.4399 241.806 63.5583ZM243.163 201.583C246.912 202.929 250.779 203.486 254.606 204.044C258.927 204.266 262.794 204.822 266.758 207.372C267.427 208.24 268.057 209.111 269.046 207.692C269.954 207.021 269.739 205.818 269.07 204.949C267.1 202.303 264.102 201.078 261.143 199.85C260.689 200.186 260.689 200.186 260.235 200.521C256.504 201.955 252.42 200.156 248.434 200.388C249.877 198.634 251.751 199.287 253.29 199.526C256.822 199.629 256.822 199.629 257.394 198.505C249.542 198.18 249.542 198.18 243.163 201.583ZM211.358 78.0748C212.443 78.6488 212.897 78.3135 213.312 77.9801C215.425 77.0945 217.872 76.6626 219.728 74.5362C221.292 72.0323 223.939 70.0634 226.585 68.0554C227.91 67.0904 228.108 65.5143 227.144 64.2294C225.484 64.7407 224.497 66.1984 222.821 63.9689C225.508 61.9981 227.701 60.3644 229.343 57.0343C223.38 60.1429 215.773 66.5035 216.221 71.6906C215.192 73.1111 213.238 73.2058 212.88 75.5337C216.771 73.3479 220.287 70.7103 223.053 67.9523C223.484 70.3596 223.484 70.3596 211.358 78.0748ZM198.601 204.603C201.656 207.823 205.738 209.584 207.508 213.767C208.379 213.137 208.044 212.684 208.162 211.895C207.971 207.948 206.416 204.969 204.526 201.536C203.681 199.462 202.341 197.686 200.882 196.699C197.708 194.268 194.295 193.376 191.082 190.947C191.082 190.947 191.082 190.947 190.667 191.281C194.056 194.915 197.82 199.002 201.663 202.301C198.37 200.659 196.362 198.015 193.521 195.999C195.923 201.091 199.471 203.974 204.304 205.855C201.895 206.285 200.891 204.962 198.601 204.603ZM206.866 57.3399C204.179 59.3108 205.401 61.8756 205.951 63.5329C207.067 69.5884 205.936 74.5386 202.396 79.9189C205.594 79.6073 208.241 77.6383 209.803 75.0954C212.018 70.6801 211.906 65.9467 210.59 61.4283C209.84 61.308 209.722 62.097 208.932 61.9786C208.717 60.775 208.621 58.7823 206.866 57.3399ZM89.9994 151.55C90.096 153.543 91.1004 154.865 91.7694 155.733C92.7348 157.057 93.8597 157.629 95.4788 157.081C97.591 156.195 100.039 155.763 102.327 156.083C103.57 155.866 104.774 155.651 105.308 154.529C106.201 151.118 108.633 147.945 107.986 144.295C107.197 144.177 107.197 144.177 107.117 144.964C105.117 150.583 103.004 151.468 97.5978 150.673C94.9351 149.901 92.862 150.785 89.9994 151.55ZM159.845 205.345C157.004 203.329 154.462 201.807 150.81 202.454C148.066 202.43 144.75 203.531 142.007 203.546C140.014 203.643 139.13 201.571 137.471 202.121C138.77 203.86 140.979 204.967 141.53 206.624C142.199 207.492 142.949 207.613 144.528 207.85C147.941 208.742 151.672 207.308 155.085 208.2C156.208 208.733 156.782 207.648 157.197 207.314C158.105 206.644 158.976 206.014 159.845 205.345ZM188.213 197.235C185.245 201.491 181.571 204.919 178.27 208.761C177.401 209.429 177.283 210.218 178.033 210.339C179.906 210.992 180.799 207.581 182.926 209.436C182.354 210.56 181.483 211.19 182.448 212.514C187.105 213.189 189.298 211.555 189.187 206.822C189.625 203.746 189.312 200.51 188.213 197.235ZM106.064 29.4042C102.844 32.4975 100.868 35.3738 99.6395 38.3314C99.1856 38.6667 99.1062 39.4539 99.4397 39.8685C101.076 42.0999 101.842 44.9609 101.523 47.2869C101.284 48.8259 101.499 50.0295 102.504 51.3516C102.607 47.8219 102.414 43.8366 103.268 40.4272C103.046 44.7459 103.396 47.9403 103.923 52.3403C105.031 50.1326 105.351 47.8456 106.044 45.9714C106.577 44.8489 107.152 43.7637 106.937 42.5601C106.369 38.1229 105.388 34.0583 106.064 29.4042ZM148.389 287.556C147.242 289.766 148.047 292.625 147.019 294.045C144.923 297.711 146.932 300.355 147.244 303.551C147.459 304.755 149.214 306.197 151.207 306.1C151.229 303.319 148.806 301.008 148.909 297.478C152.004 300.696 152.649 304.307 154.204 307.287C154.085 308.076 154.754 308.944 155.958 308.729C155.728 304.785 154.627 301.47 153.526 298.155C151.675 294.72 150.694 290.656 148.389 287.556ZM148.015 227.262C147.829 217.755 140.996 207.746 136.004 206.618C138.23 210.504 142.073 213.804 142.935 218.657C141.516 217.669 140.966 216.011 140.295 215.104C139.329 213.78 138.66 212.912 137.656 211.59C139.976 217.43 141.389 223.941 145.368 229.231C146.69 228.227 145.607 227.692 146.475 227.024C146.931 226.727 147.226 227.144 148.015 227.262ZM140.307 237.192C145.108 247.337 150.507 253.616 164.204 251.66C162.114 249.764 160.241 249.111 158.032 248.004C151.74 245.097 144.007 244.023 140.307 237.192ZM108.121 192.381C105.934 188.493 101.973 185.982 99.3321 182.429C98.4633 183.098 99.0932 183.968 98.9746 184.757C99.6589 188.366 100.76 191.681 101.861 194.995C101.622 196.534 100.617 195.212 100.499 196.001C100.299 197.538 100.514 198.742 101.065 200.399C104.796 198.965 106.478 195.672 108.121 192.381ZM41.3436 70.8806C36.6976 78.5076 35.9166 86.6523 32.8084 94.4789C40.0158 91.1925 39.8869 83.6793 41.098 77.942C42.0059 77.2714 42.6768 78.1788 42.7953 77.3898C42.6597 75.399 43.019 73.1101 41.3436 70.8806ZM227.25 148.112C226.915 147.659 226.915 147.659 226.915 147.659C225.138 148.998 223.598 148.759 221.94 149.31C221.286 151.182 220.297 152.601 219.189 154.808C218.72 152.403 220.497 151.064 220.282 149.86C219.492 149.742 218.742 149.621 219.078 150.075C216.527 154.037 214.43 157.663 210.795 161.09C212.335 161.328 212.749 160.995 213.537 161.074C216.974 159.224 220.036 156.921 223.353 155.821C224.142 155.939 224.261 155.15 224.675 154.817C225.783 152.609 226.143 150.32 227.25 148.112ZM23.4486 99.4361C26.5481 97.0928 28.5266 94.2555 29.7529 91.2589C30.7421 89.8402 31.6109 89.1715 33.0693 90.1583C33.923 86.7489 35.1511 83.7913 35.2544 80.2615C34.5041 80.1412 34.0501 80.4765 33.9297 81.2265C31.2028 83.9825 28.4368 86.7405 26.0063 89.9521C23.6551 92.3767 22.7625 95.788 23.4486 99.4361ZM173.544 36.7877C171.359 32.938 168.264 29.7199 165.505 26.9555C164.636 27.6242 164.221 27.9576 163.313 28.6282C165.498 32.4778 165.195 37.5446 168.466 41.9683C168.13 41.5146 167.38 41.3943 166.592 41.3149C166.807 42.5186 165.939 43.1873 166.943 44.5094C169.255 42.0867 171.232 39.2103 173.544 36.7877ZM159.075 55.1905C161.091 52.3122 162.949 50.2249 164.925 47.3485C166.489 44.8447 166.177 41.6483 164.956 39.0836C164.072 37.0116 161.982 35.1155 159.773 34.0084C161.655 42.9249 160.979 47.5789 159.075 55.1905ZM172.334 116.152C169.695 112.638 168.155 112.399 163.97 114.169C161.858 115.054 160.75 117.262 161.395 120.873C162.184 120.991 162.759 119.906 163.174 119.573C163.27 121.565 160.862 121.995 160.958 123.988C162.496 124.187 162.616 123.438 163.524 122.767C164.393 122.098 164.593 120.561 166.505 121.213C168.045 121.451 168.914 120.783 169.903 119.364C170.478 118.279 171.011 117.156 172.334 116.152ZM108.044 40.3524C110.004 34.6963 113.129 29.6494 116.215 24.6045C115.88 24.1508 115.544 23.6971 114.34 23.912C110.69 24.598 107.922 27.3169 107.031 30.7673C106.593 33.8433 106.488 37.3339 108.044 40.3524ZM235.071 83.0747C234.402 82.2063 233.277 81.6342 232.647 80.764C229.888 77.9996 226.554 76.3204 222.488 77.3006C222.034 77.6359 221.285 77.5547 220.496 77.4363C218.502 77.5329 215.64 78.2982 213.112 79.5172C220.846 80.6307 228.126 82.0796 235.071 83.0747ZM253.957 66.886C257.155 66.5744 259.897 66.5591 263.214 65.4585C266.076 64.6932 268.82 64.7169 272.352 64.82C273.595 64.6031 273.476 65.3921 274.225 65.4734C274.345 64.7234 275.135 64.8418 275.253 64.0528C265.095 60.6286 262.136 59.4012 253.957 66.886ZM124.875 207.392C124.124 207.271 124.124 207.271 123.67 207.607C122.562 209.814 120.999 212.318 119.891 214.526C119.476 214.859 119.812 215.313 119.691 216.063C121.207 219.044 123.552 222.142 125.857 225.242C125.984 218.97 123.208 213.425 124.875 207.392ZM166.253 133.796C171.771 139.325 178.262 140.656 182.351 136.894C178.604 135.587 176.084 131.284 171.539 135.342L171.206 134.927C171.66 134.592 172.075 134.258 172.193 133.469C170.238 133.564 168.247 133.7 166.253 133.796ZM234.764 60.5705C235.061 61.0261 234.646 61.3596 234.526 62.1095C233.084 63.9025 231.345 65.2009 229.901 66.9548C236.734 63.2166 239.285 59.255 238.504 53.6532C235.522 55.1685 233.091 58.3801 230.325 61.1381C229 62.103 228.467 63.2254 229.768 65.0031C231.545 63.6638 232.652 61.4561 234.764 60.5705ZM164.861 37.13C164.748 32.3575 161.462 25.1931 159.038 22.8824C157.044 22.979 156.137 23.6496 156.272 25.6404C156.823 27.2977 157.038 28.5014 158.003 29.8253C160.012 32.4695 162.517 34.0321 164.861 37.13ZM154.971 69.9582C159.053 71.7186 162.266 74.1477 164.986 76.914C166.78 78.3545 167.864 78.8894 169.643 77.5892C169.761 76.8002 169.307 77.1355 168.972 76.6818C166.213 73.9174 162.131 72.1569 158.502 70.0612C154.874 67.9655 152.227 69.9344 148.91 71.035C151.119 72.1421 153.446 72.4601 155.322 73.1526C155.855 72.0302 154.771 71.4952 154.971 69.9582ZM56.5824 142.791C56.894 145.987 59.3177 148.298 60.1224 151.157C59.3349 151.077 58.9994 150.624 58.664 150.17C58.0915 151.294 59.2145 151.827 59.2145 151.827C59.0959 152.616 60.2189 153.149 59.311 153.82C55.9218 150.185 53.9349 144.76 50.0527 141.462C52.0377 146.849 53.6892 151.821 58.6572 155.692C59.98 154.688 60.8507 154.059 61.0877 152.481C60.8575 148.536 59.3416 145.555 56.5824 142.791ZM107.059 248.907C106.947 244.173 105.966 240.109 106.188 235.79C101.564 240.635 100.768 246.039 103.288 250.342C104.946 249.792 104.396 248.135 105.304 247.464C105.639 247.918 106.39 248.038 107.059 248.907ZM185.153 46.7211C177.658 44.0686 168.027 45.0443 165.397 49.793C168.595 49.4814 171.655 47.14 174.772 47.5765C174.199 48.7008 173.113 48.1268 172.541 49.2511C176.647 48.2689 180.514 48.8257 185.153 46.7211ZM228.573 147.108C227.799 149.731 226.358 151.524 226.334 154.266C228.781 153.834 236.404 150.215 237.393 148.796C234.513 146.782 231.651 147.547 228.573 147.108ZM46.2618 173.212C48.9313 168.461 49.2515 166.174 46.8258 163.824C45.1914 161.632 43.5571 159.44 41.8817 157.21C43.5332 162.182 43.0706 168.001 46.2618 173.212ZM192.015 20.9324C187.143 19.0536 182.638 23.1099 180.519 29.5178C185.494 27.867 189.345 25.683 192.015 20.9324ZM182.304 22.6952C185.939 19.2686 187.071 14.3183 192.125 11.8803C187.924 10.9089 184.862 13.2113 181.96 13.9784C181.976 16.7191 182.287 19.9155 182.304 22.6952ZM146.376 137.618C147.047 138.526 147.716 139.394 148.8 139.929C149.471 140.836 150.555 141.371 151.559 142.693C149.901 143.244 149.471 140.836 147.812 141.387C151.456 146.223 155.538 147.984 159.151 147.339C156.295 142.581 151.583 139.951 146.376 137.618ZM124.622 233.722C124.861 232.183 125.396 231.1 125.635 229.561C125.521 224.788 121.558 222.239 119.254 219.178C118.441 221.802 118.912 224.247 119.342 226.654C119.878 225.571 119.996 224.782 120.235 223.243C121.218 227.346 119.871 231.093 121.759 234.487C121.744 231.746 121.766 228.965 122.205 225.889C124.629 228.199 123.402 231.196 124.622 233.722ZM187.807 39.2298C182.817 38.14 172.118 41.3214 169.231 44.8293C170.889 44.279 172.548 43.7287 173.791 43.5118C176.654 42.7465 179.181 41.5275 181.843 42.2993C184.923 42.7767 186.125 42.5227 187.807 39.2298ZM131.374 50.3838C130.506 51.0525 130.387 51.8415 130.641 53.0433C131.607 54.3672 132.276 55.2356 133.697 56.2633C136.121 58.574 139.452 60.2141 140.889 63.9826C141.4 65.6418 142.405 66.9639 142.955 68.6212C143.831 62.4302 138.209 60.431 136.024 56.5813C136.143 55.7923 137.564 56.8201 137.801 55.242C136.009 53.8406 134.493 50.8593 131.374 50.3838ZM187.533 68.3416C182.35 63.2664 179.606 63.2427 173.069 67.4365C177.805 67.3246 182.676 69.2034 187.533 68.3416ZM13.7123 103.902C16.9103 103.591 19.4764 102.37 21.6699 100.736C22.5388 100.068 22.2443 99.6511 22.3237 98.864C22.5626 97.3251 22.4661 95.3324 22.7844 93.0063C19.1496 96.433 16.5987 100.395 13.7123 103.902ZM139.786 46.8824C136.476 42.4606 133.087 38.8259 130.982 34.1891C130.567 34.5225 130.567 34.5225 130.231 34.0688C130.209 36.8505 130.225 39.5912 130.99 42.4522C132.53 42.6909 133.495 44.0149 134.618 44.5479C136.492 45.2013 137.459 46.5643 139.786 46.8824ZM156.22 124.061C155.352 124.729 154.444 125.4 154.244 126.937C159.219 125.286 160.408 122.33 160.079 116.354C156.348 117.788 153.797 121.75 154.229 124.196C155.018 124.315 155.137 123.526 156.22 124.061ZM188.45 181.91C188.672 177.592 192.339 179.685 194.412 178.802C190.33 177.041 186.287 175.279 182.62 173.185C184.175 176.165 185.691 179.146 188.45 181.91ZM246.321 81.5506C250.596 87.2963 260.107 87.0706 263.288 83.9792C259.302 84.2115 255.354 84.4027 251.489 83.885C252.062 82.7607 253.027 84.0847 253.266 82.5457C250.818 82.9776 248.73 81.1206 246.321 81.5506ZM40.6536 160.168C40.6536 160.168 40.2387 160.501 40.5741 160.955C40.3352 162.494 39.7628 163.618 39.5629 165.155C39.0038 168.981 39.3392 169.435 43.4213 171.195C42.737 167.586 42.09 163.936 40.6536 160.168ZM192.796 12.7877C190.148 14.7567 187.836 17.1793 186.61 20.176C188.387 18.8367 190.677 19.1957 192.669 19.0601C193.776 16.8524 193.226 15.195 192.796 12.7877ZM28.147 113.112C25.618 114.291 23.8413 115.631 23.9769 117.622C21.4088 118.803 19.2172 120.476 19.5288 123.672C24.0496 122.357 25.5147 117.821 28.147 113.112ZM46.4081 76.7448C45.8576 75.0874 44.5568 73.3098 44.0063 71.6524L43.5524 71.9877C44.079 76.3877 44.6466 80.8248 45.2123 85.2229C49.1826 82.2499 44.8855 79.2858 45.2038 76.9598C45.7372 75.8374 45.9933 77.0782 46.4081 76.7448ZM132.171 44.9798C135.147 48.987 140.137 50.0768 142.777 53.6302C141.126 48.6581 136.588 47.1939 132.171 44.9798ZM236.951 64.4593C230.987 67.5288 227.806 70.6202 227.032 73.2425C230.667 69.8158 235.188 68.5002 236.951 64.4593ZM214.914 195.158C214.802 190.425 211.492 186.003 208.415 185.564C211.174 188.329 212.155 192.394 214.914 195.158ZM111.825 240.53C111.388 243.645 110.91 246.723 112.011 250.037C114.562 246.076 114.584 243.294 111.825 240.53ZM188.584 183.862C189.863 188.421 193.409 191.265 197.947 192.729C194.732 190.261 191.639 187.082 188.584 183.862ZM134.947 50.524C138.121 52.955 140.76 56.4694 143.065 59.5691C143.208 56.0375 138.814 51.0808 134.947 50.524ZM201.164 162.065C199.641 164.606 198.198 166.36 195.886 168.783C197.88 168.686 199.499 168.138 201.157 167.588C201.06 165.595 202.05 164.176 201.164 162.065ZM46.1572 116.86C46.3503 120.846 48.7893 125.897 51.2944 127.46C49.4431 124.025 48.344 120.749 46.1572 116.86ZM176.523 128.208C174.744 129.508 172.335 129.938 170.559 131.277C174.09 131.38 175.294 131.165 176.523 128.208ZM189.012 39.0148C191.085 38.1311 191.778 36.2568 193.102 35.2919C190.319 35.2701 188.58 36.5684 189.012 39.0148ZM48.4454 117.18C48.0153 114.773 46.9143 111.458 45.6154 109.72C45.8065 113.666 47.0261 116.192 48.4454 117.18ZM125.706 174.415C125.395 171.219 125.834 168.143 124.279 165.163C124.629 168.358 124.605 171.1 125.706 174.415ZM220.399 75.4436C222.137 74.1062 224.8 74.878 225.574 72.2557C223.501 73.1394 221.842 73.6897 220.399 75.4436ZM266.628 80.136C265.385 80.3529 263.845 80.1142 262.976 80.7829C264.635 80.2326 263.862 82.894 264.613 83.0143C265.935 82.0103 266.389 81.675 266.628 80.136ZM152.035 125.83C150.377 126.38 149.054 127.384 148.361 129.259C150.059 128.706 151.381 127.702 152.035 125.83ZM118.304 266.69C116.979 267.655 114.867 268.541 114.549 270.867C116.288 269.569 117.611 268.565 118.304 266.69ZM175.362 168.955C174.024 167.218 172.484 166.979 170.946 166.78C172.366 167.768 173.37 169.09 175.362 168.955ZM165.183 122.217C164.154 123.637 162.081 124.521 161.388 126.395C162.417 124.975 164.825 124.545 165.183 122.217ZM91.5123 80.8651C93.1724 80.3538 94.1989 78.8942 94.5191 76.6072C93.0759 78.3612 92.2052 78.9908 91.5123 80.8651ZM133.359 222.372C132.705 224.244 134.46 225.687 135.425 227.011C135.33 225.057 134.324 223.696 133.359 222.372ZM166.193 164.112C165.11 163.577 163.77 161.801 162.23 161.562C163.234 162.884 164.656 163.912 166.193 164.112ZM130.718 205.072C131.626 204.402 132.591 205.726 133.166 204.64C132.497 203.772 131.707 203.654 131.075 202.744C130.957 203.533 130.838 204.322 130.718 205.072ZM245.139 65.2375C246.541 63.4464 247.531 62.0278 248.223 60.1535C246.447 61.4928 245.457 62.9115 245.139 65.2375ZM127.757 190.059C127.104 191.932 127.104 191.932 129.433 192.289C128.764 191.42 128.882 190.631 127.757 190.059ZM139.527 78.7348C140.97 76.9809 142.293 75.9769 142.532 74.438C141.503 75.8585 139.847 76.4479 139.527 78.7348ZM192.68 100.99C193.191 102.649 193.9 103.515 195.2 105.293C194.314 103.182 194.099 101.978 192.68 100.99ZM262.235 194.902C262.689 194.567 263.479 194.685 263.223 193.444C262.928 193.028 262.593 192.574 261.349 192.791C261.685 193.245 262.808 193.778 262.235 194.902ZM174.251 83.7496C176.045 85.1901 176.045 85.1901 177.034 83.7714C176.245 83.653 175.159 83.079 174.251 83.7496ZM256.964 196.097C255.841 195.564 254.971 196.194 254.063 196.865C255.188 197.437 256.056 196.768 256.964 196.097ZM154.325 139.935C153.656 139.067 152.987 138.199 151.032 138.293C152.452 139.282 153.202 139.402 154.325 139.935ZM205.944 82.8017C205.394 81.1443 205.394 81.1443 203.736 81.6946C204.406 82.6021 205.155 82.6833 205.944 82.8017ZM172.985 267.096C172.353 266.187 171.566 266.107 170.895 265.2C171.112 266.443 171.445 266.857 172.985 267.096ZM109.741 145.737C109.98 144.199 110.098 143.41 109.548 141.752C109.309 143.291 109.19 144.08 109.741 145.737ZM132.519 200.99C132.185 200.576 131.85 200.122 130.725 199.55C130.942 200.793 131.275 201.207 132.519 200.99ZM177.776 89.375C177.561 88.1714 177.346 86.9677 175.688 87.518C176.357 88.3864 176.692 88.8401 177.776 89.375ZM39.8364 62.416C39.716 63.1659 38.8081 63.8365 39.9311 64.3696C41.5893 63.8193 40.4663 63.2863 39.8364 62.416Z" fill="#D9B696"/>
</svg>
