<svg width="294" height="342" viewBox="0 0 294 342" fill="none" xmlns="http://www.w3.org/2000/svg">
<path d="M206.224 158.475C209.891 162.414 211.209 165.059 211.918 171.348C209.278 171.029 206.61 170.711 203.31 170.734C199.35 171.101 195.388 173.106 190.924 174.953C187.146 176.454 183.318 176.321 178.854 176.502C176.717 176.368 175.054 174.701 173.233 173.563C172.23 173.246 171.729 173.088 171.226 172.902C170.566 173.245 170.592 174.909 169.429 175.067C168.083 174.089 166.764 173.11 165.285 172.605C165.284 174.271 197.836 221.253 202.507 227.203C203.618 222.052 203.437 217.585 204.075 212.301C206.397 213.597 208.218 214.735 209.38 216.243C208.877 216.057 208.375 215.899 207.399 215.58C207.396 218.884 208.425 220.865 208.609 223.693C206.762 220.892 206.737 217.562 205.076 214.256C203.618 222.052 204.145 225.54 207.812 229.48C208.949 227.658 207.947 225.675 208.609 223.693C208.925 224.355 208.925 224.355 209.268 225.016C210.429 224.831 209.929 223.007 211.223 222.349C211.432 225.148 209.265 226.654 209.608 228.981C209.315 231.621 210.159 234.106 210.977 234.927C212.96 232.285 212.592 228.295 215.077 225.812C214.574 225.627 214.734 225.152 214.231 224.966C216.346 221.825 218.988 218.813 221.446 216.332C222.449 216.649 221.631 217.494 221.974 218.155C227.048 210.998 231.331 204.685 234.789 204.159C227.523 209.493 224.271 217.814 218.853 224.283C221.839 221.959 224.929 219.11 227.414 216.627C228.894 215.466 229.87 214.119 231.72 215.282C231.216 216.762 230.054 216.947 229.419 218.927C231.902 218.083 233.54 216.42 235.178 214.757C237.16 213.754 238.798 212.091 241.281 211.247C238.982 213.253 236.34 214.572 234.861 217.426C238.319 216.901 241.303 216.215 242.784 213.388C244.106 211.063 246.246 209.559 248.386 208.054C247.883 209.561 245.586 209.902 245.267 212.544C249.23 210.539 252.348 207.715 256.809 207.507C252.345 209.353 248.41 211.357 245.106 214.685C246.111 215.029 247.272 214.844 248.092 214.026C250.733 212.68 252.873 211.176 255.516 209.857C257.654 208.325 258.975 207.666 260.452 208.144C257.151 209.833 253.849 211.495 250.73 214.319C255.194 214.138 259.499 214.459 263.802 214.753C262.984 215.598 262.322 215.914 261.319 215.597C260 214.617 258.336 214.616 256.54 215.116C254.376 214.983 252.209 214.824 249.595 216.168C250.571 216.487 251.574 216.804 252.076 216.962C256.222 217.785 259.68 218.926 263.506 220.698C270.132 223.981 276.627 226.098 284.549 225.392C283.89 224.069 283.705 222.907 282.387 221.928C279.403 220.947 276.738 218.991 273.095 218.354C272.09 218.009 271.273 217.189 270.428 216.37C274.229 218.171 279.063 218.648 283.046 221.584C281.677 217.304 279.514 213.84 277.695 211.037C277.51 209.874 276.507 209.557 275.344 209.715C272.36 208.735 268.902 209.26 265.918 209.945C263.119 210.127 260.979 211.632 258.312 211.314C263.779 209.784 269.377 207.754 275.69 208.737C275.505 207.574 275.505 207.574 275.663 207.073C277.985 208.369 278.829 210.854 280.174 213.497C283.181 217.78 284.869 222.749 287.216 227.375C285.393 227.876 284.576 227.056 283.069 226.553C279.928 226.074 277.286 227.42 274.302 228.106C270.182 228.947 265.718 230.794 261.441 232.164C259.618 232.665 257.637 233.668 255.656 234.67C254.176 235.832 252.194 236.834 249.527 236.516C254.198 242.466 252.926 248.092 250.968 254.063C248.804 253.931 248.303 252.106 246.824 251.602C243.682 251.123 240.513 250.647 237.715 250.829C230.769 251.854 224.141 251.902 217.198 251.289C221.574 261.518 228.062 270.244 236.561 277.993C235.057 277.517 233.894 276.009 231.916 275.373C236.059 279.5 239.726 283.439 243.553 286.904C247.378 290.342 251.865 293.464 256.352 296.585C246.584 294.49 215.289 262.227 213.236 251.628C211.095 254.799 213.443 257.759 212.623 260.243C211.643 263.228 212.487 265.713 212.169 268.382C210.348 265.552 211.3 262.568 209.982 259.923C208.821 260.108 208.663 260.609 208.82 261.773C209.662 264.231 209.846 267.059 210.028 269.86C209.87 270.361 210.556 271.682 209.234 272.342C208.047 270.862 208.709 268.88 207.707 266.898C207.229 270.042 208.733 272.183 207.252 275.01C205.406 272.208 206.703 268.246 205.385 265.601C203.562 266.102 202.744 266.947 203.243 268.744C203.77 272.233 204.453 275.192 205.455 278.841C206.824 284.787 208.508 291.395 208.399 298.529C210.354 295.862 211.175 293.379 211.493 290.709C211.786 286.403 213.743 282.098 213.562 277.631C213.698 272.161 214.495 266.374 214.603 260.906C214.761 260.404 214.947 259.9 215.105 259.399C216.292 262.544 215.973 265.186 215.655 267.855C215.019 271.501 215.359 275.466 214.723 279.112C213.106 287.409 212.519 295.995 208.422 303.497C206.122 307.142 204.167 309.809 202.024 312.952C195.945 321.43 186.727 326.126 177.297 329.661C173.362 331.664 168.873 331.874 164.569 329.888C164.703 327.749 164.864 325.608 165.023 323.441C165.979 317.153 164.795 310.703 165.248 304.229C165.703 296.117 165.629 287.847 168.248 279.867C168.566 278.891 168.883 277.887 168.383 276.063C166.058 276.405 163.734 276.747 161.278 277.59C156.631 278.301 152.672 277.002 148.525 276.18C141.74 275.064 136.092 272.127 129.782 269.506C125.796 268.209 121.678 267.412 117.188 267.594C114.891 267.935 113.068 268.436 111.588 269.597C110.745 268.805 110.931 268.302 111.59 267.958C113.545 265.292 114.685 261.832 117.484 259.984C119.123 258.321 120.445 255.996 121.582 254.174C127.658 247.334 132.92 239.701 140.658 234.501C143.301 233.182 145.942 231.837 148.927 231.151C150.722 230.652 152.042 229.965 153.364 229.306C156.005 227.96 158.329 227.618 160.811 228.439C161.445 226.432 159.967 225.955 159.15 225.134C160.472 224.475 161.606 224.292 162.45 225.111C165.776 228.417 170.08 227.045 174.2 226.204C179.64 224.676 185.264 224.31 191.074 225.106C193.213 225.268 194.559 226.245 196.697 226.407C196.038 225.084 195.352 223.763 194.033 222.784C189.866 217.02 186.701 211.573 183.166 205.468C182.507 204.145 181.502 203.801 180.025 203.324C177.909 208.131 171.965 211.139 167.319 210.185C172.099 209 176.405 207.655 179.022 203.007C171.393 201.072 164.447 202.097 157 201.298C157.685 204.285 159.347 205.924 161.009 207.564C163.995 206.905 166.795 205.058 169.752 204.374C167.454 206.38 164.998 207.222 162.831 208.729C163.861 210.71 167.16 212.352 170.144 211.667C173.761 210.64 177.407 209.638 180.022 206.628C180.683 206.312 181.37 205.967 182.346 206.286C182.848 206.444 183.005 207.608 182.372 207.95C178.383 209.957 175.265 212.781 171.146 213.65C167.184 213.989 164.675 213.169 162.196 210.709C159.186 208.065 157.369 205.288 155.206 201.824C155.523 200.821 156.341 199.975 157.978 199.978C159.485 200.481 160.804 199.795 162.124 199.108C166.405 196.126 170.526 193.619 176.491 195.552C172.482 189.287 168.314 183.523 164.147 177.759C162.667 178.92 162.824 180.084 163.009 181.246C162.689 185.554 160.415 189.197 156.11 190.542C154.128 191.545 153.946 188.744 152.625 189.403C151.966 188.081 152.601 186.101 151.599 184.118C148.641 186.467 145.022 187.467 141.221 187.332C140.033 185.853 141.168 184.004 141.012 182.867C140.166 182.021 139.348 182.866 138.214 183.049C133.088 185.212 128.6 183.756 123.136 181.982C118.834 180.022 113.685 178.882 108.401 181.547C108.401 181.547 107.926 181.387 107.267 181.73C109.198 175.761 111.156 169.789 115.411 165.144C116.256 164.297 117.075 163.452 117.895 162.634C124.291 153.152 133.72 151.283 144.306 152.533C146.445 152.695 148.769 154.018 151.436 154.336C150.249 151.191 148.904 148.548 147.586 145.903C146.399 144.423 145.238 142.942 144.737 141.118C143.392 138.475 142.891 138.316 140.092 138.498C138.269 138.999 135.945 139.341 134.81 141.19C137.448 141.483 139.774 139.475 142.07 140.8C142.096 142.464 140.089 141.803 139.456 142.144C137.475 143.147 135.15 143.489 133.515 143.513C132.009 143.011 130.504 142.535 129.687 141.714C126.677 139.07 124.039 137.112 122.191 134.283C121.848 133.622 121.03 132.801 121.507 131.323C122.326 130.478 123.33 130.822 123.832 130.981C128.796 130.958 134.075 131.571 138.882 132.05C138.882 130.385 138.223 129.062 137.379 128.243C134.213 124.462 133.027 119.651 130.363 116.029C128.517 113.227 126.67 110.425 124.005 108.468C120.864 106.324 115.715 105.184 112.599 106.37C112.414 106.874 112.599 108.036 112.438 108.51C114.103 108.511 115.263 109.992 115.421 111.156C116.608 114.302 118.296 117.605 117.818 120.749C116.47 119.745 117.133 117.763 116.447 116.442C115.787 116.785 116.13 117.446 114.969 117.63C113.782 114.485 112.781 110.837 110.961 108.033C108.979 110.701 108.501 113.846 110.348 116.647C110.348 116.647 110.664 117.31 111.165 117.468C111.006 119.636 111.347 121.935 111.373 123.599C111.554 128.065 111.921 132.028 109.622 135.7C109.464 136.202 108.301 136.36 107.641 136.703C107.984 137.364 108.485 137.522 108.801 138.184C110.968 136.678 113.585 133.695 115.54 129.363C113.694 126.561 114.357 122.913 112.51 120.111C112.51 120.111 112.669 119.61 112.827 119.108C114.834 121.435 115.016 124.236 116.203 127.381C116.68 125.902 116.522 124.738 117.341 123.893C118.157 126.38 117.522 128.36 116.387 130.209C115.566 132.692 113.582 135.334 111.627 138C110.807 138.818 109.329 140.007 107.664 140.006C105.317 135.38 104.793 130.253 101.944 125.468C99.5105 132.944 94.4102 138.437 87.8065 141.788C80.5682 145.454 73.2817 144.18 66.3146 140.264C66.9481 138.257 67.6105 136.275 68.7455 134.426C73.0012 128.114 76.1227 121.986 81.2229 116.493C83.6794 113.985 86.8246 111.159 90.4415 110.132C92.2645 109.631 93.5859 108.972 94.9056 108.285C98.3668 106.121 102.171 104.618 106.79 105.573C104.785 103.273 103.148 103.271 99.5036 104.3C97.1791 104.642 94.3804 104.824 92.056 105.166C93.3775 104.507 95.2004 104.006 96.5201 103.319C92.3754 102.524 88.9151 103.022 84.4536 103.23C86.7746 106.192 89.2565 107.014 92.5567 106.99C92.583 108.654 91.5783 108.31 90.9184 108.653C87.7767 108.175 86.1147 106.535 83.9495 104.71C82.6307 103.731 82.13 101.906 80.4673 101.933C80.1242 101.272 80.1242 101.272 80.2826 100.77C85.8834 97.1021 92.0103 95.2292 98.7953 96.3445C102.439 96.9815 104.604 98.8069 107.11 101.265C108.271 102.746 107.107 104.57 108.455 105.574C112.733 104.231 117.195 104.023 121.843 105.004C114.167 93.1332 101.893 86.9133 89.2733 81.6715C89.0886 80.5093 90.4372 79.8482 89.5927 79.0293C88.588 78.685 88.2712 79.6886 87.453 80.5338C85.4717 81.5364 83.4904 82.5391 81.3515 82.3777C80.1902 82.5625 79.0271 82.72 77.7074 83.4066C77.2059 83.248 76.5443 83.5641 75.5686 83.2453C73.4025 83.0857 72.7435 81.7632 72.2447 79.966C71.5585 78.6453 72.8782 77.9587 74.1996 77.2994C76.181 76.2967 78.1623 75.294 80.6451 74.4499C77.4769 72.3075 64.0652 69.5749 56.9345 69.4378C53.4988 74.9315 53.3633 80.4017 55.2065 86.508C56.5754 92.4539 57.1261 99.2449 56.8322 105.217C56.8296 106.856 56.1961 108.863 55.692 110.343C55.8767 111.505 55.5328 112.511 55.7175 113.673C54.0793 115.336 53.9183 117.476 53.283 119.456C51.3272 123.789 50.1641 123.946 46.8131 120.669C45.6526 119.188 43.329 117.864 42.1685 116.383C37.6842 111.623 34.3322 106.653 33.6249 100.391C33.7833 99.8888 33.4674 99.2266 33.1243 98.5662C29.4784 99.5679 25.6768 99.4328 21.8751 99.2976C23.9656 91.1607 23.9462 82.8878 29.3631 76.3915C28.677 75.0707 27.5157 75.2555 26.6983 74.4348C26.5136 73.2726 27.8333 72.586 27.8359 70.9474C27.3344 70.7888 26.8329 70.6303 26.3297 70.4446C21.2066 70.9688 17.0645 68.5347 13.079 65.5715C9.56775 62.7687 6.24386 59.4895 2.60144 57.1867C2.75982 56.6849 2.25835 56.5264 2.75982 56.6849C6.22098 54.5211 8.86298 51.5093 11.8227 49.1869C17.8987 44.0131 24.6863 43.4899 31.6535 47.406C33.5027 48.5692 35.323 49.707 36.8003 50.1844C37.1188 49.208 37.937 48.3629 36.1167 47.2251C35.6424 47.0648 35.2993 46.4044 35.6161 45.4007C35.5458 33.827 38.8002 23.8667 48.3373 16.529C50.6625 14.5209 53.6196 13.8371 56.7886 14.3138C56.9461 15.4777 56.2863 15.821 55.783 15.6353C51.823 16.002 49.1819 17.3479 46.7236 19.8289C41.1219 25.163 39.1635 31.1341 37.8913 38.426C36.6216 44.0792 38.1217 49.5251 40.9705 54.3098C41.8142 56.7945 42.6562 59.252 45.4812 60.7341C42.951 54.9729 40.2878 49.6846 40.5816 43.7125C40.3741 37.5819 41.6455 31.9558 43.4455 26.4865C43.6302 27.6487 42.7831 28.4684 43.4692 29.7892C46.0858 26.8064 47.2234 23.319 50.3415 20.4948C48.4102 26.4641 44.1282 31.1117 41.6955 36.9225C43.9927 36.582 43.149 34.0973 45.4734 33.755C45.022 38.5631 41.56 42.3928 42.2427 47.0179C43.5651 44.6928 43.5413 41.3901 45.9978 38.882C45.8657 41.0478 45.2033 43.0297 45.0441 45.1974C46.0241 40.546 49.6173 36.2163 51.5749 31.911C52.4203 31.0641 52.7371 30.0605 52.7107 28.3964C52.6896 23.4552 55.6501 19.4669 57.9491 15.7948C58.1074 15.293 58.7691 14.9769 59.4289 14.6336C60.2463 15.4543 59.4281 16.2994 58.7682 16.6427C54.1695 22.294 53.5571 29.2425 54.0806 36.0353C54.6295 42.7992 56.1559 49.9091 57.2081 56.8586C57.5503 59.1848 56.8879 61.1667 56.067 63.6504C56.4101 64.3108 55.7503 64.6541 54.5872 64.8116C54.4051 62.0108 56.0459 58.7092 55.3606 55.7226C54.7024 52.7343 54.4931 49.9352 53.835 46.9469C51.3759 51.0937 49.4201 55.4262 50.4459 60.7117C50.6034 61.8757 50.2849 62.8521 51.1295 63.6711C51.9486 64.5189 52.7932 65.3379 53.6106 66.1586C54.6135 66.4756 56.0925 66.9802 56.0899 68.6189C57.5969 67.4559 55.5911 66.8217 56.4093 65.9766C60.5549 65.1063 64.6987 67.5676 69.0036 67.8885C73.1483 68.684 76.9763 70.4831 80.9355 71.7822C81.5971 71.4662 81.0956 71.3076 81.2812 70.804C78.0893 65.3589 77.2491 59.5698 78.0172 53.758C78.1782 51.6176 77.836 49.2914 77.3353 47.467C86.1009 49.2456 91.113 55.8284 91.1614 64.1267C91.0267 67.9312 91.3664 71.896 91.2317 75.7004C91.0725 77.8681 91.7315 79.1906 93.7374 79.8248C97.0639 81.4654 100.363 83.1078 103.53 85.223C110.34 89.6682 116.991 94.5881 122.163 100.696C122.664 100.855 122.98 101.517 123.825 102.336C123.617 96.2053 123.093 91.0783 125.209 86.2712C123.387 85.1062 122.041 84.1287 120.722 83.1495C118.741 82.4863 117.395 81.5089 116.393 79.526C115.391 77.5431 113.228 75.7449 111.247 75.0818C109.427 73.944 107.578 72.7808 105.757 71.643C107.286 77.1143 112.249 77.0647 115.232 79.7107C114.254 81.0305 113.251 79.0476 111.93 79.7069C115.097 83.5152 119.242 84.3107 123.544 86.2702C122.726 87.1153 121.748 86.7692 120.746 86.4521C112.958 83.3539 106.624 79.0962 103.779 71.007C102.935 68.5223 101.59 65.879 100.746 63.3943C101.065 62.4178 101.566 62.5764 102.569 62.8935C104.233 62.8945 106.371 63.0286 108.194 62.5278C110.992 62.3458 112.84 63.4819 114.503 65.1487C115.321 65.9693 116.165 66.7883 117.326 68.2693C118.305 65.2838 119.943 63.6208 122.241 61.6144C118.917 58.3352 116.755 54.8713 114.222 50.7487C112.106 55.5558 113.29 60.3395 116.456 64.1206C115.163 64.8054 114.82 64.145 114.477 63.4846C111.813 59.8621 110.97 55.7116 112.268 51.7496C114.86 43.7712 117.955 35.9785 122.871 29.3236C124.853 26.6551 124.829 23.3525 126.31 20.5255C126.971 20.2094 127.789 21.0301 128.449 20.6868C128.607 20.185 128.133 20.0246 128.291 19.5228C128.792 19.6814 129.268 19.8689 129.108 20.3435C130.11 22.3264 131.271 23.8075 133.12 24.9707C139.929 29.3887 143.938 35.6545 144.328 44.586C144.828 48.0761 145.856 51.723 145.694 55.5293C145.215 58.6462 148.385 59.15 149.2 61.6093C149.543 62.2697 150.047 62.4554 149.57 63.9337C146.744 64.1175 142.942 63.9823 140.486 66.4905C138.186 68.4696 135.702 70.9795 133.562 74.1498C138.71 73.5966 143.015 73.9174 146.339 77.1967C148.66 80.1588 149.187 83.6472 149.368 88.1138C142.241 84.6723 134.977 88.3668 127.029 87.409C126.393 91.0549 126.762 95.0451 127.101 99.0099C127.969 104.797 130.632 110.086 133.32 115.345C134.167 116.191 134.984 117.012 135.167 118.147C133.188 117.511 132.819 115.186 130.84 114.55C132.686 119.018 140.544 132.024 142.023 132.529C142.34 131.525 141.364 131.206 141.18 130.044C139.017 126.58 136.511 122.456 134.666 117.988C135.167 118.147 135.986 118.995 136.488 119.153C137.626 114 141.061 110.172 145.368 107.161C144.707 109.17 145.366 110.493 146.052 111.814C147.713 115.119 147.075 118.738 146.098 121.751C145.621 123.229 145.62 124.895 145.143 126.373C144.826 127.377 144.482 128.382 142.687 128.881C145.278 122.569 146.735 116.439 144.39 110.174C139.106 112.839 136.989 119.312 139.178 124.44C140.473 122.116 139.973 120.292 140.633 118.283C141.77 116.461 141.43 114.162 143.728 112.156C142.907 114.64 142.272 116.62 141.611 118.629C142.931 117.942 143.435 116.462 144.569 116.279C144.595 117.943 143.775 118.761 142.957 119.606C141.319 121.269 140.155 123.093 140.998 125.577C141.339 127.876 141.708 130.201 143.343 131.842C146.194 136.654 148.381 141.755 151.23 146.54C151.704 146.7 151.889 147.862 152.891 148.179C153.002 141.072 158.26 136.743 162.54 132.069C163.387 132.915 162.567 133.733 161.907 134.076C161.747 134.551 161.561 135.054 160.901 135.398C158.286 138.407 157.332 143.03 158.835 146.837C159.178 147.498 159.178 147.498 160.312 147.315C160.974 145.333 163.272 143.326 162.772 141.502C162.088 138.543 162.722 136.535 161.907 134.076C163.886 134.712 162.089 136.877 163.408 137.856C165.204 135.691 164.362 133.234 165.023 131.225C164.68 130.564 163.862 131.409 163.044 130.589C163.361 129.585 163.52 129.083 164.498 127.763C166.529 131.727 169.352 134.848 169.691 138.813C170.058 142.776 169.424 146.449 166.12 149.777C167.625 150.253 168.445 149.435 169.606 149.25C170.927 148.59 171.587 148.247 172.246 149.57C169.262 150.255 166.145 151.414 162.844 153.103C163.001 154.267 164.004 154.584 165.166 154.399C168.307 154.878 171.449 155.356 174.594 154.196C178.053 152.005 182.675 151.322 186.979 151.643C183.361 152.643 180.033 152.668 176.891 153.855C175.755 154.011 175.095 154.354 174.275 155.172C177.574 156.815 180.376 153.328 183.202 154.81C183.357 155.947 182.038 154.968 182.223 156.13C183.199 156.449 184.202 156.766 185.022 155.948C186.342 155.262 187.663 154.602 189.328 154.603C189.987 154.26 191.123 154.104 191.466 154.765C190.488 156.084 188.508 155.421 186.844 157.113C193.313 157.566 198.938 157.201 204.561 158.501C203.718 156.016 202.054 154.349 200.735 153.37C198.73 151.07 196.089 152.416 193.607 151.594C193.105 151.436 192.446 151.779 192.103 151.119C196.063 149.086 198.888 150.568 201.395 153.027C203.059 154.694 204.562 156.835 206.224 158.475C205.562 160.457 204.243 159.477 203.24 159.16C199.782 158.02 196.453 158.018 192.15 157.724C195.977 161.189 200.122 161.984 203.606 164.789C200.146 165.287 196.979 163.172 194.154 161.69C195.156 163.673 196.819 163.646 197.32 165.471C197.161 165.973 196.501 166.316 196.501 166.316C197.346 167.135 197.662 167.797 198.005 168.457C197.002 168.14 196.025 167.794 195.18 166.975C192.041 164.858 189.031 162.214 185.892 160.097C184.887 159.753 183.7 158.273 182.22 159.435C182.748 161.257 185.388 161.577 185.57 164.378C183.407 162.58 181.584 161.415 179.764 160.277C179.078 158.956 178.261 158.135 176.253 157.474C177.442 158.981 178.26 159.801 179.764 160.277C180.265 162.101 182.905 162.421 182.771 164.56C178.943 162.761 176.279 159.138 172.451 157.339C174.455 161.305 177.147 164.926 180.789 167.228C182.952 169.026 185.778 170.508 187.941 172.307C191.244 170.645 195.045 170.78 198.005 168.457C199.008 168.774 199.351 169.435 200.487 169.279C201.648 169.094 202.97 168.435 204.79 169.573C206.109 170.552 208.275 170.712 210.758 169.867C209.254 167.726 206.271 166.746 204.609 165.106C206.906 164.766 208.093 167.911 210.072 166.881C209.23 164.423 208.387 161.939 207.226 160.458C206.883 159.797 206.54 159.137 206.224 158.475ZM145.556 140.273C147.217 143.578 148.905 146.882 151.068 150.346C151.226 149.844 151.226 149.844 151.226 149.844C150.068 146.724 148.723 144.081 147.378 141.438C147.035 140.778 146.877 139.614 145.556 140.273C146.851 137.95 143.869 136.996 143.369 135.172C143.869 136.996 144.555 138.317 145.556 140.273ZM224.237 266.806C224.898 266.49 224.554 265.802 224.079 265.642C223.551 263.819 222.391 262.338 221.231 260.857C220.228 258.874 218.566 257.235 217.406 255.754C217.406 255.754 216.905 255.595 216.719 256.099C217.405 257.419 218.064 258.742 218.749 260.035C220.094 262.679 222.733 264.664 224.237 266.806C225.899 268.445 226.928 270.427 228.75 271.592C227.562 270.112 226.719 267.628 224.237 266.806ZM212.027 245.208C208.725 245.204 208.065 245.547 207.746 248.189C207.587 250.357 208.114 252.18 208.455 254.479C209.75 252.155 209.753 250.517 211.231 249.328C211.549 248.352 210.572 248.006 210.229 247.345C210.733 245.865 211.893 247.346 212.052 246.845C212.21 246.343 212.368 245.841 212.027 245.208C213.188 245.023 213.531 245.683 214.349 246.504C216.855 248.963 219.68 250.445 223.64 250.078C222.322 249.099 220.975 248.121 219.498 247.644C217.175 246.32 214.35 244.838 212.688 243.199C211.843 242.38 211.686 241.216 210.524 241.4C209.361 241.558 208.543 242.403 208.54 244.042C209.888 245.046 211.368 243.885 212.027 245.208ZM148.342 82.8283C147.841 82.6697 148.026 82.1661 147.683 81.5057C145.494 76.3778 139.185 73.7569 133.586 75.7866C132.425 75.9714 131.605 76.7893 131.604 78.4551C136.25 79.4091 141.532 78.3831 145.86 82.0066C146.362 82.1651 147.365 82.4822 148.342 82.8283C147.364 84.148 146.045 83.1688 144.541 82.6931C144.724 83.8282 146.203 84.3327 145.726 85.811C146.702 86.1299 147.548 86.976 148.366 86.1309C148.683 85.1273 148.026 83.8319 148.342 82.8283ZM85.826 141.125C84.8231 140.808 85.167 139.803 85.8286 139.487C88.4434 136.477 88.4197 133.174 89.5573 129.687C89.5581 128.021 89.5608 126.382 88.8746 125.061C89.2151 127.36 87.9199 129.684 88.2622 132.01C87.9182 133.015 88.103 134.178 87.4413 134.494C85.4609 133.831 85.8031 136.157 84.4834 136.843C83.4787 136.499 84.3259 135.679 83.4813 134.86C82.5029 136.18 83.0036 138.005 82.1836 138.823C81.1806 138.505 82.159 137.186 81.1832 136.867C80.5208 138.849 79.384 140.67 77.7186 142.335C80.8604 142.813 83.6863 142.63 85.826 141.125C89.3135 140.625 91.2685 137.959 94.2264 135.609C96.5534 133.628 96.8438 130.961 96.6617 128.16C96.6626 126.494 96.638 124.857 96.7972 122.689C96.7972 122.689 96.7972 122.689 96.3229 122.529C95.8214 122.371 95.32 122.212 95.1616 122.714C93.9959 124.51 96.6617 128.16 93.2014 128.658C92.2248 130.005 92.8838 131.327 92.0638 132.145C91.0609 131.828 91.3776 130.824 90.4019 130.506C90.0817 134.814 87.9683 137.982 85.826 141.125ZM158.974 171.65C158.681 175.957 155.036 178.651 153.264 182.453C154.425 183.934 154.266 186.102 156.271 188.402C159.231 184.414 161.029 180.583 161.48 175.775C162.142 173.793 160.982 172.312 158.974 171.65C159.135 171.176 159.32 170.672 160.454 170.489C161.8 171.467 162.142 173.793 163.62 174.27C162.619 172.315 161.141 170.144 158.951 168.348C159.135 169.51 159.32 170.672 158.974 171.65ZM222.957 247.119C224.46 249.26 226.281 250.398 228.948 250.716C232.248 250.693 235.894 249.691 239.854 249.324C237.849 247.024 233.045 244.906 231.064 245.909C229.245 243.105 225.414 242.945 223.093 239.983C223.913 239.165 224.572 240.487 225.418 239.64C223.57 238.504 221.747 239.005 220.294 240.164C222.432 241.992 226.261 242.125 228.081 244.929C227.421 245.272 227.263 245.774 226.944 246.75C225.941 246.433 225.124 245.612 224.464 245.956C224.277 246.432 224.804 248.255 222.957 247.119C220.132 245.637 217.334 244.153 214.669 242.196C214.827 243.36 214.827 243.36 215.17 244.02C217.65 244.815 219.499 245.978 221.319 247.116C222.324 247.46 222.324 247.46 222.957 247.119ZM167.736 141.48C167.553 138.652 168.532 135.666 165.365 133.551C164.568 139.337 162.77 144.834 159.36 150.298C159.494 148.16 157.671 146.995 157.487 145.832C157.489 144.194 157.49 142.528 157.466 140.891C153.686 144.032 153.073 152.646 156.398 155.952C156.558 153.785 157.035 152.306 158.514 151.145C159.016 151.304 158.196 152.122 159.201 152.466C159.702 152.625 160.678 152.943 161.022 151.938C161.34 150.961 160.019 151.621 160.496 150.143C162.979 147.633 168.604 147.267 167.736 141.48ZM246.3 246.475C244.452 245.339 242.63 244.174 240.81 243.036C237.483 241.395 234.344 239.278 229.378 239.274C233.022 241.603 237.008 242.901 239.831 246.022C236.689 245.543 234.869 242.74 231.7 242.263C236.055 247.55 242.337 248.48 247.987 251.444C247.802 250.282 248.146 249.277 247.803 248.616C249.784 249.279 249.623 251.42 250.309 252.741C251.765 248.277 250.554 241.829 247.573 237.517C245.227 232.918 241.558 230.617 236.118 232.145C231.97 232.988 228.193 234.49 224.574 237.156C231.201 238.773 237.326 240.231 243.929 238.546C242.792 240.368 240.628 238.569 239.966 240.551C240.467 240.71 241.472 241.054 241.285 241.53C241.654 243.855 243.635 244.518 245.139 244.994C245.455 245.656 245.798 246.316 246.3 246.475ZM192.541 279.571C192.224 280.575 192.066 281.077 192.249 282.212C193.093 284.696 193.249 287.526 193.617 289.823C193.774 290.987 194.461 292.308 193.641 293.126C192.795 293.973 192.98 295.135 193.323 295.795C193.821 299.258 194.506 302.245 195.19 305.204C195.532 307.53 195.054 310.675 194.078 312.022C194.19 303.249 191.819 295.32 190.107 287.048C188.994 292.172 188.014 296.823 188.064 301.79C188.087 306.758 188.612 311.885 187.657 316.508C187.339 319.177 186.017 321.502 186.199 324.303C188.181 323.301 190.162 322.298 191.8 320.635C195.261 318.471 196.9 315.142 196.719 310.676C196.854 306.871 196.512 302.879 196.145 298.916C195.436 292.627 194.915 285.861 192.541 279.571C192.384 278.407 193.204 277.589 191.883 276.583C191.882 278.249 190.402 279.41 192.541 279.571ZM203.226 294.087C204.07 296.571 203.936 298.71 203.274 300.692C202.567 292.764 200.856 284.492 198.986 276.722C198.485 276.563 198.327 277.065 198.327 277.065C199.037 281.688 200.194 286.474 201.407 291.283C199.243 289.485 199.402 287.317 198.373 285.336C198.057 284.674 197.713 285.679 196.896 284.859C196.553 284.198 195.892 282.849 195.366 281.053C195.209 279.889 195.024 278.727 194.206 277.906C196.917 289.8 198.308 302.38 197.903 315.459C200.204 311.814 203.003 309.967 205.119 306.825C206.282 305.002 206.916 302.995 207.077 300.854C207.371 294.882 206.662 288.593 205.32 282.645C204.819 280.821 204.793 279.157 203.131 277.517C203.497 283.146 205.501 288.778 204.731 294.562C204.229 294.404 203.728 294.245 203.226 294.087C205.207 293.084 203.385 291.919 203.202 290.784C203.385 291.919 203.069 292.923 203.226 294.087ZM170.459 291.629C168.636 292.13 167.314 292.79 167.182 294.955C168.475 294.271 169.982 293.108 169.957 291.471C172.28 291.101 172.599 288.459 175.24 288.779C171.936 292.107 168.316 294.772 166.862 299.264C170.006 296.41 172.464 293.929 175.765 292.24C174.603 294.091 172.461 295.568 170.825 297.258C168.841 299.899 165.54 301.589 166.566 305.208C167.73 305.051 168.548 304.206 168.708 303.731C171.35 300.719 174.811 298.556 178.27 296.365C181.072 294.544 183.37 292.538 186.169 290.69C187.649 289.529 188.126 288.05 188.127 286.385C187.626 286.226 186.966 286.569 186.462 286.384C186.307 285.247 186.967 284.903 187.787 284.086C187.945 283.584 188.763 282.739 188.42 282.078C184.007 287.226 184.007 287.226 182.344 287.252C183.666 284.927 186.28 283.583 187.26 280.597C184.302 282.947 181.685 285.93 178.541 287.09C181.474 283.103 185.622 280.594 188.24 275.946C180.316 279.984 172.892 284.153 167.317 291.151C169.14 290.65 170.275 288.801 171.939 288.802C172.097 289.966 170.46 289.964 170.459 291.629ZM238.159 217.376C238.001 217.877 237.842 218.379 237.842 218.379C243.809 220.34 249.934 221.798 254.95 225.077C249.457 223.277 243.994 221.502 238.026 221.207C245.497 223.643 253.285 226.742 261.257 229.336C260.412 230.183 259.909 229.997 258.933 229.679C253.469 227.904 247.661 225.442 241.852 222.979C239.029 221.524 236.389 221.204 233.405 220.224C232.244 220.409 230.896 219.404 229.258 221.067C233.906 222.049 238.209 222.342 242.195 225.305C237.891 225.012 234.09 224.877 230.286 224.714C234.431 225.51 237.889 226.65 241.215 228.291C244.384 230.433 248.184 232.234 250.374 235.697C258.272 231.688 266.882 228.971 274.965 226.124C265.856 223.685 257.383 217.6 247.271 216.51C249.936 218.467 253.396 217.969 255.401 220.269C253.578 220.77 251.916 219.13 250.595 219.789C252.259 221.456 255.085 221.272 256.747 222.912L256.588 223.414C250.594 221.455 244.153 219.334 238.159 217.376ZM142.004 237.144C144.99 236.486 147.445 235.644 149.767 236.94C152.75 237.92 155.074 239.244 157.897 240.699C161.224 242.339 164.709 243.478 167.85 243.957C167.35 242.132 166.348 240.149 165.822 238.354C164.343 236.184 162.84 234.042 162.472 231.745C161.972 229.921 161.47 229.762 159.833 229.759C158.671 229.944 157.667 229.6 156.505 229.784C152.069 231.629 147.261 232.816 143.14 235.323C139.679 237.487 136.88 239.335 134.263 242.317C144.693 244.097 155.148 247.513 166.054 246.121C165.368 244.801 164.392 244.482 163.889 244.296C161.91 243.66 159.902 242.999 157.924 242.363C153.278 239.743 148.29 236.463 142.004 237.144ZM186.192 295.658C182.916 298.984 180.96 303.317 177.34 305.983C179.772 301.838 183.076 298.51 185.19 293.675C179.088 297.185 172.987 300.722 168.073 305.711C166.593 306.872 166.091 308.38 166.617 310.175C166.615 313.507 166.797 316.308 166.821 319.61C166.504 320.614 166.16 321.619 166.846 322.94C170.282 317.446 176.067 314.94 180.348 310.265C175.882 315.444 170.281 319.112 166.184 324.922C166.527 325.582 165.709 326.427 166.526 327.248C172.837 328.203 183.305 309.582 184.923 301.312C180.984 306.62 177.205 311.453 171.763 314.619C176.836 309.128 182.596 303.292 186.192 295.658ZM158.04 263.873C158.702 261.892 160.182 260.73 161.159 259.383C162.984 257.244 163.301 256.24 161.136 254.415C161.613 252.937 163.937 252.594 164.414 251.116C161.613 251.271 159.79 253.437 158.151 255.1C154.874 260.092 151.095 264.926 146.813 269.573C145.521 270.258 144.041 271.419 143.537 272.899C148.528 274.541 152.989 275.999 157.452 275.818C160.569 271.3 165.352 268.477 167.811 264.33C170.93 259.84 172.885 255.508 176.347 251.678C170.403 256.352 166.648 262.822 160.388 266.834C159.886 266.675 159.886 266.675 159.543 266.015C162.82 262.689 166.282 258.859 169.585 255.531C165.121 257.378 162.504 262.027 158.04 263.873ZM186.293 227.957C187.613 227.27 188.432 228.118 189.435 228.435C192.601 230.551 195.082 233.038 197.589 235.497C200.571 238.143 203.394 239.598 207.039 240.262C205.376 238.595 205.035 236.296 203.875 234.815C203.53 234.127 203.189 233.494 202.687 233.336C197.223 229.868 191.574 226.931 184.947 226.979C180.168 226.498 175.36 227.685 170.58 228.869C175.225 233.155 183.197 237.415 185.521 237.073C184.018 234.932 181.852 233.106 180.349 230.965C183.517 233.107 186.157 235.093 187.843 238.369C192.145 240.329 197.453 240.967 202.418 240.944C196.425 237.32 192.257 231.556 186.293 227.957ZM132.168 63.2082C137.477 62.1804 142.467 65.4878 147.406 62.1356C145.744 60.496 141.916 58.6968 140.093 59.1976C141.439 60.1751 143.235 59.676 144.264 61.6572C143.763 61.4986 143.763 61.4986 143.763 61.4986C143.26 61.3129 142.76 61.1815 142.76 61.1815C137.955 59.0363 133.995 59.403 130.029 63.0469C129.369 63.3902 129.053 64.3938 128.233 65.2118C123.609 69.2262 121.335 74.5351 122.546 80.9829C122.36 81.4865 121.543 80.6658 121.199 81.6712C125.367 85.7693 133.313 88.3658 137.276 84.6947C132.63 83.7406 128.988 81.4379 124.523 83.2846C123.521 81.3017 125.186 81.3027 125.846 80.9594C128.301 80.1171 129.149 79.2974 129.782 77.2901C128.621 77.4748 128.146 78.9803 127.141 78.636C127.618 77.1577 129.123 75.9676 130.445 75.3082C131.924 74.147 133.061 72.3254 133.722 70.3163C130.078 71.3452 126.619 71.8704 123.632 74.1946C124.796 72.3713 125.933 70.5497 128.256 70.1802C130.079 69.6794 132.534 68.837 134.7 68.9966C137.183 68.1525 138.161 66.8327 138.822 64.8237C136.975 63.6876 134.519 64.53 132.168 63.2082ZM7.22308 56.504C12.3444 55.9525 17.4938 57.0923 22.4586 57.0699C20.296 53.6059 17.6293 51.622 15.9411 48.3184C11.5059 50.1906 9.36277 54.9995 4.42438 56.6859C9.06973 59.3058 11.7338 62.9283 15.3762 65.231C17.1991 64.7302 18.3613 62.8797 19.8411 61.7185C21.6369 61.2194 23.1439 60.0564 25.4394 59.6887C22.3231 62.5402 19.1787 63.7004 17.2237 66.3671C19.044 67.5048 20.8661 68.6698 23.1905 68.3275C24.8296 64.9987 28.4491 62.333 31.9085 60.142C23.619 58.551 15.6709 57.5931 7.22308 56.504ZM142.06 272.422C148.136 267.248 152.577 260.433 157.492 253.778C155.511 254.781 154.534 256.128 152.553 257.13C151.548 258.452 150.068 259.613 147.772 259.981C149.411 258.318 151.047 256.627 152.025 255.308C149.253 257.154 146.266 259.478 143.124 260.665C145.264 257.495 148.91 256.493 151.209 252.821C147.063 253.691 143.919 254.852 141.938 255.854C139.346 262.167 135.067 265.176 130.101 268.53C134.245 269.325 137.913 271.599 142.06 272.422ZM187.691 269.182C187.825 265.378 192.129 264.005 191.604 260.544C183.68 262.889 171.817 272.235 171.208 277.545C174.642 273.717 178.606 270.046 183.388 267.223C180.586 270.709 176.465 273.216 173.505 277.204C177.309 275.701 178.948 272.372 182.248 272.349C181.588 272.692 181.27 273.668 180.61 274.012C176.331 277.021 173.185 279.847 169.909 283.173C168.431 284.361 168.112 285.337 168.455 287.664C168.613 287.162 169.114 287.32 169.273 286.818C174.876 281.512 181.797 277.157 188.875 273.966C191.358 273.122 190.857 271.297 192.152 268.974C190.329 269.475 189.696 271.482 188.031 271.481C189.01 268.495 192.155 267.335 192.791 263.689C190.649 265.167 190.332 267.836 187.691 269.182ZM128.001 57.4443C128.821 56.6264 129.164 55.6209 128.32 54.802C127.318 52.8191 126.474 50.3344 125.63 47.8497C123.969 44.5443 123.101 40.4227 121.784 36.1118C122.917 37.5947 123.102 38.7569 123.761 40.0794C124.262 40.238 124.924 39.9218 125.425 40.0804C125.769 40.7408 125.423 41.719 126.771 42.7237C126.93 40.556 124.925 38.256 126.062 36.4345C127.408 37.4119 126.903 38.892 128.251 39.8967C128.568 38.893 129.228 38.5497 129.89 38.2336C128.861 34.5867 127.703 31.467 125.855 28.638C120.915 33.6561 118.295 39.9433 115.862 45.7541C115.545 46.7577 114.725 47.5756 115.041 48.2378C116.887 52.7054 118.918 56.6694 121.899 59.2883C122.744 60.1072 123.22 60.2947 124.038 59.4496C120.9 55.6668 119.054 51.1991 117.87 46.4154C121.035 50.1965 122.219 54.9802 125.703 57.7848C124.173 53.9793 121.668 49.855 120.167 46.0749C120.827 45.7316 120.827 45.7316 121.487 45.3884C123.491 49.3541 125.495 53.3199 128.001 57.4443ZM158.29 247.992C151.979 247.037 145.194 245.921 139.069 244.463C134.421 243.481 130.962 244.007 128.503 248.153C127.208 250.477 125.068 251.981 123.587 254.808C130.029 255.263 136.316 254.581 142.442 254.374C142.257 253.212 141.597 253.555 141.941 252.55C143.737 252.051 145.56 251.55 147.541 250.547C143.738 250.385 139.778 250.752 135.95 248.953C143.553 249.223 150.842 248.858 158.29 247.992ZM68.2669 139.236C70.1162 140.399 71.9365 141.537 73.4427 142.04C75.5798 142.174 76.7429 142.016 77.8796 140.195C79.2019 137.869 80.1794 134.857 82.3208 133.379C82.9807 133.036 82.796 131.874 81.9786 131.053C80.3132 132.718 78.1735 134.223 76.5353 135.886C73.7357 137.733 71.7544 138.736 70.2483 138.233C73.0496 136.413 76.3523 134.751 78.3345 132.082C77.4882 131.236 76.1685 131.923 74.6895 131.418C84.5926 129.709 87.3684 124.559 90.1714 119.406C88.8517 120.093 87.5302 120.752 85.7073 121.253C84.0717 121.278 82.723 121.939 81.0874 121.963C78.4471 121.643 76.7817 123.308 75.645 125.13C74.8241 127.613 74.0305 130.095 72.3651 131.76C70.5685 133.925 68.7447 136.092 68.2669 139.236ZM131.799 25.6301C134.169 35.2247 132.076 45.0003 130.987 55.1201C132.122 54.9371 132.465 53.9317 132.624 53.4299C134.924 51.4508 136.72 49.2859 139.046 47.2778C141.502 44.7697 142.8 40.8077 142.114 37.8211C140.614 32.3752 136.946 28.4085 131.799 25.6301ZM212.348 239.234C216.308 238.867 220.27 238.528 223.069 236.68C227.19 234.173 230.995 232.669 235.271 231.299C236.435 231.141 238.599 231.274 239.92 230.614C237.571 229.32 235.937 227.678 233.77 227.519C228.463 226.881 223.024 226.743 218.401 229.092C216.42 230.094 213.436 230.78 212.958 233.924C215.282 233.582 216.076 231.1 218.902 230.916C216.444 233.397 212.641 234.928 212.348 239.234ZM159.273 275.29C166.245 275.929 171.342 273.74 174.435 267.586C176.895 261.774 180.834 256.466 187.595 254.278C187.595 254.278 188.255 253.935 187.939 253.273C183.317 253.956 179.515 255.486 174.392 256.011C172.249 259.154 170.452 262.984 167.835 265.967C165.035 269.481 161.574 271.645 159.273 275.29ZM170.549 198.587C171.71 198.403 172.212 198.561 173.216 198.906C175.538 200.202 177.862 201.525 179.841 202.161C182.007 202.321 183.325 203.3 184.327 205.283C186.173 209.751 189.682 214.192 192.531 218.977C194.034 221.118 195.854 223.922 198.36 226.38C197.993 222.417 180.453 195.213 178.657 195.712C178.156 195.553 178.313 196.717 177.177 196.873C174.67 196.08 171.528 195.602 169.045 196.446C166.906 197.951 163.764 197.472 162.123 200.774C165.766 201.411 169.914 200.568 173.214 200.544C172.396 199.723 171.394 199.406 170.549 198.587ZM79.7668 120.957C84.7044 120.936 90.9914 118.589 94.7693 115.421C97.9145 112.595 101.532 109.902 105.495 107.897C105.653 107.395 106.631 107.741 106.315 107.079C98.5252 105.619 81.1966 114.829 79.7668 120.957ZM192.01 245.799C186.412 247.829 181.104 247.191 175.48 245.891C176.3 245.073 175.957 244.413 175.799 243.249C180.922 242.724 186.203 243.364 191.169 241.676C187.365 241.514 183.378 241.882 179.419 240.583C175.776 239.946 172.131 239.282 168.304 237.51C171.174 247.236 187.094 252.454 193.381 250.106C192.194 246.961 196.655 248.419 197.318 246.437C194.993 246.779 193.17 247.28 192.01 245.799ZM79.3132 49.7688C78.545 55.5806 78.7255 61.713 80.7542 67.3156C81.2548 69.14 82.2569 71.1229 84.2646 71.7843C80.2554 65.5185 81.8689 58.8598 80.6584 52.4121C81.8206 53.9203 81.3437 55.3986 82.5042 56.8797C83.4826 55.5599 81.8206 53.9203 82.9828 52.0698C84.1424 55.2167 84.3263 58.0447 83.3725 61.0012C81.5751 64.8319 84.3975 67.9526 85.9002 71.7598C85.5606 67.795 88.017 65.2869 87.9933 61.9843C88.1543 59.8438 88.9733 57.3329 87.4698 55.1915C85.4647 52.8915 82.7981 50.9076 79.3132 49.7688ZM187.086 303.11C185.765 303.769 186.425 305.119 185.948 306.597C183.647 311.908 181.373 317.217 178.095 322.209C176.272 324.375 176.612 326.674 175.319 329.025C178.461 327.837 180.443 326.835 182.898 325.992C183.585 325.647 184.218 325.306 184.403 324.802C186.68 317.855 187.451 310.404 187.086 303.11ZM50.8154 98.2899C50.657 98.7917 50.657 98.7917 49.9954 99.1078C48.4944 95.3277 46.3318 91.8638 44.3005 87.8997C44.3005 87.8997 44.1421 88.4016 43.6406 88.243C44.6427 90.2259 45.672 92.207 46.1726 94.0314C46.8299 95.3267 47.0146 96.4889 44.8757 96.3276C47.6973 101.114 50.8646 104.922 54.3732 109.364C55.5108 105.876 54.8272 102.917 55.3032 99.7457C55.4616 99.2439 54.9601 99.0854 54.9601 99.0854C51.637 94.1403 47.627 89.5404 45.5964 83.9105C46.148 89.0358 49.6312 93.5061 50.8154 98.2899ZM49.1375 120.327C49.7973 119.983 49.9557 119.482 49.6398 118.819C47.611 113.217 43.0977 108.431 42.4158 102.14C41.2782 105.628 41.8052 109.116 42.8047 112.737C41.8017 112.42 41.4858 111.758 41.3011 110.596C40.2998 106.947 40.4345 103.143 40.7275 98.8365C41.0732 97.8583 41.39 96.8546 40.0711 95.8754C40.0685 97.514 39.5934 99.0195 39.5926 100.685C39.5899 102.324 38.2974 103.009 36.7904 104.172C35.7883 102.189 36.9522 100.365 37.0843 98.1995C35.103 99.2022 34.7862 100.206 35.4452 101.528C36.9962 110.275 42.4871 115.407 49.1375 120.327ZM129.899 178.128C130.693 173.981 134.471 170.813 134.791 166.505C131.514 171.497 126.916 175.482 122.636 180.157C126.938 182.117 128.443 182.592 131.243 182.438C131.719 179.266 135.708 178.925 136.344 175.279C135.841 175.093 135.181 175.437 134.996 174.274C136.98 171.633 136.955 168.303 138.939 165.662C139.914 165.981 139.598 166.985 139.941 167.645C140.416 166.139 140.733 165.136 140.074 163.813C138.411 163.839 137.591 164.657 136.93 166.666C136.294 170.312 133.677 173.295 132.038 176.624C131.218 177.442 131.06 177.944 129.899 178.128ZM32.8869 58.8222C32.3862 56.9979 31.8848 56.8393 31.0674 56.0186C29.0623 53.7187 27.0573 51.4187 25.7121 48.7754C24.3669 46.1321 22.8897 45.6547 19.9037 46.3131C19.2438 46.6564 18.4238 47.4743 17.2625 47.659C18.95 52.6285 22.6178 54.9023 25.6004 57.5483C27.4207 58.6861 30.2465 58.5024 32.8869 58.8222ZM132.148 56.6012C134.445 56.2607 136.609 56.393 138.274 56.394C140.413 56.5553 142.076 56.5292 144.056 57.1923C144.191 53.3878 143.299 42.6048 142.641 41.3095L142.138 41.1238C141.982 41.6528 142.483 41.8113 142.323 42.286C141.344 45.2715 140.364 48.2571 137.565 50.1048C135.425 51.6093 134.103 53.9345 132.148 56.6012ZM83.1076 102.253C91.0566 101.545 98.8182 101.313 106.951 103.433C102.283 95.8447 87.0473 95.2788 83.1076 102.253ZM118.352 265.771C122.153 265.906 126.14 267.204 129.783 267.841C132.716 263.854 136.521 260.685 139.798 257.359C132.878 260.048 125.114 261.918 118.352 265.771ZM126.799 155.638C124.314 158.12 121.014 158.144 120.219 162.291C125.659 160.764 130.806 163.542 136.43 163.176C134.768 161.537 132.602 161.377 131.602 159.421C135.061 158.896 137.752 162.517 140.894 161.33C140.05 160.511 139.047 160.194 138.23 159.373C136.223 157.046 133.584 156.753 130.758 156.937C129.279 156.432 128.118 156.617 126.799 155.638ZM52.6042 33.8921C49.4589 36.7181 46.3637 44.5108 46.0707 48.8171C46.5722 48.9756 47.232 48.6324 47.5479 49.2945C47.0728 50.8 46.7561 51.8036 47.4133 53.099C53.9925 48.1109 54.1288 40.9748 52.6042 33.8921ZM115.052 265.795C121.972 261.44 130.052 260.232 137.476 256.062C132.353 256.587 127.547 256.107 122.742 255.655L122.108 255.969C119.809 259.641 116.849 261.964 115.052 265.795ZM164.454 229.076C164.295 231.244 164.821 233.039 166.485 234.706C170.943 237.802 175.591 238.784 181.559 237.413C175.41 234.317 171.239 230.192 164.454 229.076ZM108.303 134.721C110.918 131.711 111.188 122.437 109.21 120.135C108.389 124.284 108.389 124.284 106.434 125.285C107.889 120.794 108.843 116.172 107.156 111.202C105.016 114.373 103.905 117.858 104.245 121.823C105.086 125.946 107.591 130.071 108.303 134.721ZM151.961 157.797C144.81 152.719 137.019 152.925 129.095 155.27C134.402 155.908 139.365 157.524 144.328 159.167C146.838 159.987 149.979 160.466 151.961 157.797ZM36.2432 94.0762C42.8215 87.3951 41.4288 78.1466 44.6824 69.8521C42.8866 70.3511 42.5427 71.3566 41.8829 71.6998C41.5643 72.6763 43.2289 72.6773 43.0705 73.1791C37.3104 79.0151 36.5125 86.4673 36.2432 94.0762ZM54.778 96.2845C54.4129 88.9899 52.041 82.7269 49.6946 76.4349C51.3591 76.436 50.8822 77.9142 52.5196 77.917C51.5201 74.2955 53.9766 71.7874 55.4572 68.9604C51.9715 69.4874 50.9931 70.8071 51.1752 73.6079C48.5367 73.3153 47.5311 74.6368 48.3749 77.1215C49.061 78.4423 49.5599 80.2394 50.2207 81.5891C50.2452 83.226 50.9043 84.5485 49.7675 86.3701C49.6091 86.8719 49.2652 87.8773 49.6083 88.5377C50.9535 91.181 52.9585 93.481 54.778 96.2845ZM51.4355 118.32C51.7795 117.315 52.5994 116.497 52.9162 115.493C53.3931 114.015 54.3969 112.666 53.2364 111.185C50.8891 106.559 47.7236 102.778 44.5309 98.9988C45.2145 101.958 45.7415 105.447 47.7465 107.747C47.904 108.911 46.425 108.406 46.2667 108.908C47.4263 112.055 49.273 114.856 51.4355 118.32ZM129.853 168.192C122.88 169.218 118.627 173.891 113.843 178.38C116.165 179.677 119.151 179.018 121.633 179.84C123.457 177.673 125.755 175.667 127.71 173C125.914 173.5 125.253 175.509 123.273 174.845C124.753 172.018 128.372 171.019 129.853 168.192ZM26.1087 86.3518C31.3911 83.6599 36.9911 81.6574 38.1049 74.8674C28.8617 76.2329 27.5385 80.2239 26.1087 86.3518ZM143.057 164.793C141.237 163.656 141.236 165.322 140.917 166.298C140.441 169.469 138.8 172.771 137.32 175.598C136.025 177.921 134.228 180.086 132.404 182.253C135.889 183.392 138.346 180.883 141.673 180.858C140.146 175.414 140.281 169.944 143.057 164.793ZM74.5401 79.5983C74.6977 80.7623 75.5422 81.5812 76.2038 81.2651C80.0055 81.4003 84.3086 81.694 87.6122 78.3661C86.4517 76.8851 87.2454 74.4031 84.7634 73.5814L84.6051 74.0832C84.2611 75.0887 85.4225 74.9039 85.1057 75.9076C76.84 77.6192 76.84 77.6192 74.5401 79.5983ZM114.113 169.106C114.113 169.106 113.955 169.608 114.456 169.766C118.102 168.764 122.089 170.062 126.024 168.058C124.705 167.079 122.724 168.082 121.22 165.94C123.86 164.567 127.001 166.711 129.483 165.867C127.663 164.729 126.184 164.225 124.838 163.247C122.358 162.453 120.034 162.795 118.052 163.798C116.414 165.461 115.277 167.282 114.113 169.106ZM195.774 264.67C198.891 260.152 202.012 255.689 203.943 249.72C200.483 250.218 198.501 252.887 198.869 255.184C195.409 257.375 194.272 260.862 195.774 264.67ZM194.225 252.591C189.098 256.42 183.656 259.586 179.719 264.922C183.84 262.414 187.801 260.382 192.106 259.037C194.088 258.034 194.723 256.054 194.225 252.591ZM25.836 97.2651C28.8194 98.2454 30.6423 97.7446 32.6236 96.7419C33.785 96.5572 34.4466 96.2411 34.7633 95.2374C34.7396 91.9348 34.7159 88.6321 35.1919 85.4608C32.5762 90.1366 29.774 93.623 25.836 97.2651ZM133.493 59.2444C128.027 59.1083 123.085 64.0992 121.47 70.7306C120.467 70.4135 119.805 70.7296 119.33 72.2351C119.327 73.8737 118.032 76.1971 120.857 77.6792C121.471 69.0648 127.045 63.7325 133.493 59.2444ZM168.561 170.945C168.221 166.98 160.065 159.892 156.422 159.255C157.793 165.228 162.752 168.483 168.561 170.945ZM98.482 129.298C100.783 125.653 102.398 119.021 102.534 111.885C100.896 113.548 98.8877 114.553 98.7557 116.718C98.4626 121.025 97.1395 125.016 98.482 129.298ZM169.836 160.349C169.834 161.988 170.177 162.648 171.021 163.467C173.846 166.615 176.668 169.735 179.651 172.381C182.316 174.338 183.32 174.682 186.12 172.835C183.796 171.511 182.108 168.208 178.148 168.574C175.508 166.589 173.319 163.126 169.836 160.349ZM156.739 158.251C161.068 160.209 164.711 162.512 167.377 166.161C169.198 165.633 169.015 164.498 168.196 163.651C167.512 160.691 165.347 158.866 161.704 158.229C162.682 156.909 163.87 158.388 164.69 157.571C162.524 155.745 159.066 156.27 156.739 158.251ZM113.387 73.5773C112.862 70.1161 112.361 68.2918 112.179 65.4909C112.496 64.4873 111.678 63.6666 110.517 63.8513C108.193 64.1936 106.054 64.0323 103.228 64.216C102.595 64.5575 102.41 65.0611 102.751 65.6943C107.557 66.1737 109.562 70.1395 113.387 73.5773ZM150.755 181.633C150.257 178.17 151.711 175.345 150.87 171.222C149.733 173.043 148.886 173.863 148.411 175.368C147.273 178.856 146.637 182.502 143.176 184.666C143.017 185.167 143.519 185.326 143.333 185.829C146.159 185.646 148.457 183.639 150.755 181.633ZM24.5171 96.2859C28.295 93.1184 31.5715 89.7923 33.2132 84.8249C26.4518 87.0122 23.9664 89.4949 24.5171 96.2859ZM143.789 176.051C148.572 173.228 150.025 170.403 149.684 166.411C143.241 167.622 142.578 169.603 143.789 176.051ZM110.042 178.245C114.506 176.399 117.622 173.547 120.926 170.219C118.258 169.901 115.802 170.744 113.137 170.453C111.84 172.749 110.519 175.101 110.042 178.245ZM37.5085 58.1394C37.19 59.1159 37.5077 59.8052 36.6877 60.6232C33.8916 59.1665 32.4091 61.9663 30.4296 62.9962C28.7914 64.6592 26.1484 65.9779 25.1692 68.9635C29.131 68.624 29.131 68.624 34.7327 63.2898C34.548 62.1276 33.0707 61.6502 33.889 60.8051C35.8694 61.4683 37.8753 62.1025 39.1704 59.7791C38.8545 59.1169 38.5114 58.4565 37.5085 58.1394ZM129.365 33.1066C130.183 32.2615 129.84 31.6012 130.66 30.7832C131.505 31.6022 130.499 32.9237 131.185 34.2444C131.981 28.4309 130.295 23.4886 127.153 23.0102C125.673 25.8372 126.701 29.4841 129.365 33.1066ZM206.108 249.853C204.311 252.017 202.695 260.315 204.04 262.958C207.315 259.605 207.315 259.605 207.135 255.165C206.635 253.341 207.268 251.334 206.108 249.853ZM89.4731 60.8231C89.3393 62.9617 88.1754 64.7851 87.5419 66.7924C87.0641 69.9365 87.2462 72.7373 87.5885 75.0635C87.746 76.2275 88.5906 77.0464 89.5935 77.3635C90.3635 71.5789 89.8391 66.4519 89.4731 60.8231ZM210.684 239.233C208.495 234.105 207.31 229.321 204.142 227.179C204.326 230.007 205.328 231.99 206.832 234.131C204.875 236.771 207.7 238.253 208.861 239.734C209.364 239.919 210.34 240.238 210.684 239.233ZM113.841 67.1305C112.862 70.1161 114.89 75.7187 116.554 77.3855C117.188 75.3782 116.689 73.5811 116.69 71.9153C117.167 68.7712 116.824 68.1108 113.841 67.1305ZM166.551 328.885C170.035 330.024 172.174 330.185 174.156 327.517C175.135 326.197 176.615 325.036 175.111 322.894C172.655 325.402 170.671 328.044 166.551 328.885ZM201.693 258.332C199.711 261 198.917 263.482 197.595 265.807C201.898 266.101 203.062 264.278 201.693 258.332ZM32.8631 55.5196C32.5209 53.1934 30.5422 52.5575 30.5159 50.8934C30.8326 49.8898 32.1804 50.8944 31.9957 49.7322C30.3338 48.0926 28.6964 48.0898 26.6905 47.4556C27.031 49.7546 29.0378 52.0818 32.8631 55.5196ZM124.991 134.128C125.993 136.111 127.524 138.25 129.819 139.548C131.666 140.684 132.988 140.025 134.969 139.022C131.141 137.223 127.498 136.586 124.991 134.128ZM140.409 137.495C139.406 137.177 138.589 136.357 138.245 135.696C135.739 133.238 134.761 132.892 131.619 134.079C134.442 135.534 136.105 138.867 140.409 137.495ZM39.2205 64.7457C36.0515 64.2691 32.9335 67.0933 31.6375 71.0825C35.2834 70.0809 36.7369 67.2556 39.2205 64.7457ZM37.1063 69.5801C40.2463 70.0313 44.1844 66.3891 44.8187 62.716C41.8608 65.0656 39.0613 66.9134 37.1063 69.5801ZM50.9694 67.5045C49.1473 66.3395 47.986 66.5242 46.5062 67.6854C45.0263 68.8467 45.87 71.3314 45.3949 72.8369C47.0331 71.1738 48.6714 69.5108 50.9694 67.5045ZM152.618 160.758C148.658 161.125 146.36 163.131 146.04 165.774C148.999 165.117 151.482 164.273 152.618 160.758ZM137.095 80.2281C139.416 83.1902 143.06 85.5201 144.249 85.3336C143.404 84.5147 142.056 83.5101 141.9 82.3733C141.057 79.8885 139.234 80.3894 137.095 80.2281ZM147.089 176.028C143.946 177.215 142.308 178.878 143.997 182.182C146.136 180.677 146.456 178.035 147.089 176.028ZM190.849 244.318C186.388 244.526 182.426 244.866 177.963 245.047C182.423 246.504 186.571 245.661 190.849 244.318ZM152.238 178.833C153.716 177.645 154.694 176.325 153.692 174.342C153.191 172.518 153.854 170.536 152.666 169.057C152.69 172.359 152.212 175.503 152.238 178.833ZM110.748 73.2846C108.9 70.4556 106.737 68.6574 103.912 67.1754C104.94 70.8223 108.082 71.3007 110.748 73.2846ZM186.71 159.252C189.851 161.396 192.199 164.356 195.657 165.497C192.358 163.855 190.168 160.392 186.71 159.252ZM133.94 137.041C128.794 132.597 128.794 132.597 126.311 133.441C128.476 135.267 130.798 136.563 133.94 137.041ZM154.329 169.031C155.624 166.707 153.33 165.409 153.462 163.243C154.123 162.927 154.809 164.248 155.786 162.901C155.285 162.742 154.941 162.082 154.467 161.922C153.807 162.265 152.96 163.085 152.802 163.586C153.33 165.409 153.83 167.233 154.329 169.031ZM94.7395 81.8077C97.2478 84.2934 100.202 85.2482 103.186 86.2285C100.388 84.7446 97.7229 82.7879 94.7395 81.8077ZM194.515 249.924C197.684 250.4 199.48 249.901 199.639 247.733C198.32 248.42 196.998 249.079 194.515 249.924ZM129.495 111.907C128.651 109.422 127.491 107.941 125.671 106.804C126.673 108.786 127.675 110.769 129.495 111.907ZM127.111 45.0227C127.612 46.847 127.638 48.511 129.458 49.6488C130.094 47.6687 128.272 46.5037 127.111 45.0227ZM215.058 252.793C215.719 250.784 215.032 249.463 213.054 248.827C213.051 250.466 213.737 251.787 215.058 252.793ZM178.672 173.701C178.013 172.379 177.67 171.718 176.193 171.241C176.032 173.381 176.375 174.042 178.672 173.701ZM30.8167 73.5662C33.3258 74.3862 33.3258 74.3862 33.9611 72.406C32.798 72.5636 31.6367 72.7483 30.8167 73.5662ZM39.1739 56.4746C38.4877 55.1539 38.4886 53.4881 36.3225 53.3285C37.0105 54.6765 38.4877 55.1539 39.1739 56.4746ZM168.375 249.084C168.875 250.908 168.875 250.908 171.201 248.9C170.039 249.085 169.035 248.74 168.375 249.084ZM229.905 242.762C229.06 241.943 227.741 240.964 226.736 240.619C227.395 241.942 228.902 242.445 229.905 242.762ZM169.636 182.863C169.793 184.027 170.479 185.348 172.3 186.486C171.799 184.661 170.639 183.18 169.636 182.863ZM198.781 268.952C197.777 268.608 197.117 268.951 196.114 268.634C197.116 270.617 197.803 270.272 198.781 268.952ZM173.71 172.085C172.866 171.266 172.365 169.442 170.542 169.943C171.73 171.422 172.705 171.741 173.71 172.085ZM43.77 52.462C44.0886 51.4856 44.4325 50.4801 43.7463 49.1594C43.2712 50.6649 42.9255 51.6431 43.77 52.462ZM171.708 279.369C169.226 278.547 169.885 279.87 169.568 280.874C170.73 280.689 170.888 280.187 171.708 279.369ZM152.914 153.148C153.073 152.646 152.73 151.986 151.754 151.667C152.07 152.329 151.252 153.174 152.914 153.148ZM190.586 282.238C190.268 283.214 190.585 283.904 191.428 284.695C191.747 283.719 191.403 283.058 190.586 282.238ZM195.846 274.577C195.502 275.583 195.845 276.243 196.504 277.566C196.505 275.9 196.161 275.24 195.846 274.577ZM172.863 250.539C174.026 250.382 174.685 250.039 175.002 249.035C173.999 248.718 173.683 249.722 172.863 250.539Z" fill="#D9B696"/>
</svg>
